{"glyphs":{"0":{"ha":863,"x_min":78,"x_max":786,"o":"m 438 994 q 642 920 564 994 q 753 732 719 846 q 786 489 786 618 q 749 247 786 364 q 633 54 713 131 q 432 -22 553 -22 q 158 125 239 -22 q 78 482 78 272 q 116 726 78 608 q 235 919 154 843 q 438 994 315 994 m 435 942 q 272 815 324 942 q 221 511 221 689 q 270 178 221 325 q 440 32 319 32 q 596 156 549 32 q 643 460 643 281 q 595 801 643 660 q 435 942 547 942 z "},"1":{"ha":506,"x_min":25,"x_max":457,"o":"m 344 151 q 340 56 344 82 l 457 61 l 457 0 l 103 0 l 103 46 q 197 88 171 49 q 224 204 224 126 l 222 860 l 219 860 l 53 753 l 25 793 l 296 994 l 343 994 l 344 151 z "},"2":{"ha":746,"x_min":64,"x_max":674,"o":"m 360 994 q 568 934 485 994 q 651 743 651 874 q 587 578 651 669 q 379 369 522 486 q 223 221 282 289 q 154 106 164 153 l 400 99 q 483 97 431 97 q 596 117 560 97 q 632 194 632 136 l 674 194 l 665 0 l 64 0 q 92 142 64 79 q 163 252 121 204 q 282 372 204 300 q 338 424 336 422 q 467 582 426 508 q 508 725 508 656 q 469 878 508 817 q 338 940 429 940 q 236 913 281 940 q 176 842 192 885 q 201 781 201 815 q 185 736 201 757 q 136 715 168 715 q 88 737 106 715 q 69 792 69 758 q 103 882 69 835 q 203 962 138 929 q 360 994 269 994 z "},"3":{"ha":774,"x_min":61,"x_max":704,"o":"m 368 994 q 569 935 490 994 q 649 753 649 876 q 594 619 649 681 q 421 521 540 558 q 628 435 553 506 q 704 257 704 365 q 656 103 704 167 q 528 9 608 40 q 354 -22 449 -22 q 194 7 260 -22 q 94 79 128 36 q 61 167 61 122 q 79 222 61 200 q 129 243 97 243 q 176 223 161 243 q 190 181 190 203 q 175 125 190 158 q 235 58 188 81 q 344 36 282 36 q 503 91 444 36 q 561 247 561 146 q 510 419 561 354 q 325 485 458 485 q 264 482 311 485 l 264 544 l 321 544 q 432 576 389 544 q 494 653 475 607 q 514 742 514 699 q 476 888 514 835 q 349 940 439 940 q 244 909 290 940 q 186 840 199 878 q 208 783 208 817 q 193 743 208 763 q 147 724 178 724 q 101 744 118 724 q 85 794 85 764 q 117 883 85 836 q 215 962 150 929 q 368 994 279 994 z "},"4":{"ha":753,"x_min":17,"x_max":706,"o":"m 565 351 l 706 350 l 706 268 l 565 268 l 565 151 q 560 53 565 81 l 667 57 l 667 0 l 318 0 l 318 46 l 328 46 q 417 93 394 50 q 439 221 439 136 l 439 268 l 17 268 l 17 336 l 519 994 l 565 994 l 565 351 m 439 797 l 436 797 l 108 358 l 439 354 l 439 797 z "},"5":{"ha":756,"x_min":72,"x_max":694,"o":"m 638 879 l 174 869 l 174 564 q 266 592 213 581 q 375 603 319 603 q 555 558 483 603 q 660 443 626 514 q 694 292 694 372 q 648 122 694 193 q 524 14 601 50 q 353 -22 446 -22 q 205 7 269 -22 q 106 80 140 36 q 72 167 72 124 q 90 222 72 200 q 140 243 108 243 q 187 223 172 243 q 201 181 201 203 q 186 126 201 157 q 244 56 194 81 q 350 32 294 32 q 499 100 449 32 q 550 267 550 168 q 335 540 550 540 q 240 526 296 540 q 151 492 185 513 l 113 528 l 110 972 l 469 972 q 578 993 547 972 q 608 1063 608 1014 l 646 1063 l 638 879 z "},"6":{"ha":803,"x_min":78,"x_max":735,"o":"m 456 994 q 589 966 533 994 q 673 897 644 938 q 701 818 701 856 q 686 767 701 788 q 642 746 671 747 q 594 763 610 744 q 579 804 579 782 q 596 863 579 833 q 549 917 588 892 q 458 943 511 943 q 267 798 319 943 q 208 490 214 653 q 306 574 246 542 q 442 607 365 607 q 612 561 546 607 q 706 444 678 515 q 735 296 735 374 q 692 137 735 210 q 576 21 650 64 q 410 -22 501 -22 q 155 101 232 -22 q 78 457 78 224 q 110 687 78 564 q 226 902 142 810 q 456 994 311 994 m 413 544 q 290 499 349 544 q 210 392 231 453 q 265 134 218 236 q 413 32 313 32 q 549 99 504 32 q 594 265 594 165 q 555 458 594 372 q 413 544 515 544 z "},"7":{"ha":640,"x_min":31,"x_max":613,"o":"m 613 878 q 505 626 549 747 q 431 390 461 504 q 347 63 400 276 q 275 -22 325 -22 q 222 39 222 -22 q 242 128 222 72 q 297 272 261 185 l 317 322 l 335 368 q 451 656 406 546 q 549 876 496 765 l 182 875 q 64 767 64 872 l 31 767 l 31 972 l 613 972 l 613 878 z "},"8":{"ha":781,"x_min":82,"x_max":711,"o":"m 396 994 q 530 968 468 994 q 629 891 592 942 q 667 771 667 840 q 615 631 667 693 q 479 528 563 569 q 647 391 582 468 q 711 231 711 314 q 617 42 711 107 q 383 -22 524 -22 q 242 1 311 -22 q 128 75 174 24 q 82 208 82 126 q 293 493 82 363 q 101 743 101 608 q 144 883 101 826 q 254 967 186 939 q 396 994 322 994 m 396 940 q 274 891 318 940 q 231 774 231 842 q 286 643 231 700 q 431 556 342 586 q 526 653 493 599 q 558 761 558 707 q 515 894 558 847 q 396 940 471 940 m 346 468 q 234 346 269 414 q 199 218 199 278 q 251 84 199 135 q 390 33 304 33 q 526 78 478 33 q 575 204 575 124 q 346 468 575 371 z "},"9":{"ha":803,"x_min":67,"x_max":721,"o":"m 394 994 q 649 864 576 994 q 721 499 721 733 q 644 135 721 292 q 357 -22 567 -21 q 215 3 272 -22 q 131 69 158 29 q 104 149 104 108 q 120 200 104 179 q 165 222 136 221 q 212 204 196 224 q 228 163 228 185 q 208 106 228 133 q 253 51 218 72 q 350 31 288 31 q 540 170 489 31 q 590 481 592 310 q 493 397 553 429 q 357 364 433 364 q 188 410 253 364 q 94 526 122 456 q 67 674 67 596 q 107 837 67 764 q 222 952 147 910 q 394 994 297 994 m 385 942 q 252 872 300 942 q 204 704 204 803 q 244 512 204 597 q 386 426 283 426 q 509 472 450 426 q 589 579 568 518 q 534 838 581 735 q 385 942 488 942 z "},"\u0000":{"ha":0,"x_min":0,"x_max":0,"o":""},"\r":{"ha":365,"x_min":0,"x_max":0,"o":""}," ":{"ha":365,"x_min":0,"x_max":0,"o":""},"A":{"ha":869,"x_min":-8,"x_max":886,"o":"m 756 208 q 782 127 771 171 q 792 56 793 83 l 886 61 l 886 0 l 568 0 l 568 46 q 650 113 650 47 q 636 178 650 139 l 588 308 l 226 300 q 178 151 206 243 q 143 56 164 106 l 251 61 l 251 0 l -8 0 l -8 46 q 47 62 26 46 q 81 103 68 78 q 113 181 94 129 l 126 219 l 413 999 l 446 999 l 756 208 m 404 796 l 346 639 l 271 428 l 247 360 l 568 360 l 469 625 l 407 796 l 404 796 z "},"Á":{"ha":869,"x_min":-8,"x_max":886,"o":"m 622 1269 q 631 1240 631 1258 q 586 1179 631 1207 l 385 1056 l 354 1096 l 529 1263 q 583 1288 558 1288 q 608 1281 597 1288 q 622 1269 618 1275 m 756 208 q 782 127 771 171 q 792 56 793 83 l 886 61 l 886 0 l 568 0 l 568 46 q 650 113 650 47 q 636 178 650 139 l 588 308 l 226 300 q 178 151 206 243 q 143 56 164 106 l 251 61 l 251 0 l -8 0 l -8 46 q 47 62 26 46 q 81 103 68 78 q 113 181 94 129 l 126 219 l 413 999 l 446 999 l 756 208 m 404 796 l 346 639 l 271 428 l 247 360 l 568 360 l 469 625 l 407 796 l 404 796 z "},"Ă":{"ha":869,"x_min":-8,"x_max":886,"o":"m 756 208 q 782 127 771 171 q 792 56 793 83 l 886 61 l 886 0 l 568 0 l 568 46 q 650 113 650 47 q 636 178 650 139 l 588 308 l 226 300 q 178 151 206 243 q 143 56 164 106 l 251 61 l 251 0 l -8 0 l -8 46 q 47 62 26 46 q 81 103 68 78 q 113 181 94 129 l 126 219 l 413 999 l 446 999 l 756 208 m 404 796 l 346 639 l 271 428 l 247 360 l 568 360 l 469 625 l 407 796 l 404 796 m 639 1267 q 553 1160 607 1197 q 435 1124 499 1124 q 317 1160 371 1124 q 232 1267 263 1197 l 268 1283 q 338 1231 292 1253 q 435 1208 383 1208 q 532 1231 486 1208 q 601 1283 578 1253 l 639 1267 z "},"Ắ":{"ha":869,"x_min":-8,"x_max":886,"o":"m 756 208 q 782 127 771 171 q 792 56 793 83 l 886 61 l 886 0 l 568 0 l 568 46 q 650 113 650 47 q 636 178 650 139 l 588 308 l 226 300 q 178 151 206 243 q 143 56 164 106 l 251 61 l 251 0 l -8 0 l -8 46 q 47 62 26 46 q 81 103 68 78 q 113 181 94 129 l 126 219 l 413 999 l 446 999 l 756 208 m 404 796 l 346 639 l 271 428 l 247 360 l 568 360 l 469 625 l 407 796 l 404 796 m 624 1285 q 432 1117 563 1117 q 322 1158 374 1117 q 244 1278 269 1200 l 285 1299 q 349 1230 307 1258 q 436 1201 390 1201 q 524 1231 482 1201 q 586 1301 565 1260 l 624 1285 m 613 1526 q 629 1488 629 1510 q 600 1428 629 1458 l 444 1281 l 406 1313 l 522 1500 q 579 1538 549 1538 q 613 1526 596 1538 z "},"Ặ":{"ha":869,"x_min":-8,"x_max":886,"o":"m 756 208 q 782 127 771 171 q 792 56 793 83 l 886 61 l 886 0 l 568 0 l 568 46 q 650 113 650 47 q 636 178 650 139 l 588 308 l 226 300 q 178 151 206 243 q 143 56 164 106 l 251 61 l 251 0 l -8 0 l -8 46 q 47 62 26 46 q 81 103 68 78 q 113 181 94 129 l 126 219 l 413 999 l 446 999 l 756 208 m 404 796 l 346 639 l 271 428 l 247 360 l 568 360 l 469 625 l 407 796 l 404 796 m 436 -108 q 483 -130 464 -108 q 503 -182 503 -151 q 482 -234 503 -212 q 435 -256 461 -256 q 388 -234 407 -256 q 368 -182 368 -212 q 388 -130 368 -151 q 436 -108 408 -108 m 639 1267 q 553 1160 607 1197 q 435 1124 499 1124 q 317 1160 371 1124 q 232 1267 263 1197 l 268 1283 q 338 1231 292 1253 q 435 1208 383 1208 q 532 1231 486 1208 q 601 1283 578 1253 l 639 1267 z "},"Ằ":{"ha":869,"x_min":-8,"x_max":886,"o":"m 756 208 q 782 127 771 171 q 792 56 793 83 l 886 61 l 886 0 l 568 0 l 568 46 q 650 113 650 47 q 636 178 650 139 l 588 308 l 226 300 q 178 151 206 243 q 143 56 164 106 l 251 61 l 251 0 l -8 0 l -8 46 q 47 62 26 46 q 81 103 68 78 q 113 181 94 129 l 126 219 l 413 999 l 446 999 l 756 208 m 404 796 l 346 639 l 271 428 l 247 360 l 568 360 l 469 625 l 407 796 l 404 796 m 624 1275 q 432 1107 563 1107 q 322 1149 374 1107 q 244 1268 269 1190 l 285 1289 q 349 1220 307 1249 q 436 1192 390 1192 q 524 1221 482 1192 q 586 1292 565 1250 l 624 1275 m 265 1503 q 299 1514 282 1514 q 356 1476 329 1514 l 472 1289 l 433 1257 l 278 1404 q 249 1464 249 1435 q 265 1503 249 1486 z "},"Ẳ":{"ha":869,"x_min":-8,"x_max":886,"o":"m 756 208 q 782 127 771 171 q 792 56 793 83 l 886 61 l 886 0 l 568 0 l 568 46 q 650 113 650 47 q 636 178 650 139 l 588 308 l 226 300 q 178 151 206 243 q 143 56 164 106 l 251 61 l 251 0 l -8 0 l -8 46 q 47 62 26 46 q 81 103 68 78 q 113 181 94 129 l 126 219 l 413 999 l 446 999 l 756 208 m 404 796 l 346 639 l 271 428 l 247 360 l 568 360 l 469 625 l 407 796 l 404 796 m 624 1285 q 432 1117 563 1117 q 322 1158 374 1117 q 244 1278 269 1200 l 285 1299 q 349 1230 307 1258 q 436 1201 390 1201 q 524 1231 482 1201 q 586 1301 565 1260 l 624 1285 m 418 1547 q 530 1515 489 1547 q 571 1419 571 1482 q 553 1371 571 1389 q 501 1333 535 1353 q 470 1313 479 1321 q 461 1294 461 1306 l 414 1294 q 422 1319 414 1310 q 446 1339 429 1328 q 480 1369 468 1353 q 492 1419 492 1386 q 419 1497 492 1497 q 376 1484 396 1497 q 354 1456 357 1471 q 363 1433 363 1444 q 349 1411 363 1419 q 319 1403 336 1403 q 274 1450 274 1403 q 313 1518 274 1489 q 418 1547 351 1547 z "},"Ẵ":{"ha":869,"x_min":-8,"x_max":886,"o":"m 756 208 q 782 127 771 171 q 792 56 793 83 l 886 61 l 886 0 l 568 0 l 568 46 q 650 113 650 47 q 636 178 650 139 l 588 308 l 226 300 q 178 151 206 243 q 143 56 164 106 l 251 61 l 251 0 l -8 0 l -8 46 q 47 62 26 46 q 81 103 68 78 q 113 181 94 129 l 126 219 l 413 999 l 446 999 l 756 208 m 404 796 l 346 639 l 271 428 l 247 360 l 568 360 l 469 625 l 407 796 l 404 796 m 624 1285 q 432 1117 563 1117 q 322 1158 374 1117 q 244 1278 269 1200 l 285 1299 q 349 1230 307 1258 q 436 1201 390 1201 q 524 1231 482 1201 q 586 1301 565 1260 l 624 1285 m 357 1474 q 410 1463 388 1474 q 463 1432 433 1451 q 501 1408 485 1415 q 536 1400 518 1400 q 594 1418 567 1400 q 638 1467 621 1436 l 678 1446 q 617 1348 657 1382 q 536 1314 576 1314 q 479 1325 504 1314 q 421 1358 454 1336 q 384 1381 399 1374 q 354 1389 369 1389 q 299 1374 326 1389 q 253 1331 271 1360 l 211 1354 q 273 1439 229 1404 q 357 1474 317 1474 z "},"Â":{"ha":869,"x_min":-8,"x_max":886,"o":"m 756 208 q 782 127 771 171 q 792 56 793 83 l 886 61 l 886 0 l 568 0 l 568 46 q 650 113 650 47 q 636 178 650 139 l 588 308 l 226 300 q 178 151 206 243 q 143 56 164 106 l 251 61 l 251 0 l -8 0 l -8 46 q 47 62 26 46 q 81 103 68 78 q 113 181 94 129 l 126 219 l 413 999 l 446 999 l 756 208 m 404 796 l 346 639 l 271 428 l 247 360 l 568 360 l 469 625 l 407 796 l 404 796 m 443 1293 l 699 1097 l 668 1050 l 438 1172 l 435 1172 l 199 1051 l 171 1096 l 440 1293 l 443 1293 z "},"Ấ":{"ha":869,"x_min":-8,"x_max":886,"o":"m 813 1390 q 829 1351 829 1374 q 800 1292 829 1322 l 644 1144 l 606 1176 l 722 1364 q 779 1401 749 1401 q 813 1390 796 1401 m 442 1238 l 653 1076 l 628 1038 l 438 1138 l 435 1138 l 240 1039 l 217 1075 l 440 1238 l 442 1238 m 756 208 q 782 127 771 171 q 792 56 793 83 l 886 61 l 886 0 l 568 0 l 568 46 q 650 113 650 47 q 636 178 650 139 l 588 308 l 226 300 q 178 151 206 243 q 143 56 164 106 l 251 61 l 251 0 l -8 0 l -8 46 q 47 62 26 46 q 81 103 68 78 q 113 181 94 129 l 126 219 l 413 999 l 446 999 l 756 208 m 404 796 l 346 639 l 271 428 l 247 360 l 568 360 l 469 625 l 407 796 l 404 796 z "},"Ậ":{"ha":869,"x_min":-8,"x_max":886,"o":"m 756 208 q 782 127 771 171 q 792 56 793 83 l 886 61 l 886 0 l 568 0 l 568 46 q 650 113 650 47 q 636 178 650 139 l 588 308 l 226 300 q 178 151 206 243 q 143 56 164 106 l 251 61 l 251 0 l -8 0 l -8 46 q 47 62 26 46 q 81 103 68 78 q 113 181 94 129 l 126 219 l 413 999 l 446 999 l 756 208 m 404 796 l 346 639 l 271 428 l 247 360 l 568 360 l 469 625 l 407 796 l 404 796 m 436 -108 q 483 -130 464 -108 q 503 -182 503 -151 q 482 -234 503 -212 q 435 -256 461 -256 q 388 -234 407 -256 q 368 -182 368 -212 q 388 -130 368 -151 q 436 -108 408 -108 m 443 1293 l 699 1097 l 668 1050 l 438 1172 l 435 1172 l 199 1051 l 171 1096 l 440 1293 l 443 1293 z "},"Ầ":{"ha":869,"x_min":-8,"x_max":886,"o":"m 446 1433 q 479 1444 463 1444 q 536 1407 510 1444 l 653 1219 l 614 1188 l 458 1335 q 429 1394 429 1365 q 446 1433 429 1417 m 442 1238 l 653 1076 l 628 1038 l 438 1138 l 435 1138 l 240 1039 l 217 1075 l 440 1238 l 442 1238 m 756 208 q 782 127 771 171 q 792 56 793 83 l 886 61 l 886 0 l 568 0 l 568 46 q 650 113 650 47 q 636 178 650 139 l 588 308 l 226 300 q 178 151 206 243 q 143 56 164 106 l 251 61 l 251 0 l -8 0 l -8 46 q 47 62 26 46 q 81 103 68 78 q 113 181 94 129 l 126 219 l 413 999 l 446 999 l 756 208 m 404 796 l 346 639 l 271 428 l 247 360 l 568 360 l 469 625 l 407 796 l 404 796 z "},"Ẩ":{"ha":869,"x_min":-8,"x_max":886,"o":"m 597 1429 q 709 1397 668 1429 q 750 1301 750 1364 q 732 1253 750 1271 q 681 1215 714 1235 q 649 1195 658 1203 q 640 1176 640 1188 l 593 1176 q 601 1201 593 1192 q 625 1221 608 1210 q 659 1252 647 1236 q 671 1301 671 1268 q 599 1379 671 1379 q 556 1366 575 1379 q 533 1338 536 1353 q 542 1315 542 1326 q 528 1293 542 1301 q 499 1285 515 1285 q 453 1332 453 1285 q 492 1400 453 1371 q 597 1429 531 1429 m 442 1238 l 653 1076 l 628 1038 l 438 1138 l 435 1138 l 240 1039 l 217 1075 l 440 1238 l 442 1238 m 756 208 q 782 127 771 171 q 792 56 793 83 l 886 61 l 886 0 l 568 0 l 568 46 q 650 113 650 47 q 636 178 650 139 l 588 308 l 226 300 q 178 151 206 243 q 143 56 164 106 l 251 61 l 251 0 l -8 0 l -8 46 q 47 62 26 46 q 81 103 68 78 q 113 181 94 129 l 126 219 l 413 999 l 446 999 l 756 208 m 404 796 l 346 639 l 271 428 l 247 360 l 568 360 l 469 625 l 407 796 l 404 796 z "},"Ẫ":{"ha":869,"x_min":-8,"x_max":886,"o":"m 374 1415 q 427 1404 404 1415 q 479 1374 450 1393 q 518 1349 501 1357 q 553 1342 535 1342 q 610 1360 583 1342 q 654 1408 638 1378 l 694 1388 q 633 1290 674 1324 q 553 1256 593 1256 q 496 1267 521 1256 q 438 1300 471 1278 q 401 1323 415 1315 q 371 1331 386 1331 q 315 1316 343 1331 q 269 1272 288 1301 l 228 1296 q 290 1381 246 1346 q 374 1415 333 1415 m 442 1238 l 653 1076 l 628 1038 l 438 1138 l 435 1138 l 240 1039 l 217 1075 l 440 1238 l 442 1238 m 756 208 q 782 127 771 171 q 792 56 793 83 l 886 61 l 886 0 l 568 0 l 568 46 q 650 113 650 47 q 636 178 650 139 l 588 308 l 226 300 q 178 151 206 243 q 143 56 164 106 l 251 61 l 251 0 l -8 0 l -8 46 q 47 62 26 46 q 81 103 68 78 q 113 181 94 129 l 126 219 l 413 999 l 446 999 l 756 208 m 404 796 l 346 639 l 271 428 l 247 360 l 568 360 l 469 625 l 407 796 l 404 796 z "},"Ä":{"ha":869,"x_min":-8,"x_max":886,"o":"m 307 1251 q 360 1226 339 1251 q 382 1163 382 1200 q 359 1101 382 1126 q 306 1075 336 1075 q 254 1101 276 1075 q 232 1163 232 1126 q 255 1225 232 1199 q 307 1251 278 1251 m 557 1251 q 610 1226 589 1251 q 632 1163 632 1200 q 609 1101 632 1126 q 556 1075 586 1075 q 504 1101 526 1075 q 482 1163 482 1126 q 505 1225 482 1199 q 557 1251 528 1251 m 756 208 q 782 127 771 171 q 792 56 793 83 l 886 61 l 886 0 l 568 0 l 568 46 q 650 113 650 47 q 636 178 650 139 l 588 308 l 226 300 q 178 151 206 243 q 143 56 164 106 l 251 61 l 251 0 l -8 0 l -8 46 q 47 62 26 46 q 81 103 68 78 q 113 181 94 129 l 126 219 l 413 999 l 446 999 l 756 208 m 404 796 l 346 639 l 271 428 l 247 360 l 568 360 l 469 625 l 407 796 l 404 796 z "},"Ạ":{"ha":869,"x_min":-8,"x_max":886,"o":"m 756 208 q 782 127 771 171 q 792 56 793 83 l 886 61 l 886 0 l 568 0 l 568 46 q 650 113 650 47 q 636 178 650 139 l 588 308 l 226 300 q 178 151 206 243 q 143 56 164 106 l 251 61 l 251 0 l -8 0 l -8 46 q 47 62 26 46 q 81 103 68 78 q 113 181 94 129 l 126 219 l 413 999 l 446 999 l 756 208 m 404 796 l 346 639 l 271 428 l 247 360 l 568 360 l 469 625 l 407 796 l 404 796 m 436 -108 q 483 -130 464 -108 q 503 -182 503 -151 q 482 -234 503 -212 q 435 -256 461 -256 q 388 -234 407 -256 q 368 -182 368 -212 q 388 -130 368 -151 q 436 -108 408 -108 z "},"À":{"ha":869,"x_min":-8,"x_max":886,"o":"m 756 208 q 782 127 771 171 q 792 56 793 83 l 886 61 l 886 0 l 568 0 l 568 46 q 650 113 650 47 q 636 178 650 139 l 588 308 l 226 300 q 178 151 206 243 q 143 56 164 106 l 251 61 l 251 0 l -8 0 l -8 46 q 47 62 26 46 q 81 103 68 78 q 113 181 94 129 l 126 219 l 413 999 l 446 999 l 756 208 m 404 796 l 346 639 l 271 428 l 247 360 l 568 360 l 469 625 l 407 796 l 404 796 m 247 1269 q 262 1281 251 1275 q 286 1288 272 1288 q 340 1263 311 1288 l 515 1096 l 485 1056 l 283 1179 q 239 1240 239 1207 q 247 1269 239 1258 z "},"Ả":{"ha":869,"x_min":-8,"x_max":886,"o":"m 756 208 q 782 127 771 171 q 792 56 793 83 l 886 61 l 886 0 l 568 0 l 568 46 q 650 113 650 47 q 636 178 650 139 l 588 308 l 226 300 q 178 151 206 243 q 143 56 164 106 l 251 61 l 251 0 l -8 0 l -8 46 q 47 62 26 46 q 81 103 68 78 q 113 181 94 129 l 126 219 l 413 999 l 446 999 l 756 208 m 404 796 l 346 639 l 271 428 l 247 360 l 568 360 l 469 625 l 407 796 l 404 796 m 417 1317 q 528 1284 488 1317 q 569 1189 569 1251 q 551 1140 569 1158 q 500 1103 533 1122 q 469 1083 478 1090 q 460 1064 460 1075 l 413 1064 q 420 1088 413 1079 q 444 1108 428 1097 q 478 1139 467 1122 q 490 1189 490 1156 q 418 1267 490 1267 q 375 1253 394 1267 q 353 1225 356 1240 q 361 1203 361 1214 q 348 1181 361 1189 q 318 1172 335 1172 q 272 1219 272 1172 q 311 1288 272 1258 q 417 1317 350 1317 z "},"Ā":{"ha":869,"x_min":-8,"x_max":886,"o":"m 756 208 q 782 127 771 171 q 792 56 793 83 l 886 61 l 886 0 l 568 0 l 568 46 q 650 113 650 47 q 636 178 650 139 l 588 308 l 226 300 q 178 151 206 243 q 143 56 164 106 l 251 61 l 251 0 l -8 0 l -8 46 q 47 62 26 46 q 81 103 68 78 q 113 181 94 129 l 126 219 l 413 999 l 446 999 l 756 208 m 404 796 l 346 639 l 271 428 l 247 360 l 568 360 l 469 625 l 407 796 l 404 796 m 618 1250 l 618 1172 l 250 1167 l 250 1250 l 618 1250 z "},"Ą":{"ha":869,"x_min":-8,"x_max":886,"o":"m 783 0 q 651 -76 703 -28 q 600 -190 600 -125 q 625 -260 600 -233 q 686 -286 650 -286 q 776 -247 731 -286 l 800 -272 q 726 -334 771 -308 q 635 -360 682 -360 q 528 -320 568 -360 q 488 -218 488 -281 q 543 -97 488 -153 q 686 0 599 -40 l 568 0 l 568 46 q 650 113 650 47 q 636 178 650 139 l 588 308 l 226 300 q 178 151 206 243 q 143 56 164 106 l 251 61 l 251 0 l -8 0 l -8 46 q 47 62 26 46 q 81 103 68 78 q 113 181 94 129 l 126 219 l 413 999 l 446 999 l 756 208 q 782 127 771 171 q 792 56 793 83 l 886 61 l 886 0 l 783 0 m 568 360 l 469 625 l 407 796 l 404 796 l 346 639 l 271 428 l 247 360 l 568 360 z "},"Å":{"ha":869,"x_min":-8,"x_max":886,"o":"m 886 61 l 886 0 l 568 0 l 568 46 q 650 113 650 47 q 636 178 650 139 l 588 308 l 226 300 q 178 151 206 243 q 143 56 164 106 l 251 61 l 251 0 l -8 0 l -8 46 q 47 62 26 46 q 81 103 68 78 q 113 181 94 129 l 126 219 l 411 994 q 315 1040 354 1001 q 276 1143 276 1078 q 299 1224 276 1189 q 358 1280 321 1260 q 433 1300 394 1300 q 545 1261 497 1300 q 593 1150 593 1222 q 549 1042 593 1085 q 447 993 506 999 l 756 208 q 782 127 771 171 q 792 56 793 83 l 886 61 m 357 1153 q 379 1072 357 1103 q 439 1042 401 1042 q 491 1068 469 1042 q 513 1136 513 1094 q 491 1222 513 1192 q 433 1253 469 1253 q 378 1225 399 1253 q 357 1153 357 1197 m 568 360 l 469 625 l 407 796 l 404 796 l 346 639 l 271 428 l 247 360 l 568 360 z "},"Ã":{"ha":869,"x_min":-8,"x_max":886,"o":"m 756 208 q 782 127 771 171 q 792 56 793 83 l 886 61 l 886 0 l 568 0 l 568 46 q 650 113 650 47 q 636 178 650 139 l 588 308 l 226 300 q 178 151 206 243 q 143 56 164 106 l 251 61 l 251 0 l -8 0 l -8 46 q 47 62 26 46 q 81 103 68 78 q 113 181 94 129 l 126 219 l 413 999 l 446 999 l 756 208 m 404 796 l 346 639 l 271 428 l 247 360 l 568 360 l 469 625 l 407 796 l 404 796 m 328 1264 q 394 1250 367 1264 q 458 1208 422 1236 q 504 1177 485 1188 q 546 1167 524 1167 q 608 1191 581 1167 q 658 1257 635 1215 l 703 1235 q 631 1117 675 1154 q 538 1079 588 1079 q 467 1094 497 1079 q 399 1138 438 1110 q 353 1168 371 1158 q 317 1178 336 1178 q 266 1158 289 1178 q 214 1094 243 1138 l 167 1121 q 238 1224 192 1183 q 328 1264 283 1264 z "},"Æ":{"ha":1318,"x_min":-29,"x_max":1256,"o":"m 1206 729 l 1160 729 q 1110 885 1160 843 q 972 924 1061 926 l 853 921 q 781 902 803 919 q 753 853 758 885 q 747 756 747 822 l 747 532 l 850 532 q 949 540 917 532 q 998 575 982 547 q 1014 663 1014 603 l 1060 663 l 1060 360 l 1014 360 q 998 445 1014 419 q 951 476 982 471 q 851 482 921 482 l 747 476 l 747 164 q 743 56 747 92 l 1017 51 q 1159 102 1110 50 q 1208 271 1208 154 l 1256 271 l 1247 0 l 531 0 l 531 50 l 542 50 q 610 83 593 54 q 626 181 626 113 l 626 307 l 289 300 l 125 56 l 231 61 l 231 0 l -29 0 l -29 46 q 32 65 4 46 q 78 107 60 83 q 126 174 97 131 l 628 917 l 503 911 l 503 972 l 1199 972 l 1206 729 m 626 808 l 328 360 l 626 360 l 626 808 z "},"B":{"ha":864,"x_min":76,"x_max":810,"o":"m 390 975 q 642 917 554 975 q 731 743 731 860 q 672 605 731 668 q 501 522 613 542 l 501 519 q 730 451 650 519 q 810 272 810 383 q 767 127 810 189 q 651 33 725 65 q 482 0 576 0 l 76 0 l 76 46 q 146 68 125 47 q 169 119 167 89 q 172 224 172 149 l 172 807 q 176 917 172 882 l 76 911 l 76 972 q 390 975 279 975 m 397 925 q 331 913 353 925 q 301 872 308 900 q 293 790 293 844 l 293 532 l 394 535 q 554 595 504 536 q 604 740 604 654 q 544 885 604 844 q 397 925 483 925 m 436 482 q 293 478 360 482 l 293 164 q 289 56 293 92 q 389 53 315 53 l 436 53 q 610 108 546 53 q 675 264 675 163 q 609 432 675 382 q 436 482 543 482 z "},"C":{"ha":971,"x_min":64,"x_max":929,"o":"m 546 994 q 826 910 699 994 l 819 985 l 894 985 l 894 663 l 844 663 q 753 865 831 792 q 556 938 676 938 q 376 883 457 938 q 247 726 294 828 q 200 492 200 625 q 250 263 200 364 q 385 106 300 163 q 572 50 469 50 q 751 92 665 50 q 893 210 838 133 l 929 181 q 744 23 849 68 q 536 -22 640 -22 q 292 43 400 -22 q 124 221 185 108 q 64 471 64 333 q 119 726 64 607 q 283 920 174 846 q 546 994 392 994 z "},"Ć":{"ha":971,"x_min":64,"x_max":929,"o":"m 546 994 q 826 910 699 994 l 819 985 l 894 985 l 894 663 l 844 663 q 753 865 831 792 q 556 938 676 938 q 376 883 457 938 q 247 726 294 828 q 200 492 200 625 q 250 263 200 364 q 385 106 300 163 q 572 50 469 50 q 751 92 665 50 q 893 210 838 133 l 929 181 q 744 23 849 68 q 536 -22 640 -22 q 292 43 400 -22 q 124 221 185 108 q 64 471 64 333 q 119 726 64 607 q 283 920 174 846 q 546 994 392 994 m 729 1269 q 738 1240 738 1258 q 693 1179 738 1207 l 492 1056 l 461 1096 l 636 1263 q 690 1288 665 1288 q 715 1281 704 1288 q 729 1269 725 1275 z "},"Č":{"ha":971,"x_min":64,"x_max":929,"o":"m 546 994 q 826 910 699 994 l 819 985 l 894 985 l 894 663 l 844 663 q 753 865 831 792 q 556 938 676 938 q 376 883 457 938 q 247 726 294 828 q 200 492 200 625 q 250 263 200 364 q 385 106 300 163 q 572 50 469 50 q 751 92 665 50 q 893 210 838 133 l 929 181 q 744 23 849 68 q 536 -22 640 -22 q 292 43 400 -22 q 124 221 185 108 q 64 471 64 333 q 119 726 64 607 q 283 920 174 846 q 546 994 392 994 m 776 1329 l 804 1285 l 535 1083 l 532 1083 l 276 1279 l 307 1326 l 540 1204 l 776 1329 z "},"Ç":{"ha":971,"x_min":64,"x_max":929,"o":"m 929 181 q 654 -8 822 32 l 622 -107 q 666 -90 640 -96 q 713 -85 692 -85 q 792 -112 764 -85 q 819 -183 819 -140 q 727 -301 819 -257 q 533 -361 635 -346 l 525 -308 q 647 -265 599 -296 q 694 -196 694 -235 q 682 -162 694 -174 q 650 -151 669 -151 q 589 -171 621 -151 l 539 -147 l 571 -21 q 536 -22 558 -22 q 292 43 400 -22 q 124 221 185 108 q 64 471 64 333 q 119 726 64 607 q 283 920 174 846 q 546 994 392 994 q 826 910 699 994 l 819 985 l 894 985 l 894 663 l 844 663 q 753 865 831 792 q 556 938 676 938 q 376 883 457 938 q 247 726 294 828 q 200 492 200 625 q 250 263 200 364 q 385 106 300 163 q 572 50 469 50 q 751 92 665 50 q 893 210 838 133 l 929 181 z "},"Ĉ":{"ha":971,"x_min":64,"x_max":929,"o":"m 546 994 q 826 910 699 994 l 819 985 l 894 985 l 894 663 l 844 663 q 753 865 831 792 q 556 938 676 938 q 376 883 457 938 q 247 726 294 828 q 200 492 200 625 q 250 263 200 364 q 385 106 300 163 q 572 50 469 50 q 751 92 665 50 q 893 210 838 133 l 929 181 q 744 23 849 68 q 536 -22 640 -22 q 292 43 400 -22 q 124 221 185 108 q 64 471 64 333 q 119 726 64 607 q 283 920 174 846 q 546 994 392 994 m 549 1293 l 804 1097 l 774 1050 l 543 1172 l 540 1172 l 304 1051 l 276 1096 l 546 1293 l 549 1293 z "},"D":{"ha":1035,"x_min":76,"x_max":971,"o":"m 404 974 q 818 851 665 975 q 971 485 971 728 q 910 243 971 354 q 729 66 849 132 q 442 0 610 0 l 76 0 l 76 46 q 146 68 125 47 q 169 117 167 89 q 172 217 172 146 l 172 817 q 176 917 172 875 l 76 911 l 76 972 l 404 974 m 389 922 q 319 903 340 922 q 296 855 299 883 q 293 756 293 826 l 293 164 q 289 56 293 92 q 438 53 338 53 q 644 110 554 53 q 785 267 735 167 q 835 490 835 367 q 724 808 835 693 q 389 922 613 922 z "},"Ð":{"ha":1036,"x_min":26,"x_max":972,"o":"m 406 974 q 819 851 667 975 q 972 485 972 728 q 911 243 972 354 q 731 66 850 132 q 443 0 611 0 l 78 0 l 78 46 q 147 68 126 47 q 171 117 168 89 q 174 217 174 146 l 174 465 l 26 465 l 26 524 l 174 524 l 174 817 q 178 917 174 875 l 78 911 l 78 972 l 406 974 m 439 53 q 646 110 556 53 q 786 267 736 167 q 836 490 836 367 q 725 808 836 693 q 390 922 614 922 q 321 903 342 922 q 297 855 300 883 q 294 756 294 826 l 294 524 l 546 524 l 546 465 l 294 465 l 294 164 q 290 56 294 92 q 439 53 339 53 z "},"Ď":{"ha":1035,"x_min":76,"x_max":971,"o":"m 404 974 q 818 851 665 975 q 971 485 971 728 q 910 243 971 354 q 729 66 849 132 q 442 0 610 0 l 76 0 l 76 46 q 146 68 125 47 q 169 117 167 89 q 172 217 172 146 l 172 817 q 176 917 172 875 l 76 911 l 76 972 l 404 974 m 389 922 q 319 903 340 922 q 296 855 299 883 q 293 756 293 826 l 293 164 q 289 56 293 92 q 438 53 338 53 q 644 110 554 53 q 785 267 735 167 q 835 490 835 367 q 724 808 835 693 q 389 922 613 922 m 717 1329 l 744 1285 l 475 1083 l 472 1083 l 217 1279 l 247 1326 l 481 1204 l 717 1329 z "},"Đ":{"ha":1036,"x_min":26,"x_max":972,"o":"m 406 974 q 819 851 667 975 q 972 485 972 728 q 911 243 972 354 q 731 66 850 132 q 443 0 611 0 l 78 0 l 78 46 q 147 68 126 47 q 171 117 168 89 q 174 217 174 146 l 174 465 l 26 465 l 26 524 l 174 524 l 174 817 q 178 917 174 875 l 78 911 l 78 972 l 406 974 m 439 53 q 646 110 556 53 q 786 267 736 167 q 836 490 836 367 q 725 808 836 693 q 390 922 614 922 q 321 903 342 922 q 297 855 300 883 q 294 756 294 826 l 294 524 l 546 524 l 546 465 l 294 465 l 294 164 q 290 56 294 92 q 439 53 339 53 z "},"E":{"ha":864,"x_min":76,"x_max":801,"o":"m 751 729 l 706 729 q 656 885 706 843 q 518 924 607 926 l 399 921 q 326 902 349 919 q 299 853 304 885 q 293 756 293 822 l 293 533 l 554 532 l 544 651 l 606 651 l 606 360 l 560 360 q 547 438 560 411 q 509 474 535 465 q 438 483 483 483 l 394 482 l 293 478 l 293 160 q 289 51 293 88 l 554 56 q 703 105 651 57 q 754 271 754 153 l 801 271 l 793 0 l 76 0 l 76 46 q 146 68 125 47 q 169 117 167 89 q 172 217 172 146 l 172 817 q 176 917 172 875 l 76 911 l 76 972 l 744 972 l 751 729 z "},"É":{"ha":864,"x_min":76,"x_max":801,"o":"m 642 1269 q 650 1240 650 1258 q 606 1179 650 1207 l 404 1056 l 374 1096 l 549 1263 q 603 1288 578 1288 q 627 1281 617 1288 q 642 1269 638 1275 m 751 729 l 706 729 q 656 885 706 843 q 518 924 607 926 l 399 921 q 326 902 349 919 q 299 853 304 885 q 293 756 293 822 l 293 533 l 554 532 l 544 651 l 606 651 l 606 360 l 560 360 q 547 438 560 411 q 509 474 535 465 q 438 483 483 483 l 394 482 l 293 478 l 293 160 q 289 51 293 88 l 554 56 q 703 105 651 57 q 754 271 754 153 l 801 271 l 793 0 l 76 0 l 76 46 q 146 68 125 47 q 169 117 167 89 q 172 217 172 146 l 172 817 q 176 917 172 875 l 76 911 l 76 972 l 744 972 l 751 729 z "},"Ě":{"ha":864,"x_min":76,"x_max":801,"o":"m 751 729 l 706 729 q 656 885 706 843 q 518 924 607 926 l 399 921 q 326 902 349 919 q 299 853 304 885 q 293 756 293 822 l 293 533 l 554 532 l 544 651 l 606 651 l 606 360 l 560 360 q 547 438 560 411 q 509 474 535 465 q 438 483 483 483 l 394 482 l 293 478 l 293 160 q 289 51 293 88 l 554 56 q 703 105 651 57 q 754 271 754 153 l 801 271 l 793 0 l 76 0 l 76 46 q 146 68 125 47 q 169 117 167 89 q 172 217 172 146 l 172 817 q 176 917 172 875 l 76 911 l 76 972 l 744 972 l 751 729 m 690 1329 l 718 1285 l 449 1083 l 446 1083 l 190 1279 l 221 1326 l 454 1204 l 690 1329 z "},"Ê":{"ha":864,"x_min":76,"x_max":801,"o":"m 751 729 l 706 729 q 656 885 706 843 q 518 924 607 926 l 399 921 q 326 902 349 919 q 299 853 304 885 q 293 756 293 822 l 293 533 l 554 532 l 544 651 l 606 651 l 606 360 l 560 360 q 547 438 560 411 q 509 474 535 465 q 438 483 483 483 l 394 482 l 293 478 l 293 160 q 289 51 293 88 l 554 56 q 703 105 651 57 q 754 271 754 153 l 801 271 l 793 0 l 76 0 l 76 46 q 146 68 125 47 q 169 117 167 89 q 172 217 172 146 l 172 817 q 176 917 172 875 l 76 911 l 76 972 l 744 972 l 751 729 m 463 1293 l 718 1097 l 688 1050 l 457 1172 l 454 1172 l 218 1051 l 190 1096 l 460 1293 l 463 1293 z "},"Ế":{"ha":864,"x_min":76,"x_max":849,"o":"m 832 1390 q 849 1351 849 1374 q 819 1292 849 1322 l 664 1144 l 625 1176 l 742 1364 q 799 1401 768 1401 q 832 1390 815 1401 m 461 1238 l 672 1076 l 647 1038 l 457 1138 l 454 1138 l 260 1039 l 236 1075 l 460 1238 l 461 1238 m 751 729 l 706 729 q 656 885 706 843 q 518 924 607 926 l 399 921 q 326 902 349 919 q 299 853 304 885 q 293 756 293 822 l 293 533 l 554 532 l 544 651 l 606 651 l 606 360 l 560 360 q 547 438 560 411 q 509 474 535 465 q 438 483 483 483 l 394 482 l 293 478 l 293 160 q 289 51 293 88 l 554 56 q 703 105 651 57 q 754 271 754 153 l 801 271 l 793 0 l 76 0 l 76 46 q 146 68 125 47 q 169 117 167 89 q 172 217 172 146 l 172 817 q 176 917 172 875 l 76 911 l 76 972 l 744 972 l 751 729 z "},"Ệ":{"ha":864,"x_min":76,"x_max":801,"o":"m 751 729 l 706 729 q 656 885 706 843 q 518 924 607 926 l 399 921 q 326 902 349 919 q 299 853 304 885 q 293 756 293 822 l 293 533 l 554 532 l 544 651 l 606 651 l 606 360 l 560 360 q 547 438 560 411 q 509 474 535 465 q 438 483 483 483 l 394 482 l 293 478 l 293 160 q 289 51 293 88 l 554 56 q 703 105 651 57 q 754 271 754 153 l 801 271 l 793 0 l 76 0 l 76 46 q 146 68 125 47 q 169 117 167 89 q 172 217 172 146 l 172 817 q 176 917 172 875 l 76 911 l 76 972 l 744 972 l 751 729 m 518 -108 q 565 -130 546 -108 q 585 -182 585 -151 q 564 -234 585 -212 q 517 -256 543 -256 q 469 -234 489 -256 q 450 -182 450 -212 q 470 -130 450 -151 q 518 -108 490 -108 m 463 1293 l 718 1097 l 688 1050 l 457 1172 l 454 1172 l 218 1051 l 190 1096 l 460 1293 l 463 1293 z "},"Ề":{"ha":864,"x_min":76,"x_max":801,"o":"m 465 1433 q 499 1444 482 1444 q 556 1407 529 1444 l 672 1219 l 633 1188 l 478 1335 q 449 1394 449 1365 q 465 1433 449 1417 m 461 1238 l 672 1076 l 647 1038 l 457 1138 l 454 1138 l 260 1039 l 236 1075 l 460 1238 l 461 1238 m 751 729 l 706 729 q 656 885 706 843 q 518 924 607 926 l 399 921 q 326 902 349 919 q 299 853 304 885 q 293 756 293 822 l 293 533 l 554 532 l 544 651 l 606 651 l 606 360 l 560 360 q 547 438 560 411 q 509 474 535 465 q 438 483 483 483 l 394 482 l 293 478 l 293 160 q 289 51 293 88 l 554 56 q 703 105 651 57 q 754 271 754 153 l 801 271 l 793 0 l 76 0 l 76 46 q 146 68 125 47 q 169 117 167 89 q 172 217 172 146 l 172 817 q 176 917 172 875 l 76 911 l 76 972 l 744 972 l 751 729 z "},"Ể":{"ha":864,"x_min":76,"x_max":801,"o":"m 617 1429 q 728 1397 688 1429 q 769 1301 769 1364 q 751 1253 769 1271 q 700 1215 733 1235 q 669 1195 678 1203 q 660 1176 660 1188 l 613 1176 q 620 1201 613 1192 q 644 1221 628 1210 q 678 1252 667 1236 q 690 1301 690 1268 q 618 1379 690 1379 q 575 1366 594 1379 q 553 1338 556 1353 q 561 1315 561 1326 q 548 1293 561 1301 q 518 1285 535 1285 q 472 1332 472 1285 q 511 1400 472 1371 q 617 1429 550 1429 m 461 1238 l 672 1076 l 647 1038 l 457 1138 l 454 1138 l 260 1039 l 236 1075 l 460 1238 l 461 1238 m 751 729 l 706 729 q 656 885 706 843 q 518 924 607 926 l 399 921 q 326 902 349 919 q 299 853 304 885 q 293 756 293 822 l 293 533 l 554 532 l 544 651 l 606 651 l 606 360 l 560 360 q 547 438 560 411 q 509 474 535 465 q 438 483 483 483 l 394 482 l 293 478 l 293 160 q 289 51 293 88 l 554 56 q 703 105 651 57 q 754 271 754 153 l 801 271 l 793 0 l 76 0 l 76 46 q 146 68 125 47 q 169 117 167 89 q 172 217 172 146 l 172 817 q 176 917 172 875 l 76 911 l 76 972 l 744 972 l 751 729 z "},"Ễ":{"ha":864,"x_min":76,"x_max":801,"o":"m 393 1415 q 447 1404 424 1415 q 499 1374 469 1393 q 538 1349 521 1357 q 572 1342 554 1342 q 630 1360 603 1342 q 674 1408 657 1378 l 714 1388 q 653 1290 693 1324 q 572 1256 613 1256 q 515 1267 540 1256 q 457 1300 490 1278 q 420 1323 435 1315 q 390 1331 406 1331 q 335 1316 363 1331 q 289 1272 307 1301 l 247 1296 q 309 1381 265 1346 q 393 1415 353 1415 m 461 1238 l 672 1076 l 647 1038 l 457 1138 l 454 1138 l 260 1039 l 236 1075 l 460 1238 l 461 1238 m 751 729 l 706 729 q 656 885 706 843 q 518 924 607 926 l 399 921 q 326 902 349 919 q 299 853 304 885 q 293 756 293 822 l 293 533 l 554 532 l 544 651 l 606 651 l 606 360 l 560 360 q 547 438 560 411 q 509 474 535 465 q 438 483 483 483 l 394 482 l 293 478 l 293 160 q 289 51 293 88 l 554 56 q 703 105 651 57 q 754 271 754 153 l 801 271 l 793 0 l 76 0 l 76 46 q 146 68 125 47 q 169 117 167 89 q 172 217 172 146 l 172 817 q 176 917 172 875 l 76 911 l 76 972 l 744 972 l 751 729 z "},"Ë":{"ha":864,"x_min":76,"x_max":801,"o":"m 331 1251 q 384 1226 363 1251 q 406 1163 406 1200 q 383 1101 406 1126 q 329 1075 360 1075 q 278 1101 300 1075 q 256 1163 256 1126 q 278 1225 256 1199 q 331 1251 301 1251 m 579 1251 q 633 1226 611 1251 q 654 1163 654 1200 q 631 1101 654 1126 q 578 1075 608 1075 q 526 1101 549 1075 q 504 1163 504 1126 q 527 1225 504 1199 q 579 1251 550 1251 m 751 729 l 706 729 q 656 885 706 843 q 518 924 607 926 l 399 921 q 326 902 349 919 q 299 853 304 885 q 293 756 293 822 l 293 533 l 554 532 l 544 651 l 606 651 l 606 360 l 560 360 q 547 438 560 411 q 509 474 535 465 q 438 483 483 483 l 394 482 l 293 478 l 293 160 q 289 51 293 88 l 554 56 q 703 105 651 57 q 754 271 754 153 l 801 271 l 793 0 l 76 0 l 76 46 q 146 68 125 47 q 169 117 167 89 q 172 217 172 146 l 172 817 q 176 917 172 875 l 76 911 l 76 972 l 744 972 l 751 729 z "},"Ė":{"ha":864,"x_min":76,"x_max":801,"o":"m 751 729 l 706 729 q 656 885 706 843 q 518 924 607 926 l 399 921 q 326 902 349 919 q 299 853 304 885 q 293 756 293 822 l 293 533 l 554 532 l 544 651 l 606 651 l 606 360 l 560 360 q 547 438 560 411 q 509 474 535 465 q 438 483 483 483 l 394 482 l 293 478 l 293 160 q 289 51 293 88 l 554 56 q 703 105 651 57 q 754 271 754 153 l 801 271 l 793 0 l 76 0 l 76 46 q 146 68 125 47 q 169 117 167 89 q 172 217 172 146 l 172 817 q 176 917 172 875 l 76 911 l 76 972 l 744 972 l 751 729 m 456 1289 q 509 1265 488 1289 q 531 1206 531 1240 q 508 1148 531 1172 q 454 1124 485 1124 q 403 1148 425 1124 q 381 1206 381 1172 q 403 1264 381 1239 q 456 1289 426 1289 z "},"Ẹ":{"ha":864,"x_min":76,"x_max":801,"o":"m 751 729 l 706 729 q 656 885 706 843 q 518 924 607 926 l 399 921 q 326 902 349 919 q 299 853 304 885 q 293 756 293 822 l 293 533 l 554 532 l 544 651 l 606 651 l 606 360 l 560 360 q 547 438 560 411 q 509 474 535 465 q 438 483 483 483 l 394 482 l 293 478 l 293 160 q 289 51 293 88 l 554 56 q 703 105 651 57 q 754 271 754 153 l 801 271 l 793 0 l 76 0 l 76 46 q 146 68 125 47 q 169 117 167 89 q 172 217 172 146 l 172 817 q 176 917 172 875 l 76 911 l 76 972 l 744 972 l 751 729 m 518 -108 q 565 -130 546 -108 q 585 -182 585 -151 q 564 -234 585 -212 q 517 -256 543 -256 q 469 -234 489 -256 q 450 -182 450 -212 q 470 -130 450 -151 q 518 -108 490 -108 z "},"È":{"ha":864,"x_min":76,"x_max":801,"o":"m 751 729 l 706 729 q 656 885 706 843 q 518 924 607 926 l 399 921 q 326 902 349 919 q 299 853 304 885 q 293 756 293 822 l 293 533 l 554 532 l 544 651 l 606 651 l 606 360 l 560 360 q 547 438 560 411 q 509 474 535 465 q 438 483 483 483 l 394 482 l 293 478 l 293 160 q 289 51 293 88 l 554 56 q 703 105 651 57 q 754 271 754 153 l 801 271 l 793 0 l 76 0 l 76 46 q 146 68 125 47 q 169 117 167 89 q 172 217 172 146 l 172 817 q 176 917 172 875 l 76 911 l 76 972 l 744 972 l 751 729 m 267 1269 q 281 1281 271 1275 q 306 1288 292 1288 q 360 1263 331 1288 l 535 1096 l 504 1056 l 303 1179 q 258 1240 258 1207 q 267 1269 258 1258 z "},"Ẻ":{"ha":864,"x_min":76,"x_max":801,"o":"m 751 729 l 706 729 q 656 885 706 843 q 518 924 607 926 l 399 921 q 326 902 349 919 q 299 853 304 885 q 293 756 293 822 l 293 533 l 554 532 l 544 651 l 606 651 l 606 360 l 560 360 q 547 438 560 411 q 509 474 535 465 q 438 483 483 483 l 394 482 l 293 478 l 293 160 q 289 51 293 88 l 554 56 q 703 105 651 57 q 754 271 754 153 l 801 271 l 793 0 l 76 0 l 76 46 q 146 68 125 47 q 169 117 167 89 q 172 217 172 146 l 172 817 q 176 917 172 875 l 76 911 l 76 972 l 744 972 l 751 729 m 436 1317 q 548 1284 507 1317 q 589 1189 589 1251 q 571 1140 589 1158 q 519 1103 553 1122 q 488 1083 497 1090 q 479 1064 479 1075 l 432 1064 q 440 1088 432 1079 q 464 1108 447 1097 q 498 1139 486 1122 q 510 1189 510 1156 q 438 1267 510 1267 q 394 1253 414 1267 q 372 1225 375 1240 q 381 1203 381 1214 q 367 1181 381 1189 q 338 1172 354 1172 q 292 1219 292 1172 q 331 1288 292 1258 q 436 1317 369 1317 z "},"Ē":{"ha":864,"x_min":76,"x_max":801,"o":"m 751 729 l 706 729 q 656 885 706 843 q 518 924 607 926 l 399 921 q 326 902 349 919 q 299 853 304 885 q 293 756 293 822 l 293 533 l 554 532 l 544 651 l 606 651 l 606 360 l 560 360 q 547 438 560 411 q 509 474 535 465 q 438 483 483 483 l 394 482 l 293 478 l 293 160 q 289 51 293 88 l 554 56 q 703 105 651 57 q 754 271 754 153 l 801 271 l 793 0 l 76 0 l 76 46 q 146 68 125 47 q 169 117 167 89 q 172 217 172 146 l 172 817 q 176 917 172 875 l 76 911 l 76 972 l 744 972 l 751 729 m 638 1250 l 638 1172 l 269 1167 l 269 1250 l 638 1250 z "},"Ę":{"ha":864,"x_min":76,"x_max":801,"o":"m 682 -279 q 772 -240 726 -279 l 796 -265 q 722 -327 767 -301 q 631 -353 678 -353 q 524 -313 564 -353 q 483 -211 483 -274 q 535 -94 483 -149 q 667 0 586 -39 l 76 0 l 76 46 q 146 68 125 47 q 169 117 167 89 q 172 217 172 146 l 172 817 q 176 917 172 875 l 76 911 l 76 972 l 744 972 l 751 729 l 706 729 q 656 885 706 843 q 518 924 607 926 l 399 921 q 326 902 349 919 q 299 853 304 885 q 293 756 293 822 l 293 533 l 554 532 l 544 651 l 606 651 l 606 360 l 560 360 q 547 438 560 411 q 509 474 535 465 q 438 483 483 483 l 394 482 l 293 478 l 293 160 q 289 51 293 88 l 554 56 q 703 105 651 57 q 754 271 754 153 l 801 271 l 793 0 l 761 0 q 642 -76 688 -29 q 596 -183 596 -122 q 621 -253 596 -226 q 682 -279 646 -279 z "},"Ẽ":{"ha":864,"x_min":76,"x_max":801,"o":"m 751 729 l 706 729 q 656 885 706 843 q 518 924 607 926 l 399 921 q 326 902 349 919 q 299 853 304 885 q 293 756 293 822 l 293 533 l 554 532 l 544 651 l 606 651 l 606 360 l 560 360 q 547 438 560 411 q 509 474 535 465 q 438 483 483 483 l 394 482 l 293 478 l 293 160 q 289 51 293 88 l 554 56 q 703 105 651 57 q 754 271 754 153 l 801 271 l 793 0 l 76 0 l 76 46 q 146 68 125 47 q 169 117 167 89 q 172 217 172 146 l 172 817 q 176 917 172 875 l 76 911 l 76 972 l 744 972 l 751 729 m 367 1288 q 420 1276 397 1288 q 472 1246 443 1265 q 511 1222 494 1229 q 546 1214 528 1214 q 603 1232 576 1214 q 647 1281 631 1250 l 688 1260 q 626 1162 667 1196 q 546 1128 586 1128 q 489 1139 514 1128 q 431 1172 464 1150 q 394 1195 408 1188 q 364 1203 379 1203 q 308 1188 336 1203 q 263 1144 281 1174 l 221 1168 q 283 1253 239 1218 q 367 1288 326 1288 z "},"F":{"ha":761,"x_min":76,"x_max":728,"o":"m 728 729 l 682 729 q 631 885 682 843 q 490 924 579 926 l 389 921 q 320 899 340 919 q 297 848 300 878 q 293 750 293 818 l 293 511 l 535 510 l 525 631 l 586 631 l 586 338 l 542 338 q 530 417 542 390 q 493 453 518 443 q 424 463 468 463 q 376 461 393 463 l 293 457 l 293 165 q 289 56 293 92 l 431 61 l 431 0 l 76 0 l 76 46 q 146 68 125 47 q 169 117 167 89 q 172 217 172 146 l 172 817 q 176 917 172 875 l 76 911 l 76 972 l 721 972 l 728 729 z "},"G":{"ha":1057,"x_min":65,"x_max":1028,"o":"m 549 994 q 701 974 624 994 q 836 918 778 954 l 831 985 l 907 985 l 907 667 l 857 667 q 765 867 847 794 q 558 939 682 939 q 378 882 460 939 q 249 724 297 825 q 201 497 201 624 q 249 264 201 367 q 381 103 296 161 q 574 44 465 44 q 697 62 633 44 q 811 114 760 79 l 811 418 l 714 413 l 714 474 l 1028 474 l 1028 428 q 944 377 961 428 q 928 263 928 326 l 928 50 l 890 50 q 740 14 832 50 q 642 -12 699 -3 q 538 -22 585 -22 q 292 37 399 -22 q 125 206 185 96 q 65 465 65 315 q 120 722 65 601 q 285 919 175 843 q 549 994 394 994 z "},"Ğ":{"ha":1057,"x_min":65,"x_max":1028,"o":"m 549 994 q 701 974 624 994 q 836 918 778 954 l 831 985 l 907 985 l 907 667 l 857 667 q 765 867 847 794 q 558 939 682 939 q 378 882 460 939 q 249 724 297 825 q 201 497 201 624 q 249 264 201 367 q 381 103 296 161 q 574 44 465 44 q 697 62 633 44 q 811 114 760 79 l 811 418 l 714 413 l 714 474 l 1028 474 l 1028 428 q 944 377 961 428 q 928 263 928 326 l 928 50 l 890 50 q 740 14 832 50 q 642 -12 699 -3 q 538 -22 585 -22 q 292 37 399 -22 q 125 206 185 96 q 65 465 65 315 q 120 722 65 601 q 285 919 175 843 q 549 994 394 994 m 754 1267 q 668 1160 722 1197 q 550 1124 614 1124 q 432 1160 486 1124 q 347 1267 378 1197 l 383 1283 q 453 1231 407 1253 q 550 1208 499 1208 q 647 1231 601 1208 q 717 1283 693 1253 l 754 1267 z "},"Ĝ":{"ha":1057,"x_min":65,"x_max":1028,"o":"m 549 994 q 701 974 624 994 q 836 918 778 954 l 831 985 l 907 985 l 907 667 l 857 667 q 765 867 847 794 q 558 939 682 939 q 378 882 460 939 q 249 724 297 825 q 201 497 201 624 q 249 264 201 367 q 381 103 296 161 q 574 44 465 44 q 697 62 633 44 q 811 114 760 79 l 811 418 l 714 413 l 714 474 l 1028 474 l 1028 428 q 944 377 961 428 q 928 263 928 326 l 928 50 l 890 50 q 740 14 832 50 q 642 -12 699 -3 q 538 -22 585 -22 q 292 37 399 -22 q 125 206 185 96 q 65 465 65 315 q 120 722 65 601 q 285 919 175 843 q 549 994 394 994 m 558 1293 l 814 1097 l 783 1050 l 553 1172 l 550 1172 l 314 1051 l 286 1096 l 556 1293 l 558 1293 z "},"Ģ":{"ha":1057,"x_min":65,"x_max":1028,"o":"m 549 994 q 701 974 624 994 q 836 918 778 954 l 831 985 l 907 985 l 907 667 l 857 667 q 765 867 847 794 q 558 939 682 939 q 378 882 460 939 q 249 724 297 825 q 201 497 201 624 q 249 264 201 367 q 381 103 296 161 q 574 44 465 44 q 697 62 633 44 q 811 114 760 79 l 811 418 l 714 413 l 714 474 l 1028 474 l 1028 428 q 944 377 961 428 q 928 263 928 326 l 928 50 l 890 50 q 740 14 832 50 q 642 -12 699 -3 q 538 -22 585 -22 q 292 37 399 -22 q 125 206 185 96 q 65 465 65 315 q 120 722 65 601 q 285 919 175 843 q 549 994 394 994 m 632 -56 q 654 -144 654 -99 q 542 -360 654 -247 l 506 -333 q 553 -178 553 -246 q 536 -83 553 -132 l 632 -56 z "},"H":{"ha":1083,"x_min":76,"x_max":1007,"o":"m 1007 926 q 938 904 958 925 q 914 855 917 883 q 911 756 911 826 l 911 165 q 907 56 911 92 l 1007 61 l 1007 0 l 694 0 l 694 46 q 764 68 743 47 q 788 117 785 89 q 790 217 790 146 l 790 469 l 293 464 l 293 165 q 289 56 293 92 l 389 61 l 389 0 l 76 0 l 76 46 q 146 68 125 47 q 169 117 167 89 q 172 217 172 146 l 172 817 q 176 917 172 875 l 76 911 l 76 972 l 389 972 l 389 926 q 319 904 340 925 q 296 855 299 883 q 293 756 293 826 l 293 525 l 790 525 l 790 817 q 794 917 790 875 l 694 911 l 694 972 l 1007 972 l 1007 926 z "},"Ĥ":{"ha":1083,"x_min":76,"x_max":1007,"o":"m 1007 926 q 938 904 958 925 q 914 855 917 883 q 911 756 911 826 l 911 165 q 907 56 911 92 l 1007 61 l 1007 0 l 694 0 l 694 46 q 764 68 743 47 q 788 117 785 89 q 790 217 790 146 l 790 469 l 293 464 l 293 165 q 289 56 293 92 l 389 61 l 389 0 l 76 0 l 76 46 q 146 68 125 47 q 169 117 167 89 q 172 217 172 146 l 172 817 q 176 917 172 875 l 76 911 l 76 972 l 389 972 l 389 926 q 319 904 340 925 q 296 855 299 883 q 293 756 293 826 l 293 525 l 790 525 l 790 817 q 794 917 790 875 l 694 911 l 694 972 l 1007 972 l 1007 926 m 550 1293 l 806 1097 l 775 1050 l 544 1172 l 542 1172 l 306 1051 l 278 1096 l 547 1293 l 550 1293 z "},"I":{"ha":465,"x_min":76,"x_max":389,"o":"m 389 926 q 319 904 340 925 q 296 855 299 883 q 293 756 293 826 l 293 165 q 289 56 293 92 l 389 61 l 389 0 l 76 0 l 76 46 q 146 68 125 47 q 169 117 167 89 q 172 217 172 146 l 172 817 q 176 917 172 875 l 76 911 l 76 972 l 389 972 l 389 926 z "},"Í":{"ha":465,"x_min":76,"x_max":433,"o":"m 425 1269 q 433 1240 433 1258 q 389 1179 433 1207 l 188 1056 l 157 1096 l 332 1263 q 386 1288 361 1288 q 410 1281 400 1288 q 425 1269 421 1275 m 389 926 q 319 904 340 925 q 296 855 299 883 q 293 756 293 826 l 293 165 q 289 56 293 92 l 389 61 l 389 0 l 76 0 l 76 46 q 146 68 125 47 q 169 117 167 89 q 172 217 172 146 l 172 817 q 176 917 172 875 l 76 911 l 76 972 l 389 972 l 389 926 z "},"Î":{"ha":465,"x_min":26,"x_max":449,"o":"m 244 1293 l 449 1097 l 417 1056 l 239 1172 l 238 1172 l 61 1056 l 26 1096 l 242 1293 l 244 1293 m 389 926 q 319 904 340 925 q 296 855 299 883 q 293 756 293 826 l 293 165 q 289 56 293 92 l 389 61 l 389 0 l 76 0 l 76 46 q 146 68 125 47 q 169 117 167 89 q 172 217 172 146 l 172 817 q 176 917 172 875 l 76 911 l 76 972 l 389 972 l 389 926 z "},"Ï":{"ha":465,"x_min":58,"x_max":431,"o":"m 133 1251 q 187 1226 165 1251 q 208 1163 208 1200 q 185 1101 208 1126 q 132 1075 163 1075 q 81 1101 103 1075 q 58 1163 58 1126 q 81 1225 58 1199 q 133 1251 104 1251 m 356 1251 q 409 1226 388 1251 q 431 1163 431 1200 q 408 1101 431 1126 q 354 1075 385 1075 q 303 1101 325 1075 q 281 1163 281 1126 q 303 1225 281 1199 q 356 1251 326 1251 m 389 926 q 319 904 340 925 q 296 855 299 883 q 293 756 293 826 l 293 165 q 289 56 293 92 l 389 61 l 389 0 l 76 0 l 76 46 q 146 68 125 47 q 169 117 167 89 q 172 217 172 146 l 172 817 q 176 917 172 875 l 76 911 l 76 972 l 389 972 l 389 926 z "},"İ":{"ha":465,"x_min":76,"x_max":389,"o":"m 389 926 q 319 904 340 925 q 296 855 299 883 q 293 756 293 826 l 293 165 q 289 56 293 92 l 389 61 l 389 0 l 76 0 l 76 46 q 146 68 125 47 q 169 117 167 89 q 172 217 172 146 l 172 817 q 176 917 172 875 l 76 911 l 76 972 l 389 972 l 389 926 m 239 1289 q 292 1265 271 1289 q 314 1206 314 1240 q 291 1148 314 1172 q 238 1124 268 1124 q 186 1148 208 1124 q 164 1206 164 1172 q 187 1264 164 1239 q 239 1289 210 1289 z "},"Ị":{"ha":465,"x_min":76,"x_max":389,"o":"m 389 926 q 319 904 340 925 q 296 855 299 883 q 293 756 293 826 l 293 165 q 289 56 293 92 l 389 61 l 389 0 l 76 0 l 76 46 q 146 68 125 47 q 169 117 167 89 q 172 217 172 146 l 172 817 q 176 917 172 875 l 76 911 l 76 972 l 389 972 l 389 926 m 235 -108 q 282 -130 263 -108 q 301 -182 301 -151 q 281 -234 301 -212 q 233 -256 260 -256 q 186 -234 206 -256 q 167 -182 167 -212 q 187 -130 167 -151 q 235 -108 207 -108 z "},"Ì":{"ha":465,"x_min":42,"x_max":389,"o":"m 389 926 q 319 904 340 925 q 296 855 299 883 q 293 756 293 826 l 293 165 q 289 56 293 92 l 389 61 l 389 0 l 76 0 l 76 46 q 146 68 125 47 q 169 117 167 89 q 172 217 172 146 l 172 817 q 176 917 172 875 l 76 911 l 76 972 l 389 972 l 389 926 m 50 1269 q 65 1281 54 1275 q 89 1288 75 1288 q 143 1263 114 1288 l 318 1096 l 288 1056 l 86 1179 q 42 1240 42 1207 q 50 1269 42 1258 z "},"Ỉ":{"ha":465,"x_min":75,"x_max":389,"o":"m 389 926 q 319 904 340 925 q 296 855 299 883 q 293 756 293 826 l 293 165 q 289 56 293 92 l 389 61 l 389 0 l 76 0 l 76 46 q 146 68 125 47 q 169 117 167 89 q 172 217 172 146 l 172 817 q 176 917 172 875 l 76 911 l 76 972 l 389 972 l 389 926 m 219 1317 q 331 1284 290 1317 q 372 1189 372 1251 q 354 1140 372 1158 q 303 1103 336 1122 q 272 1083 281 1090 q 263 1064 263 1075 l 215 1064 q 223 1088 215 1079 q 247 1108 231 1097 q 281 1139 269 1122 q 293 1189 293 1156 q 221 1267 293 1267 q 178 1253 197 1267 q 156 1225 158 1240 q 164 1203 164 1214 q 151 1181 164 1189 q 121 1172 138 1172 q 75 1219 75 1172 q 114 1288 75 1258 q 219 1317 153 1317 z "},"Ī":{"ha":465,"x_min":53,"x_max":421,"o":"m 389 926 q 319 904 340 925 q 296 855 299 883 q 293 756 293 826 l 293 165 q 289 56 293 92 l 389 61 l 389 0 l 76 0 l 76 46 q 146 68 125 47 q 169 117 167 89 q 172 217 172 146 l 172 817 q 176 917 172 875 l 76 911 l 76 972 l 389 972 l 389 926 m 421 1250 l 421 1172 l 53 1167 l 53 1250 l 421 1250 z "},"Į":{"ha":465,"x_min":76,"x_max":399,"o":"m 399 -272 q 325 -334 369 -308 q 233 -360 281 -360 q 126 -320 167 -360 q 86 -218 86 -281 q 142 -97 86 -153 q 285 0 197 -40 l 76 0 l 76 46 q 146 68 125 47 q 169 117 167 89 q 172 217 172 146 l 172 817 q 176 917 172 875 l 76 911 l 76 972 l 389 972 l 389 926 q 319 904 340 925 q 296 855 299 883 q 293 756 293 826 l 293 165 q 289 56 293 92 l 389 61 l 389 0 l 382 0 q 250 -76 301 -28 q 199 -190 199 -125 q 224 -260 199 -233 q 285 -286 249 -286 q 375 -247 329 -286 l 399 -272 z "},"Ĩ":{"ha":465,"x_min":4,"x_max":471,"o":"m 389 926 q 319 904 340 925 q 296 855 299 883 q 293 756 293 826 l 293 165 q 289 56 293 92 l 389 61 l 389 0 l 76 0 l 76 46 q 146 68 125 47 q 169 117 167 89 q 172 217 172 146 l 172 817 q 176 917 172 875 l 76 911 l 76 972 l 389 972 l 389 926 m 150 1288 q 203 1276 181 1288 q 256 1246 226 1265 q 294 1222 278 1229 q 329 1214 311 1214 q 387 1232 360 1214 q 431 1281 414 1250 l 471 1260 q 410 1162 450 1196 q 329 1128 369 1128 q 272 1139 297 1128 q 214 1172 247 1150 q 177 1195 192 1188 q 147 1203 163 1203 q 92 1188 119 1203 q 46 1144 64 1174 l 4 1168 q 66 1253 22 1218 q 150 1288 110 1288 z "},"J":{"ha":518,"x_min":-3,"x_max":476,"o":"m 476 926 q 391 891 413 926 q 369 789 369 856 l 369 339 q 347 128 369 207 q 274 14 324 50 q 144 -22 225 -22 q 40 5 83 -22 q -3 76 -3 32 q 14 128 -3 107 q 63 149 31 149 q 104 130 90 149 q 118 88 118 111 q 113 57 118 68 q 137 39 119 44 q 167 35 154 33 q 229 73 210 36 q 249 193 249 110 l 249 917 l 107 911 l 107 972 l 476 972 l 476 926 z "},"Ĵ":{"ha":518,"x_min":-3,"x_max":503,"o":"m 299 1293 l 503 1097 l 471 1056 l 293 1172 l 292 1172 l 115 1056 l 81 1096 l 296 1293 l 299 1293 m 476 926 q 391 891 413 926 q 369 789 369 856 l 369 339 q 347 128 369 207 q 274 14 324 50 q 144 -22 225 -22 q 40 5 83 -22 q -3 76 -3 32 q 14 128 -3 107 q 63 149 31 149 q 104 130 90 149 q 118 88 118 111 q 113 57 118 68 q 137 39 119 44 q 167 35 154 33 q 229 73 210 36 q 249 193 249 110 l 249 917 l 107 911 l 107 972 l 476 972 l 476 926 z "},"K":{"ha":949,"x_min":76,"x_max":942,"o":"m 883 926 q 776 906 819 921 q 690 851 732 890 q 603 739 649 813 l 467 522 q 519 480 497 503 q 559 434 542 457 q 582 404 576 411 l 738 197 q 823 97 789 129 q 882 56 857 65 q 942 46 907 46 l 942 0 l 772 0 q 632 136 736 0 l 465 361 q 408 432 432 404 q 361 474 383 460 l 293 472 l 293 165 q 289 56 293 92 l 389 61 l 389 0 l 76 0 l 76 46 q 146 68 125 47 q 169 117 167 89 q 172 217 172 146 l 172 817 q 176 917 172 875 l 76 911 l 76 972 l 389 972 l 389 926 q 319 904 340 925 q 296 855 299 883 q 293 756 293 826 l 293 528 l 397 528 l 571 801 q 669 918 622 879 l 585 915 l 585 972 l 883 972 l 883 926 z "},"Ķ":{"ha":949,"x_min":76,"x_max":942,"o":"m 883 926 q 776 906 819 921 q 690 851 732 890 q 603 739 649 813 l 467 522 q 519 480 497 503 q 559 434 542 457 q 582 404 576 411 l 738 197 q 823 97 789 129 q 882 56 857 65 q 942 46 907 46 l 942 0 l 772 0 q 632 136 736 0 l 465 361 q 408 432 432 404 q 361 474 383 460 l 293 472 l 293 165 q 289 56 293 92 l 389 61 l 389 0 l 76 0 l 76 46 q 146 68 125 47 q 169 117 167 89 q 172 217 172 146 l 172 817 q 176 917 172 875 l 76 911 l 76 972 l 389 972 l 389 926 q 319 904 340 925 q 296 855 299 883 q 293 756 293 826 l 293 528 l 397 528 l 571 801 q 669 918 622 879 l 585 915 l 585 972 l 883 972 l 883 926 m 564 -56 q 586 -144 586 -99 q 474 -360 586 -247 l 438 -333 q 485 -178 485 -246 q 468 -83 485 -132 l 564 -56 z "},"L":{"ha":803,"x_min":76,"x_max":774,"o":"m 389 926 q 319 904 340 925 q 296 855 299 883 q 293 756 293 826 l 293 160 q 289 51 293 88 l 549 56 q 682 112 638 57 q 726 288 726 167 l 774 288 l 765 0 l 76 0 l 76 46 q 146 68 125 47 q 169 117 167 89 q 172 217 172 146 l 172 817 q 176 917 172 875 l 76 911 l 76 972 l 389 972 l 389 926 z "},"Ĺ":{"ha":803,"x_min":76,"x_max":774,"o":"m 389 926 q 319 904 340 925 q 296 855 299 883 q 293 756 293 826 l 293 160 q 289 51 293 88 l 549 56 q 682 112 638 57 q 726 288 726 167 l 774 288 l 765 0 l 76 0 l 76 46 q 146 68 125 47 q 169 117 167 89 q 172 217 172 146 l 172 817 q 176 917 172 875 l 76 911 l 76 972 l 389 972 l 389 926 m 440 1269 q 449 1240 449 1258 q 404 1179 449 1207 l 203 1056 l 172 1096 l 347 1263 q 401 1288 376 1288 q 426 1281 415 1288 q 440 1269 436 1275 z "},"Ľ":{"ha":803,"x_min":76,"x_max":774,"o":"m 675 967 q 692 906 692 932 q 660 788 692 847 q 576 678 628 729 l 540 706 q 592 890 592 804 q 579 985 592 939 l 675 967 m 389 926 q 319 904 340 925 q 296 855 299 883 q 293 756 293 826 l 293 160 q 289 51 293 88 l 549 56 q 682 112 638 57 q 726 288 726 167 l 774 288 l 765 0 l 76 0 l 76 46 q 146 68 125 47 q 169 117 167 89 q 172 217 172 146 l 172 817 q 176 917 172 875 l 76 911 l 76 972 l 389 972 l 389 926 z "},"Ļ":{"ha":803,"x_min":76,"x_max":774,"o":"m 389 926 q 319 904 340 925 q 296 855 299 883 q 293 756 293 826 l 293 160 q 289 51 293 88 l 549 56 q 682 112 638 57 q 726 288 726 167 l 774 288 l 765 0 l 76 0 l 76 46 q 146 68 125 47 q 169 117 167 89 q 172 217 172 146 l 172 817 q 176 917 172 875 l 76 911 l 76 972 l 389 972 l 389 926 m 482 -56 q 504 -144 504 -99 q 392 -360 504 -247 l 356 -333 q 403 -178 403 -246 q 386 -83 403 -132 l 482 -56 z "},"Ł":{"ha":803,"x_min":67,"x_max":774,"o":"m 774 288 l 765 0 l 76 0 l 76 46 q 146 68 125 47 q 169 117 167 89 q 172 217 172 146 l 172 394 l 67 317 l 67 394 l 172 472 l 172 817 q 176 917 172 875 l 76 911 l 76 972 l 389 972 l 389 926 q 319 904 340 925 q 296 855 299 883 q 293 756 293 826 l 293 561 l 542 744 l 542 668 l 293 485 l 293 160 q 289 51 293 88 l 549 56 q 682 112 638 57 q 726 288 726 167 l 774 288 z "},"M":{"ha":1275,"x_min":61,"x_max":1228,"o":"m 1183 926 q 1110 899 1133 928 q 1086 803 1086 871 l 1088 775 l 1124 143 q 1126 57 1126 111 l 1228 61 l 1228 0 l 917 0 l 917 46 q 990 77 971 47 q 1010 171 1010 107 q 1008 211 1010 197 l 972 803 q 965 785 969 796 q 954 758 960 774 l 642 -14 l 600 -14 l 522 160 q 358 530 417 394 q 244 815 300 665 l 243 754 q 228 174 231 347 q 226 143 228 153 q 222 56 226 96 l 326 61 l 326 0 l 61 0 l 61 46 q 137 78 119 47 q 157 174 154 110 l 188 917 l 88 913 l 88 972 l 300 972 l 489 536 q 647 169 592 294 l 650 169 q 721 349 667 211 q 842 642 774 482 q 978 972 921 828 l 1183 972 l 1183 926 z "},"N":{"ha":1058,"x_min":79,"x_max":999,"o":"m 999 926 q 937 910 957 925 q 911 871 917 896 q 906 804 906 846 l 906 756 l 903 -22 l 836 -22 l 233 788 l 232 788 l 236 193 q 233 56 236 100 l 333 61 l 333 0 l 79 0 l 79 46 q 153 78 135 46 q 171 156 171 110 l 172 917 l 79 911 l 79 972 l 244 972 l 836 181 l 838 181 l 839 817 q 843 917 839 875 l 743 911 l 743 972 l 999 972 l 999 926 z "},"Ń":{"ha":1058,"x_min":79,"x_max":999,"o":"m 999 926 q 937 910 957 925 q 911 871 917 896 q 906 804 906 846 l 906 756 l 903 -22 l 836 -22 l 233 788 l 232 788 l 236 193 q 233 56 236 100 l 333 61 l 333 0 l 79 0 l 79 46 q 153 78 135 46 q 171 156 171 110 l 172 917 l 79 911 l 79 972 l 244 972 l 836 181 l 838 181 l 839 817 q 843 917 839 875 l 743 911 l 743 972 l 999 972 l 999 926 m 738 1269 q 746 1240 746 1258 q 701 1179 746 1207 l 500 1056 l 469 1096 l 644 1263 q 699 1288 674 1288 q 723 1281 713 1288 q 738 1269 733 1275 z "},"Ň":{"ha":1058,"x_min":79,"x_max":999,"o":"m 999 926 q 937 910 957 925 q 911 871 917 896 q 906 804 906 846 l 906 756 l 903 -22 l 836 -22 l 233 788 l 232 788 l 236 193 q 233 56 236 100 l 333 61 l 333 0 l 79 0 l 79 46 q 153 78 135 46 q 171 156 171 110 l 172 917 l 79 911 l 79 972 l 244 972 l 836 181 l 838 181 l 839 817 q 843 917 839 875 l 743 911 l 743 972 l 999 972 l 999 926 m 785 1329 l 813 1285 l 543 1083 l 540 1083 l 285 1279 l 315 1326 l 549 1204 l 785 1329 z "},"Ņ":{"ha":1058,"x_min":79,"x_max":999,"o":"m 999 926 q 937 910 957 925 q 911 871 917 896 q 906 804 906 846 l 906 756 l 903 -22 l 836 -22 l 233 788 l 232 788 l 236 193 q 233 56 236 100 l 333 61 l 333 0 l 79 0 l 79 46 q 153 78 135 46 q 171 156 171 110 l 172 917 l 79 911 l 79 972 l 244 972 l 836 181 l 838 181 l 839 817 q 843 917 839 875 l 743 911 l 743 972 l 999 972 l 999 926 m 568 -56 q 590 -144 590 -99 q 478 -360 590 -247 l 442 -333 q 489 -178 489 -246 q 472 -83 489 -132 l 568 -56 z "},"Ñ":{"ha":1058,"x_min":79,"x_max":999,"o":"m 999 926 q 937 910 957 925 q 911 871 917 896 q 906 804 906 846 l 906 756 l 903 -22 l 836 -22 l 233 788 l 232 788 l 236 193 q 233 56 236 100 l 333 61 l 333 0 l 79 0 l 79 46 q 153 78 135 46 q 171 156 171 110 l 172 917 l 79 911 l 79 972 l 244 972 l 836 181 l 838 181 l 839 817 q 843 917 839 875 l 743 911 l 743 972 l 999 972 l 999 926 m 442 1264 q 508 1250 481 1264 q 572 1208 536 1236 q 618 1177 599 1188 q 660 1167 638 1167 q 722 1191 694 1167 q 772 1257 749 1215 l 817 1235 q 745 1117 789 1154 q 651 1079 701 1079 q 581 1094 611 1079 q 513 1138 551 1110 q 467 1168 485 1158 q 431 1178 450 1178 q 380 1158 403 1178 q 328 1094 357 1138 l 281 1121 q 351 1224 306 1183 q 442 1264 397 1264 z "},"O":{"ha":1103,"x_min":64,"x_max":1042,"o":"m 547 994 q 819 919 707 994 q 986 726 931 843 q 1042 486 1042 610 q 987 247 1042 364 q 823 53 932 129 q 558 -22 714 -22 q 281 51 392 -22 q 117 241 169 125 q 64 486 64 357 q 119 726 64 610 q 283 919 174 843 q 547 994 392 994 m 543 939 q 357 877 435 939 q 240 717 279 815 q 200 511 200 618 q 240 291 200 401 q 363 108 281 181 q 561 35 444 35 q 747 97 669 35 q 863 256 824 158 q 903 460 903 353 q 860 688 903 578 q 735 869 817 799 q 543 939 653 939 z "},"Ó":{"ha":1103,"x_min":64,"x_max":1042,"o":"m 728 1269 q 736 1240 736 1258 q 692 1179 736 1207 l 490 1056 l 460 1096 l 635 1263 q 689 1288 664 1288 q 713 1281 703 1288 q 728 1269 724 1275 m 547 994 q 819 919 707 994 q 986 726 931 843 q 1042 486 1042 610 q 987 247 1042 364 q 823 53 932 129 q 558 -22 714 -22 q 281 51 392 -22 q 117 241 169 125 q 64 486 64 357 q 119 726 64 610 q 283 919 174 843 q 547 994 392 994 m 543 939 q 357 877 435 939 q 240 717 279 815 q 200 511 200 618 q 240 291 200 401 q 363 108 281 181 q 561 35 444 35 q 747 97 669 35 q 863 256 824 158 q 903 460 903 353 q 860 688 903 578 q 735 869 817 799 q 543 939 653 939 z "},"Ô":{"ha":1103,"x_min":64,"x_max":1042,"o":"m 547 994 q 819 919 707 994 q 986 726 931 843 q 1042 486 1042 610 q 987 247 1042 364 q 823 53 932 129 q 558 -22 714 -22 q 281 51 392 -22 q 117 241 169 125 q 64 486 64 357 q 119 726 64 610 q 283 919 174 843 q 547 994 392 994 m 543 939 q 357 877 435 939 q 240 717 279 815 q 200 511 200 618 q 240 291 200 401 q 363 108 281 181 q 561 35 444 35 q 747 97 669 35 q 863 256 824 158 q 903 460 903 353 q 860 688 903 578 q 735 869 817 799 q 543 939 653 939 m 549 1293 l 804 1097 l 774 1050 l 543 1172 l 540 1172 l 304 1051 l 276 1096 l 546 1293 l 549 1293 z "},"Ố":{"ha":1103,"x_min":64,"x_max":1042,"o":"m 918 1390 q 935 1351 935 1374 q 906 1292 935 1322 l 750 1144 l 711 1176 l 828 1364 q 885 1401 854 1401 q 918 1390 901 1401 m 547 1238 l 758 1076 l 733 1038 l 543 1138 l 540 1138 l 346 1039 l 322 1075 l 546 1238 l 547 1238 m 547 994 q 819 919 707 994 q 986 726 931 843 q 1042 486 1042 610 q 987 247 1042 364 q 823 53 932 129 q 558 -22 714 -22 q 281 51 392 -22 q 117 241 169 125 q 64 486 64 357 q 119 726 64 610 q 283 919 174 843 q 547 994 392 994 m 543 939 q 357 877 435 939 q 240 717 279 815 q 200 511 200 618 q 240 291 200 401 q 363 108 281 181 q 561 35 444 35 q 747 97 669 35 q 863 256 824 158 q 903 460 903 353 q 860 688 903 578 q 735 869 817 799 q 543 939 653 939 z "},"Ộ":{"ha":1103,"x_min":64,"x_max":1042,"o":"m 547 994 q 819 919 707 994 q 986 726 931 843 q 1042 486 1042 610 q 987 247 1042 364 q 823 53 932 129 q 558 -22 714 -22 q 281 51 392 -22 q 117 241 169 125 q 64 486 64 357 q 119 726 64 610 q 283 919 174 843 q 547 994 392 994 m 543 939 q 357 877 435 939 q 240 717 279 815 q 200 511 200 618 q 240 291 200 401 q 363 108 281 181 q 561 35 444 35 q 747 97 669 35 q 863 256 824 158 q 903 460 903 353 q 860 688 903 578 q 735 869 817 799 q 543 939 653 939 m 553 -108 q 600 -130 581 -108 q 619 -182 619 -151 q 599 -234 619 -212 q 551 -256 578 -256 q 504 -234 524 -256 q 485 -182 485 -212 q 505 -130 485 -151 q 553 -108 525 -108 m 549 1293 l 804 1097 l 774 1050 l 543 1172 l 540 1172 l 304 1051 l 276 1096 l 546 1293 l 549 1293 z "},"Ồ":{"ha":1103,"x_min":64,"x_max":1042,"o":"m 551 1433 q 585 1444 568 1444 q 642 1407 615 1444 l 758 1219 l 719 1188 l 564 1335 q 535 1394 535 1365 q 551 1433 535 1417 m 547 1238 l 758 1076 l 733 1038 l 543 1138 l 540 1138 l 346 1039 l 322 1075 l 546 1238 l 547 1238 m 547 994 q 819 919 707 994 q 986 726 931 843 q 1042 486 1042 610 q 987 247 1042 364 q 823 53 932 129 q 558 -22 714 -22 q 281 51 392 -22 q 117 241 169 125 q 64 486 64 357 q 119 726 64 610 q 283 919 174 843 q 547 994 392 994 m 543 939 q 357 877 435 939 q 240 717 279 815 q 200 511 200 618 q 240 291 200 401 q 363 108 281 181 q 561 35 444 35 q 747 97 669 35 q 863 256 824 158 q 903 460 903 353 q 860 688 903 578 q 735 869 817 799 q 543 939 653 939 z "},"Ổ":{"ha":1103,"x_min":64,"x_max":1042,"o":"m 703 1429 q 815 1397 774 1429 q 856 1301 856 1364 q 838 1253 856 1271 q 786 1215 819 1235 q 755 1195 764 1203 q 746 1176 746 1188 l 699 1176 q 706 1201 699 1192 q 731 1221 714 1210 q 765 1251 753 1235 q 776 1301 776 1268 q 704 1379 776 1379 q 661 1366 681 1379 q 639 1338 642 1353 q 647 1315 647 1326 q 634 1293 647 1301 q 604 1285 621 1285 q 558 1332 558 1285 q 597 1400 558 1371 q 703 1429 636 1429 m 547 1238 l 758 1076 l 733 1038 l 543 1138 l 540 1138 l 346 1039 l 322 1075 l 546 1238 l 547 1238 m 547 994 q 819 919 707 994 q 986 726 931 843 q 1042 486 1042 610 q 987 247 1042 364 q 823 53 932 129 q 558 -22 714 -22 q 281 51 392 -22 q 117 241 169 125 q 64 486 64 357 q 119 726 64 610 q 283 919 174 843 q 547 994 392 994 m 543 939 q 357 877 435 939 q 240 717 279 815 q 200 511 200 618 q 240 291 200 401 q 363 108 281 181 q 561 35 444 35 q 747 97 669 35 q 863 256 824 158 q 903 460 903 353 q 860 688 903 578 q 735 869 817 799 q 543 939 653 939 z "},"Ỗ":{"ha":1103,"x_min":64,"x_max":1042,"o":"m 479 1415 q 533 1404 510 1415 q 585 1374 556 1393 q 624 1349 607 1357 q 658 1342 640 1342 q 716 1360 689 1342 q 760 1408 743 1378 l 800 1388 q 739 1290 779 1324 q 658 1256 699 1256 q 601 1267 626 1256 q 543 1300 576 1278 q 506 1323 521 1315 q 476 1331 492 1331 q 421 1316 449 1331 q 375 1272 393 1301 l 333 1296 q 395 1381 351 1346 q 479 1415 439 1415 m 547 1238 l 758 1076 l 733 1038 l 543 1138 l 540 1138 l 346 1039 l 322 1075 l 546 1238 l 547 1238 m 547 994 q 819 919 707 994 q 986 726 931 843 q 1042 486 1042 610 q 987 247 1042 364 q 823 53 932 129 q 558 -22 714 -22 q 281 51 392 -22 q 117 241 169 125 q 64 486 64 357 q 119 726 64 610 q 283 919 174 843 q 547 994 392 994 m 543 939 q 357 877 435 939 q 240 717 279 815 q 200 511 200 618 q 240 291 200 401 q 363 108 281 181 q 561 35 444 35 q 747 97 669 35 q 863 256 824 158 q 903 460 903 353 q 860 688 903 578 q 735 869 817 799 q 543 939 653 939 z "},"Ö":{"ha":1103,"x_min":64,"x_max":1042,"o":"m 428 1251 q 481 1226 460 1251 q 503 1163 503 1200 q 480 1101 503 1126 q 426 1075 457 1075 q 375 1101 397 1075 q 353 1163 353 1126 q 376 1225 353 1199 q 428 1251 399 1251 m 678 1251 q 731 1226 710 1251 q 753 1163 753 1200 q 730 1101 753 1126 q 676 1075 707 1075 q 625 1101 647 1075 q 603 1163 603 1126 q 626 1225 603 1199 q 678 1251 649 1251 m 547 994 q 819 919 707 994 q 986 726 931 843 q 1042 486 1042 610 q 987 247 1042 364 q 823 53 932 129 q 558 -22 714 -22 q 281 51 392 -22 q 117 241 169 125 q 64 486 64 357 q 119 726 64 610 q 283 919 174 843 q 547 994 392 994 m 543 939 q 357 877 435 939 q 240 717 279 815 q 200 511 200 618 q 240 291 200 401 q 363 108 281 181 q 561 35 444 35 q 747 97 669 35 q 863 256 824 158 q 903 460 903 353 q 860 688 903 578 q 735 869 817 799 q 543 939 653 939 z "},"Ọ":{"ha":1103,"x_min":64,"x_max":1042,"o":"m 547 994 q 819 919 707 994 q 986 726 931 843 q 1042 486 1042 610 q 987 247 1042 364 q 823 53 932 129 q 558 -22 714 -22 q 281 51 392 -22 q 117 241 169 125 q 64 486 64 357 q 119 726 64 610 q 283 919 174 843 q 547 994 392 994 m 543 939 q 357 877 435 939 q 240 717 279 815 q 200 511 200 618 q 240 291 200 401 q 363 108 281 181 q 561 35 444 35 q 747 97 669 35 q 863 256 824 158 q 903 460 903 353 q 860 688 903 578 q 735 869 817 799 q 543 939 653 939 m 553 -108 q 600 -130 581 -108 q 619 -182 619 -151 q 599 -234 619 -212 q 551 -256 578 -256 q 504 -234 524 -256 q 485 -182 485 -212 q 505 -130 485 -151 q 553 -108 525 -108 z "},"Ò":{"ha":1103,"x_min":64,"x_max":1042,"o":"m 547 994 q 819 919 707 994 q 986 726 931 843 q 1042 486 1042 610 q 987 247 1042 364 q 823 53 932 129 q 558 -22 714 -22 q 281 51 392 -22 q 117 241 169 125 q 64 486 64 357 q 119 726 64 610 q 283 919 174 843 q 547 994 392 994 m 543 939 q 357 877 435 939 q 240 717 279 815 q 200 511 200 618 q 240 291 200 401 q 363 108 281 181 q 561 35 444 35 q 747 97 669 35 q 863 256 824 158 q 903 460 903 353 q 860 688 903 578 q 735 869 817 799 q 543 939 653 939 m 353 1269 q 367 1281 357 1275 q 392 1288 378 1288 q 446 1263 417 1288 l 621 1096 l 590 1056 l 389 1179 q 344 1240 344 1207 q 353 1269 344 1258 z "},"Ỏ":{"ha":1103,"x_min":64,"x_max":1042,"o":"m 547 994 q 819 919 707 994 q 986 726 931 843 q 1042 486 1042 610 q 987 247 1042 364 q 823 53 932 129 q 558 -22 714 -22 q 281 51 392 -22 q 117 241 169 125 q 64 486 64 357 q 119 726 64 610 q 283 919 174 843 q 547 994 392 994 m 543 939 q 357 877 435 939 q 240 717 279 815 q 200 511 200 618 q 240 291 200 401 q 363 108 281 181 q 561 35 444 35 q 747 97 669 35 q 863 256 824 158 q 903 460 903 353 q 860 688 903 578 q 735 869 817 799 q 543 939 653 939 m 522 1317 q 634 1284 593 1317 q 675 1189 675 1251 q 657 1140 675 1158 q 606 1103 639 1122 q 574 1083 583 1090 q 565 1064 565 1075 l 518 1064 q 526 1088 518 1079 q 550 1108 533 1097 q 584 1139 572 1122 q 596 1189 596 1156 q 524 1267 596 1267 q 481 1253 500 1267 q 458 1225 461 1240 q 467 1203 467 1214 q 453 1181 467 1189 q 424 1172 440 1172 q 378 1219 378 1172 q 417 1288 378 1258 q 522 1317 456 1317 z "},"Ơ":{"ha":1103,"x_min":64,"x_max":1042,"o":"m 814 922 q 983 733 924 853 q 1042 486 1042 613 q 987 247 1042 364 q 823 53 932 129 q 558 -22 714 -22 q 281 51 392 -22 q 117 241 169 125 q 64 486 64 357 q 119 726 64 610 q 283 919 174 843 q 547 994 392 994 q 715 968 636 994 q 788 1007 760 974 q 815 1079 815 1040 l 921 1079 q 892 990 921 1032 q 814 922 864 947 m 561 35 q 747 97 669 35 q 863 256 824 158 q 903 460 903 353 q 860 688 903 578 q 735 869 817 799 q 543 939 653 939 q 357 877 435 939 q 240 717 279 815 q 200 511 200 618 q 240 291 200 401 q 363 108 281 181 q 561 35 444 35 z "},"Ớ":{"ha":1103,"x_min":64,"x_max":1042,"o":"m 814 922 q 983 733 924 853 q 1042 486 1042 613 q 987 247 1042 364 q 823 53 932 129 q 558 -22 714 -22 q 281 51 392 -22 q 117 241 169 125 q 64 486 64 357 q 119 726 64 610 q 283 919 174 843 q 547 994 392 994 q 715 968 636 994 q 788 1007 760 974 q 815 1079 815 1040 l 921 1079 q 892 990 921 1032 q 814 922 864 947 m 561 35 q 747 97 669 35 q 863 256 824 158 q 903 460 903 353 q 860 688 903 578 q 735 869 817 799 q 543 939 653 939 q 357 877 435 939 q 240 717 279 815 q 200 511 200 618 q 240 291 200 401 q 363 108 281 181 q 561 35 444 35 m 635 1329 q 651 1290 651 1313 q 622 1231 651 1261 l 467 1083 l 428 1115 l 544 1303 q 601 1340 571 1340 q 635 1329 618 1340 z "},"Ợ":{"ha":1103,"x_min":64,"x_max":1042,"o":"m 814 922 q 983 733 924 853 q 1042 486 1042 613 q 987 247 1042 364 q 823 53 932 129 q 558 -22 714 -22 q 281 51 392 -22 q 117 241 169 125 q 64 486 64 357 q 119 726 64 610 q 283 919 174 843 q 547 994 392 994 q 715 968 636 994 q 788 1007 760 974 q 815 1079 815 1040 l 921 1079 q 892 990 921 1032 q 814 922 864 947 m 561 35 q 747 97 669 35 q 863 256 824 158 q 903 460 903 353 q 860 688 903 578 q 735 869 817 799 q 543 939 653 939 q 357 877 435 939 q 240 717 279 815 q 200 511 200 618 q 240 291 200 401 q 363 108 281 181 q 561 35 444 35 m 553 -108 q 600 -130 581 -108 q 619 -182 619 -151 q 599 -234 619 -212 q 551 -256 578 -256 q 504 -234 524 -256 q 485 -182 485 -212 q 505 -130 485 -151 q 553 -108 525 -108 z "},"Ờ":{"ha":1103,"x_min":64,"x_max":1042,"o":"m 814 922 q 983 733 924 853 q 1042 486 1042 613 q 987 247 1042 364 q 823 53 932 129 q 558 -22 714 -22 q 281 51 392 -22 q 117 241 169 125 q 64 486 64 357 q 119 726 64 610 q 283 919 174 843 q 547 994 392 994 q 715 968 636 994 q 788 1007 760 974 q 815 1079 815 1040 l 921 1079 q 892 990 921 1032 q 814 922 864 947 m 561 35 q 747 97 669 35 q 863 256 824 158 q 903 460 903 353 q 860 688 903 578 q 735 869 817 799 q 543 939 653 939 q 357 877 435 939 q 240 717 279 815 q 200 511 200 618 q 240 291 200 401 q 363 108 281 181 q 561 35 444 35 m 446 1329 q 479 1340 463 1340 q 536 1303 510 1340 l 653 1115 l 614 1083 l 458 1231 q 429 1290 429 1261 q 446 1329 429 1313 z "},"Ở":{"ha":1103,"x_min":64,"x_max":1042,"o":"m 814 922 q 983 733 924 853 q 1042 486 1042 613 q 987 247 1042 364 q 823 53 932 129 q 558 -22 714 -22 q 281 51 392 -22 q 117 241 169 125 q 64 486 64 357 q 119 726 64 610 q 283 919 174 843 q 547 994 392 994 q 715 968 636 994 q 788 1007 760 974 q 815 1079 815 1040 l 921 1079 q 892 990 921 1032 q 814 922 864 947 m 561 35 q 747 97 669 35 q 863 256 824 158 q 903 460 903 353 q 860 688 903 578 q 735 869 817 799 q 543 939 653 939 q 357 877 435 939 q 240 717 279 815 q 200 511 200 618 q 240 291 200 401 q 363 108 281 181 q 561 35 444 35 m 522 1317 q 634 1284 593 1317 q 675 1189 675 1251 q 657 1140 675 1158 q 606 1103 639 1122 q 574 1083 583 1090 q 565 1064 565 1075 l 518 1064 q 526 1088 518 1079 q 550 1108 533 1097 q 584 1139 572 1122 q 596 1189 596 1156 q 524 1267 596 1267 q 481 1253 500 1267 q 458 1225 461 1240 q 467 1203 467 1214 q 453 1181 467 1189 q 424 1172 440 1172 q 378 1219 378 1172 q 417 1288 378 1258 q 522 1317 456 1317 z "},"Ỡ":{"ha":1103,"x_min":64,"x_max":1042,"o":"m 814 922 q 983 733 924 853 q 1042 486 1042 613 q 987 247 1042 364 q 823 53 932 129 q 558 -22 714 -22 q 281 51 392 -22 q 117 241 169 125 q 64 486 64 357 q 119 726 64 610 q 283 919 174 843 q 547 994 392 994 q 715 968 636 994 q 788 1007 760 974 q 815 1079 815 1040 l 921 1079 q 892 990 921 1032 q 814 922 864 947 m 561 35 q 747 97 669 35 q 863 256 824 158 q 903 460 903 353 q 860 688 903 578 q 735 869 817 799 q 543 939 653 939 q 357 877 435 939 q 240 717 279 815 q 200 511 200 618 q 240 291 200 401 q 363 108 281 181 q 561 35 444 35 m 453 1288 q 506 1276 483 1288 q 558 1246 529 1265 q 597 1222 581 1229 q 632 1214 614 1214 q 690 1232 663 1214 q 733 1281 717 1250 l 774 1260 q 713 1162 753 1196 q 632 1128 672 1128 q 575 1139 600 1128 q 517 1172 550 1150 q 480 1195 494 1188 q 450 1203 465 1203 q 394 1188 422 1203 q 349 1144 367 1174 l 307 1168 q 369 1253 325 1218 q 453 1288 413 1288 z "},"Ő":{"ha":1103,"x_min":64,"x_max":1042,"o":"m 547 994 q 819 919 707 994 q 986 726 931 843 q 1042 486 1042 610 q 987 247 1042 364 q 823 53 932 129 q 558 -22 714 -22 q 281 51 392 -22 q 117 241 169 125 q 64 486 64 357 q 119 726 64 610 q 283 919 174 843 q 547 994 392 994 m 543 939 q 357 877 435 939 q 240 717 279 815 q 200 511 200 618 q 240 291 200 401 q 363 108 281 181 q 561 35 444 35 q 747 97 669 35 q 863 256 824 158 q 903 460 903 353 q 860 688 903 578 q 735 869 817 799 q 543 939 653 939 m 600 1271 q 617 1233 617 1254 q 593 1188 617 1207 l 465 1072 l 429 1099 l 514 1247 q 568 1285 536 1285 q 600 1271 586 1285 m 750 1250 q 789 1267 767 1267 q 832 1240 815 1267 q 839 1213 839 1226 q 830 1181 839 1196 q 807 1161 821 1167 l 617 1072 l 597 1108 l 750 1250 z "},"Ō":{"ha":1103,"x_min":64,"x_max":1042,"o":"m 547 994 q 819 919 707 994 q 986 726 931 843 q 1042 486 1042 610 q 987 247 1042 364 q 823 53 932 129 q 558 -22 714 -22 q 281 51 392 -22 q 117 241 169 125 q 64 486 64 357 q 119 726 64 610 q 283 919 174 843 q 547 994 392 994 m 543 939 q 357 877 435 939 q 240 717 279 815 q 200 511 200 618 q 240 291 200 401 q 363 108 281 181 q 561 35 444 35 q 747 97 669 35 q 863 256 824 158 q 903 460 903 353 q 860 688 903 578 q 735 869 817 799 q 543 939 653 939 m 724 1250 l 724 1172 l 356 1167 l 356 1250 l 724 1250 z "},"Ø":{"ha":1103,"x_min":63,"x_max":1040,"o":"m 858 889 q 994 707 947 815 q 1040 486 1040 599 q 985 247 1040 364 q 822 53 931 129 q 557 -22 713 -22 q 344 18 436 -22 l 268 -111 l 201 -69 l 274 56 q 115 240 168 124 q 63 486 63 357 q 117 726 63 610 q 281 919 172 843 q 546 994 390 994 q 785 939 678 994 l 849 1049 l 924 1001 l 858 889 m 199 511 q 231 313 199 413 q 325 143 264 214 l 740 863 q 542 939 656 939 q 356 877 433 939 q 238 717 278 815 q 199 511 199 618 m 560 35 q 745 97 668 35 q 862 256 822 158 q 901 460 901 353 q 876 638 901 550 q 801 794 850 725 l 386 89 q 560 35 463 35 z "},"Õ":{"ha":1103,"x_min":64,"x_max":1042,"o":"m 547 994 q 819 919 707 994 q 986 726 931 843 q 1042 486 1042 610 q 987 247 1042 364 q 823 53 932 129 q 558 -22 714 -22 q 281 51 392 -22 q 117 241 169 125 q 64 486 64 357 q 119 726 64 610 q 283 919 174 843 q 547 994 392 994 m 543 939 q 357 877 435 939 q 240 717 279 815 q 200 511 200 618 q 240 291 200 401 q 363 108 281 181 q 561 35 444 35 q 747 97 669 35 q 863 256 824 158 q 903 460 903 353 q 860 688 903 578 q 735 869 817 799 q 543 939 653 939 m 433 1264 q 500 1250 472 1264 q 564 1208 528 1236 q 610 1177 590 1188 q 651 1167 629 1167 q 713 1191 686 1167 q 764 1257 740 1215 l 808 1235 q 737 1117 781 1154 q 643 1079 693 1079 q 573 1094 603 1079 q 504 1138 543 1110 q 459 1168 476 1158 q 422 1178 442 1178 q 372 1158 394 1178 q 319 1094 349 1138 l 272 1121 q 343 1224 297 1183 q 433 1264 389 1264 z "},"Œ":{"ha":1419,"x_min":64,"x_max":1357,"o":"m 551 994 q 728 972 629 994 l 1300 972 l 1307 729 l 1261 729 q 1212 885 1261 843 q 1074 924 1163 926 l 954 921 q 882 902 904 919 q 854 853 860 885 q 849 756 849 822 l 849 532 l 1113 532 l 1101 651 l 1164 651 l 1164 360 l 1118 360 q 1106 438 1118 411 q 1067 474 1093 465 q 996 483 1042 483 l 953 482 l 849 476 l 849 168 q 844 60 849 96 l 1111 51 q 1310 271 1310 44 l 1357 271 l 1349 0 l 728 0 q 535 -22 621 -22 q 285 40 392 -22 q 121 210 178 101 q 64 457 64 318 q 117 715 64 594 q 281 913 171 836 q 551 994 392 990 m 556 936 q 376 881 457 936 q 247 724 294 826 q 200 485 200 622 q 247 253 200 353 q 380 99 294 154 q 575 44 465 44 q 728 67 647 44 l 728 904 q 556 936 657 936 z "},"P":{"ha":842,"x_min":76,"x_max":806,"o":"m 386 975 q 699 903 593 975 q 806 690 806 831 q 763 536 806 610 q 617 414 721 463 q 343 365 514 365 q 293 367 311 365 l 293 165 q 289 56 293 92 l 417 63 l 417 0 l 76 0 l 76 46 q 146 68 125 47 q 169 117 167 89 q 172 217 172 146 l 172 817 q 176 917 172 875 l 76 911 l 76 972 q 386 975 271 975 m 383 921 q 317 901 336 921 q 296 855 299 882 q 293 756 293 828 l 293 424 q 383 419 328 419 q 528 451 463 419 q 633 541 594 482 q 671 679 671 600 q 594 863 671 804 q 383 921 518 921 z "},"Þ":{"ha":828,"x_min":76,"x_max":792,"o":"m 293 165 q 289 56 293 92 l 389 61 l 389 0 l 76 0 l 76 46 q 146 68 125 47 q 169 117 167 89 q 172 217 172 146 l 172 817 q 176 917 172 875 l 76 911 l 76 972 l 389 972 l 389 926 q 311 895 329 925 q 293 803 293 865 l 368 804 q 792 525 792 804 q 749 379 792 447 q 603 267 706 311 q 329 224 500 224 l 293 224 l 293 165 m 376 751 q 293 749 346 751 l 293 282 q 383 278 331 275 q 588 348 518 281 q 657 524 657 415 q 585 693 657 635 q 376 751 514 751 z "},"Q":{"ha":1106,"x_min":64,"x_max":1092,"o":"m 869 -99 q 983 -202 951 -175 q 1040 -243 1014 -229 q 1092 -257 1065 -257 l 1092 -303 l 1047 -303 q 954 -299 986 -303 q 888 -279 922 -296 q 813 -225 854 -262 q 718 -132 774 -190 q 624 -47 658 -72 q 549 -22 590 -22 q 276 55 385 -19 q 115 244 167 129 q 64 486 64 358 q 119 726 64 610 q 283 919 174 843 q 547 994 392 994 q 819 919 707 994 q 986 726 931 843 q 1042 486 1042 610 q 1000 276 1042 381 q 874 94 958 171 q 671 -10 790 17 q 770 -28 728 -11 q 869 -99 813 -44 m 200 511 q 240 291 200 401 q 363 108 281 181 q 561 35 444 35 q 747 97 669 35 q 863 256 824 158 q 903 460 903 353 q 860 688 903 578 q 735 869 817 799 q 543 939 653 939 q 357 877 435 939 q 240 717 279 815 q 200 511 200 618 z "},"R":{"ha":872,"x_min":76,"x_max":872,"o":"m 394 974 q 681 908 590 971 q 772 725 772 844 q 715 553 774 629 q 513 447 657 476 q 556 404 536 429 q 608 326 575 379 l 703 178 q 753 103 733 129 q 802 62 774 78 q 872 46 831 46 l 872 0 l 697 0 q 634 66 660 32 q 574 154 608 100 l 481 303 l 463 332 q 424 393 440 369 q 388 435 407 417 q 349 433 375 433 q 293 435 311 433 l 293 165 q 289 56 293 92 l 389 61 l 389 0 l 76 0 l 76 46 q 146 68 125 47 q 169 117 167 89 q 172 217 172 146 l 172 817 q 176 917 172 875 l 76 911 l 76 972 q 294 975 221 975 q 394 974 361 975 m 389 921 q 319 901 340 921 q 296 854 299 882 q 293 756 293 826 l 293 489 q 354 486 335 486 q 638 710 638 486 q 576 868 638 815 q 389 921 515 921 z "},"Ŕ":{"ha":872,"x_min":76,"x_max":872,"o":"m 394 974 q 681 908 590 971 q 772 725 772 844 q 715 553 774 629 q 513 447 657 476 q 556 404 536 429 q 608 326 575 379 l 703 178 q 753 103 733 129 q 802 62 774 78 q 872 46 831 46 l 872 0 l 697 0 q 634 66 660 32 q 574 154 608 100 l 481 303 l 463 332 q 424 393 440 369 q 388 435 407 417 q 349 433 375 433 q 293 435 311 433 l 293 165 q 289 56 293 92 l 389 61 l 389 0 l 76 0 l 76 46 q 146 68 125 47 q 169 117 167 89 q 172 217 172 146 l 172 817 q 176 917 172 875 l 76 911 l 76 972 q 294 975 221 975 q 394 974 361 975 m 389 921 q 319 901 340 921 q 296 854 299 882 q 293 756 293 826 l 293 489 q 354 486 335 486 q 638 710 638 486 q 576 868 638 815 q 389 921 515 921 m 625 1269 q 633 1240 633 1258 q 589 1179 633 1207 l 388 1056 l 357 1096 l 532 1263 q 586 1288 561 1288 q 610 1281 600 1288 q 625 1269 621 1275 z "},"Ř":{"ha":872,"x_min":76,"x_max":872,"o":"m 394 974 q 681 908 590 971 q 772 725 772 844 q 715 553 774 629 q 513 447 657 476 q 556 404 536 429 q 608 326 575 379 l 703 178 q 753 103 733 129 q 802 62 774 78 q 872 46 831 46 l 872 0 l 697 0 q 634 66 660 32 q 574 154 608 100 l 481 303 l 463 332 q 424 393 440 369 q 388 435 407 417 q 349 433 375 433 q 293 435 311 433 l 293 165 q 289 56 293 92 l 389 61 l 389 0 l 76 0 l 76 46 q 146 68 125 47 q 169 117 167 89 q 172 217 172 146 l 172 817 q 176 917 172 875 l 76 911 l 76 972 q 294 975 221 975 q 394 974 361 975 m 389 921 q 319 901 340 921 q 296 854 299 882 q 293 756 293 826 l 293 489 q 354 486 335 486 q 638 710 638 486 q 576 868 638 815 q 389 921 515 921 m 672 1329 l 700 1285 l 431 1083 l 428 1083 l 172 1279 l 203 1326 l 436 1204 l 672 1329 z "},"Ŗ":{"ha":872,"x_min":76,"x_max":872,"o":"m 394 974 q 681 908 590 971 q 772 725 772 844 q 715 553 774 629 q 513 447 657 476 q 556 404 536 429 q 608 326 575 379 l 703 178 q 753 103 733 129 q 802 62 774 78 q 872 46 831 46 l 872 0 l 697 0 q 634 66 660 32 q 574 154 608 100 l 481 303 l 463 332 q 424 393 440 369 q 388 435 407 417 q 349 433 375 433 q 293 435 311 433 l 293 165 q 289 56 293 92 l 389 61 l 389 0 l 76 0 l 76 46 q 146 68 125 47 q 169 117 167 89 q 172 217 172 146 l 172 817 q 176 917 172 875 l 76 911 l 76 972 q 294 975 221 975 q 394 974 361 975 m 389 921 q 319 901 340 921 q 296 854 299 882 q 293 756 293 826 l 293 489 q 354 486 335 486 q 638 710 638 486 q 576 868 638 815 q 389 921 515 921 m 503 -56 q 525 -144 525 -99 q 413 -360 525 -247 l 376 -333 q 424 -178 424 -246 q 407 -83 424 -132 l 503 -56 z "},"S":{"ha":788,"x_min":81,"x_max":726,"o":"m 365 994 q 491 978 428 994 q 607 924 554 963 l 601 983 l 672 983 l 672 678 l 622 678 q 552 863 615 788 q 375 939 489 939 q 244 892 292 939 q 197 776 197 846 q 229 681 197 721 q 307 614 261 640 q 436 549 353 588 q 588 471 531 506 q 686 380 646 436 q 726 242 726 324 q 688 104 726 164 q 576 11 650 44 q 401 -22 503 -22 q 270 -4 336 -22 q 154 49 204 14 l 161 -11 l 89 -11 l 81 285 l 135 285 q 217 101 142 165 q 407 36 292 36 q 549 83 492 36 q 607 210 607 129 q 574 312 607 269 q 494 383 542 354 q 364 449 446 411 q 216 526 271 493 q 122 615 161 560 q 83 750 83 669 q 109 861 83 806 q 198 956 135 917 q 365 994 261 994 z "},"Ś":{"ha":788,"x_min":81,"x_max":726,"o":"m 365 994 q 491 978 428 994 q 607 924 554 963 l 601 983 l 672 983 l 672 678 l 622 678 q 552 863 615 788 q 375 939 489 939 q 244 892 292 939 q 197 776 197 846 q 229 681 197 721 q 307 614 261 640 q 436 549 353 588 q 588 471 531 506 q 686 380 646 436 q 726 242 726 324 q 688 104 726 164 q 576 11 650 44 q 401 -22 503 -22 q 270 -4 336 -22 q 154 49 204 14 l 161 -11 l 89 -11 l 81 285 l 135 285 q 217 101 142 165 q 407 36 292 36 q 549 83 492 36 q 607 210 607 129 q 574 312 607 269 q 494 383 542 354 q 364 449 446 411 q 216 526 271 493 q 122 615 161 560 q 83 750 83 669 q 109 861 83 806 q 198 956 135 917 q 365 994 261 994 m 567 1269 q 575 1240 575 1258 q 531 1179 575 1207 l 329 1056 l 299 1096 l 474 1263 q 528 1288 503 1288 q 552 1281 542 1288 q 567 1269 563 1275 z "},"Š":{"ha":788,"x_min":81,"x_max":726,"o":"m 365 994 q 491 978 428 994 q 607 924 554 963 l 601 983 l 672 983 l 672 678 l 622 678 q 552 863 615 788 q 375 939 489 939 q 244 892 292 939 q 197 776 197 846 q 229 681 197 721 q 307 614 261 640 q 436 549 353 588 q 588 471 531 506 q 686 380 646 436 q 726 242 726 324 q 688 104 726 164 q 576 11 650 44 q 401 -22 503 -22 q 270 -4 336 -22 q 154 49 204 14 l 161 -11 l 89 -11 l 81 285 l 135 285 q 217 101 142 165 q 407 36 292 36 q 549 83 492 36 q 607 210 607 129 q 574 312 607 269 q 494 383 542 354 q 364 449 446 411 q 216 526 271 493 q 122 615 161 560 q 83 750 83 669 q 109 861 83 806 q 198 956 135 917 q 365 994 261 994 m 614 1329 l 642 1285 l 372 1083 l 369 1083 l 114 1279 l 144 1326 l 378 1204 l 614 1329 z "},"Ş":{"ha":788,"x_min":81,"x_max":726,"o":"m 726 242 q 688 104 726 164 q 576 11 650 44 q 401 -22 503 -22 l 375 -103 q 469 -79 415 -79 q 538 -104 513 -79 q 563 -171 563 -129 q 479 -282 563 -244 q 290 -335 396 -319 l 282 -289 q 403 -248 358 -275 q 449 -182 449 -221 q 404 -140 449 -140 q 342 -161 372 -140 l 294 -139 l 328 -17 q 154 49 226 -1 l 161 -11 l 89 -11 l 81 285 l 135 285 q 217 101 142 165 q 407 36 292 36 q 549 83 492 36 q 607 210 607 129 q 574 312 607 269 q 494 383 542 354 q 364 449 446 411 q 216 526 271 493 q 122 615 161 560 q 83 750 83 669 q 109 861 83 806 q 198 956 135 917 q 365 994 261 994 q 491 978 428 994 q 607 924 554 963 l 601 983 l 672 983 l 672 678 l 622 678 q 552 863 615 788 q 375 939 489 939 q 244 892 292 939 q 197 776 197 846 q 229 681 197 721 q 307 614 261 640 q 436 549 353 588 q 588 471 531 506 q 686 380 646 436 q 726 242 726 324 z "},"Ŝ":{"ha":788,"x_min":81,"x_max":726,"o":"m 365 994 q 491 978 428 994 q 607 924 554 963 l 601 983 l 672 983 l 672 678 l 622 678 q 552 863 615 788 q 375 939 489 939 q 244 892 292 939 q 197 776 197 846 q 229 681 197 721 q 307 614 261 640 q 436 549 353 588 q 588 471 531 506 q 686 380 646 436 q 726 242 726 324 q 688 104 726 164 q 576 11 650 44 q 401 -22 503 -22 q 270 -4 336 -22 q 154 49 204 14 l 161 -11 l 89 -11 l 81 285 l 135 285 q 217 101 142 165 q 407 36 292 36 q 549 83 492 36 q 607 210 607 129 q 574 312 607 269 q 494 383 542 354 q 364 449 446 411 q 216 526 271 493 q 122 615 161 560 q 83 750 83 669 q 109 861 83 806 q 198 956 135 917 q 365 994 261 994 m 386 1293 l 642 1097 l 611 1050 l 381 1172 l 378 1172 l 142 1051 l 114 1096 l 383 1293 l 386 1293 z "},"Ș":{"ha":788,"x_min":81,"x_max":726,"o":"m 365 994 q 491 978 428 994 q 607 924 554 963 l 601 983 l 672 983 l 672 678 l 622 678 q 552 863 615 788 q 375 939 489 939 q 244 892 292 939 q 197 776 197 846 q 229 681 197 721 q 307 614 261 640 q 436 549 353 588 q 588 471 531 506 q 686 380 646 436 q 726 242 726 324 q 688 104 726 164 q 576 11 650 44 q 401 -22 503 -22 q 270 -4 336 -22 q 154 49 204 14 l 161 -11 l 89 -11 l 81 285 l 135 285 q 217 101 142 165 q 407 36 292 36 q 549 83 492 36 q 607 210 607 129 q 574 312 607 269 q 494 383 542 354 q 364 449 446 411 q 216 526 271 493 q 122 615 161 560 q 83 750 83 669 q 109 861 83 806 q 198 956 135 917 q 365 994 261 994 m 461 -56 q 483 -144 483 -99 q 371 -360 483 -247 l 335 -333 q 382 -178 382 -246 q 365 -83 382 -132 l 461 -56 z "},"T":{"ha":889,"x_min":31,"x_max":857,"o":"m 857 679 l 804 679 q 787 819 803 767 q 733 897 771 871 q 624 922 694 922 l 506 922 l 504 165 q 500 56 504 92 l 615 61 l 615 0 l 289 0 l 289 46 q 366 79 349 49 q 383 174 383 110 l 383 217 l 385 921 l 242 919 q 119 862 156 919 q 82 679 82 804 l 31 679 l 39 972 l 849 972 l 857 679 z "},"Ť":{"ha":889,"x_min":31,"x_max":857,"o":"m 857 679 l 804 679 q 787 819 803 767 q 733 897 771 871 q 624 922 694 922 l 506 922 l 504 165 q 500 56 504 92 l 615 61 l 615 0 l 289 0 l 289 46 q 366 79 349 49 q 383 174 383 110 l 383 217 l 385 921 l 242 919 q 119 862 156 919 q 82 679 82 804 l 31 679 l 39 972 l 849 972 l 857 679 m 681 1329 l 708 1285 l 439 1083 l 436 1083 l 181 1279 l 211 1326 l 444 1204 l 681 1329 z "},"Ţ":{"ha":889,"x_min":31,"x_max":857,"o":"m 857 679 l 804 679 q 787 819 803 767 q 733 897 771 871 q 624 922 694 922 l 506 922 l 504 165 q 500 56 504 92 l 615 61 l 615 0 l 432 0 l 399 -103 q 493 -79 439 -79 q 561 -104 536 -79 q 586 -171 586 -129 q 503 -282 586 -244 q 314 -335 419 -319 l 306 -289 q 427 -248 382 -275 q 472 -182 472 -221 q 428 -140 472 -140 q 365 -161 396 -140 l 318 -139 l 356 0 l 289 0 l 289 46 q 366 79 349 49 q 383 174 383 110 l 383 217 l 385 921 l 242 919 q 119 862 156 919 q 82 679 82 804 l 31 679 l 39 972 l 849 972 l 857 679 z "},"Ț":{"ha":889,"x_min":31,"x_max":857,"o":"m 857 679 l 804 679 q 787 819 803 767 q 733 897 771 871 q 624 922 694 922 l 506 922 l 504 165 q 500 56 504 92 l 615 61 l 615 0 l 289 0 l 289 46 q 366 79 349 49 q 383 174 383 110 l 383 217 l 385 921 l 242 919 q 119 862 156 919 q 82 679 82 804 l 31 679 l 39 972 l 849 972 l 857 679 m 485 -56 q 507 -144 507 -99 q 394 -360 507 -247 l 358 -333 q 406 -178 406 -246 q 389 -83 406 -132 l 485 -56 z "},"U":{"ha":1044,"x_min":43,"x_max":1003,"o":"m 1003 926 q 932 904 953 925 q 908 855 911 883 q 906 756 906 826 l 903 433 q 813 105 901 232 q 529 -22 725 -22 q 297 30 382 -22 q 174 190 211 82 q 138 474 138 297 l 138 756 q 143 917 138 844 l 43 913 l 43 972 l 354 972 l 354 926 q 276 894 293 926 q 260 817 260 863 l 260 467 q 281 258 260 346 q 366 113 303 169 q 547 57 429 57 q 762 156 692 57 q 835 426 832 256 l 839 817 q 843 917 839 875 l 744 911 l 744 972 l 1003 972 l 1003 926 z "},"Ú":{"ha":1044,"x_min":43,"x_max":1003,"o":"m 726 1269 q 735 1240 735 1258 q 690 1179 735 1207 l 489 1056 l 458 1096 l 633 1263 q 688 1288 663 1288 q 712 1281 701 1288 q 726 1269 722 1275 m 1003 926 q 932 904 953 925 q 908 855 911 883 q 906 756 906 826 l 903 433 q 813 105 901 232 q 529 -22 725 -22 q 297 30 382 -22 q 174 190 211 82 q 138 474 138 297 l 138 756 q 143 917 138 844 l 43 913 l 43 972 l 354 972 l 354 926 q 276 894 293 926 q 260 817 260 863 l 260 467 q 281 258 260 346 q 366 113 303 169 q 547 57 429 57 q 762 156 692 57 q 835 426 832 256 l 839 817 q 843 917 839 875 l 744 911 l 744 972 l 1003 972 l 1003 926 z "},"Ŭ":{"ha":1044,"x_min":43,"x_max":1003,"o":"m 1003 926 q 932 904 953 925 q 908 855 911 883 q 906 756 906 826 l 903 433 q 813 105 901 232 q 529 -22 725 -22 q 297 30 382 -22 q 174 190 211 82 q 138 474 138 297 l 138 756 q 143 917 138 844 l 43 913 l 43 972 l 354 972 l 354 926 q 276 894 293 926 q 260 817 260 863 l 260 467 q 281 258 260 346 q 366 113 303 169 q 547 57 429 57 q 762 156 692 57 q 835 426 832 256 l 839 817 q 843 917 839 875 l 744 911 l 744 972 l 1003 972 l 1003 926 m 743 1267 q 657 1160 711 1197 q 539 1124 603 1124 q 421 1160 475 1124 q 336 1267 367 1197 l 372 1283 q 442 1231 396 1253 q 539 1208 488 1208 q 636 1231 590 1208 q 706 1283 682 1253 l 743 1267 z "},"Û":{"ha":1044,"x_min":43,"x_max":1003,"o":"m 1003 926 q 932 904 953 925 q 908 855 911 883 q 906 756 906 826 l 903 433 q 813 105 901 232 q 529 -22 725 -22 q 297 30 382 -22 q 174 190 211 82 q 138 474 138 297 l 138 756 q 143 917 138 844 l 43 913 l 43 972 l 354 972 l 354 926 q 276 894 293 926 q 260 817 260 863 l 260 467 q 281 258 260 346 q 366 113 303 169 q 547 57 429 57 q 762 156 692 57 q 835 426 832 256 l 839 817 q 843 917 839 875 l 744 911 l 744 972 l 1003 972 l 1003 926 m 547 1293 l 803 1097 l 772 1050 l 542 1172 l 539 1172 l 303 1051 l 275 1096 l 544 1293 l 547 1293 z "},"Ü":{"ha":1044,"x_min":43,"x_max":1003,"o":"m 422 1251 q 476 1226 454 1251 q 497 1163 497 1200 q 474 1101 497 1126 q 421 1075 451 1075 q 369 1101 392 1075 q 347 1163 347 1126 q 370 1225 347 1199 q 422 1251 393 1251 m 672 1251 q 726 1226 704 1251 q 747 1163 747 1200 q 724 1101 747 1126 q 671 1075 701 1075 q 619 1101 642 1075 q 597 1163 597 1126 q 620 1225 597 1199 q 672 1251 643 1251 m 1003 926 q 932 904 953 925 q 908 855 911 883 q 906 756 906 826 l 903 433 q 813 105 901 232 q 529 -22 725 -22 q 297 30 382 -22 q 174 190 211 82 q 138 474 138 297 l 138 756 q 143 917 138 844 l 43 913 l 43 972 l 354 972 l 354 926 q 276 894 293 926 q 260 817 260 863 l 260 467 q 281 258 260 346 q 366 113 303 169 q 547 57 429 57 q 762 156 692 57 q 835 426 832 256 l 839 817 q 843 917 839 875 l 744 911 l 744 972 l 1003 972 l 1003 926 z "},"Ụ":{"ha":1044,"x_min":43,"x_max":1003,"o":"m 1003 926 q 932 904 953 925 q 908 855 911 883 q 906 756 906 826 l 903 433 q 813 105 901 232 q 529 -22 725 -22 q 297 30 382 -22 q 174 190 211 82 q 138 474 138 297 l 138 756 q 143 917 138 844 l 43 913 l 43 972 l 354 972 l 354 926 q 276 894 293 926 q 260 817 260 863 l 260 467 q 281 258 260 346 q 366 113 303 169 q 547 57 429 57 q 762 156 692 57 q 835 426 832 256 l 839 817 q 843 917 839 875 l 744 911 l 744 972 l 1003 972 l 1003 926 m 524 -108 q 571 -130 551 -108 q 590 -182 590 -151 q 569 -234 590 -212 q 522 -256 549 -256 q 475 -234 494 -256 q 456 -182 456 -212 q 476 -130 456 -151 q 524 -108 496 -108 z "},"Ù":{"ha":1044,"x_min":43,"x_max":1003,"o":"m 1003 926 q 932 904 953 925 q 908 855 911 883 q 906 756 906 826 l 903 433 q 813 105 901 232 q 529 -22 725 -22 q 297 30 382 -22 q 174 190 211 82 q 138 474 138 297 l 138 756 q 143 917 138 844 l 43 913 l 43 972 l 354 972 l 354 926 q 276 894 293 926 q 260 817 260 863 l 260 467 q 281 258 260 346 q 366 113 303 169 q 547 57 429 57 q 762 156 692 57 q 835 426 832 256 l 839 817 q 843 917 839 875 l 744 911 l 744 972 l 1003 972 l 1003 926 m 351 1269 q 366 1281 356 1275 q 390 1288 376 1288 q 444 1263 415 1288 l 619 1096 l 589 1056 l 388 1179 q 343 1240 343 1207 q 351 1269 343 1258 z "},"Ủ":{"ha":1044,"x_min":43,"x_max":1003,"o":"m 1003 926 q 932 904 953 925 q 908 855 911 883 q 906 756 906 826 l 903 433 q 813 105 901 232 q 529 -22 725 -22 q 297 30 382 -22 q 174 190 211 82 q 138 474 138 297 l 138 756 q 143 917 138 844 l 43 913 l 43 972 l 354 972 l 354 926 q 276 894 293 926 q 260 817 260 863 l 260 467 q 281 258 260 346 q 366 113 303 169 q 547 57 429 57 q 762 156 692 57 q 835 426 832 256 l 839 817 q 843 917 839 875 l 744 911 l 744 972 l 1003 972 l 1003 926 m 521 1317 q 633 1284 592 1317 q 674 1189 674 1251 q 656 1140 674 1158 q 604 1103 638 1122 q 573 1083 582 1090 q 564 1064 564 1075 l 517 1064 q 524 1088 517 1079 q 549 1108 532 1097 q 583 1139 571 1122 q 594 1189 594 1156 q 522 1267 594 1267 q 479 1253 499 1267 q 457 1225 460 1240 q 465 1203 465 1214 q 452 1181 465 1189 q 422 1172 439 1172 q 376 1219 376 1172 q 415 1288 376 1258 q 521 1317 454 1317 z "},"Ư":{"ha":1044,"x_min":43,"x_max":1078,"o":"m 1078 1079 q 1030 966 1078 1017 q 906 901 982 915 l 903 433 q 813 105 901 232 q 529 -22 725 -22 q 297 30 382 -22 q 174 190 211 82 q 138 474 138 297 l 138 756 q 143 917 138 844 l 43 913 l 43 972 l 354 972 l 354 926 q 276 894 293 926 q 260 817 260 863 l 260 467 q 281 258 260 346 q 366 113 303 169 q 547 57 429 57 q 762 156 692 57 q 835 426 832 256 l 839 817 q 843 917 839 875 l 744 911 l 744 972 l 890 972 q 950 1013 928 982 q 972 1079 972 1044 l 1078 1079 z "},"Ứ":{"ha":1044,"x_min":43,"x_max":1078,"o":"m 1078 1079 q 1030 966 1078 1017 q 906 901 982 915 l 903 433 q 813 105 901 232 q 529 -22 725 -22 q 297 30 382 -22 q 174 190 211 82 q 138 474 138 297 l 138 756 q 143 917 138 844 l 43 913 l 43 972 l 354 972 l 354 926 q 276 894 293 926 q 260 817 260 863 l 260 467 q 281 258 260 346 q 366 113 303 169 q 547 57 429 57 q 762 156 692 57 q 835 426 832 256 l 839 817 q 843 917 839 875 l 744 911 l 744 972 l 890 972 q 950 1013 928 982 q 972 1079 972 1044 l 1078 1079 m 633 1329 q 650 1290 650 1313 q 621 1231 650 1261 l 465 1083 l 426 1115 l 543 1303 q 600 1340 569 1340 q 633 1329 617 1340 z "},"Ự":{"ha":1044,"x_min":43,"x_max":1078,"o":"m 1078 1079 q 1030 966 1078 1017 q 906 901 982 915 l 903 433 q 813 105 901 232 q 529 -22 725 -22 q 297 30 382 -22 q 174 190 211 82 q 138 474 138 297 l 138 756 q 143 917 138 844 l 43 913 l 43 972 l 354 972 l 354 926 q 276 894 293 926 q 260 817 260 863 l 260 467 q 281 258 260 346 q 366 113 303 169 q 547 57 429 57 q 762 156 692 57 q 835 426 832 256 l 839 817 q 843 917 839 875 l 744 911 l 744 972 l 890 972 q 950 1013 928 982 q 972 1079 972 1044 l 1078 1079 m 524 -108 q 571 -130 551 -108 q 590 -182 590 -151 q 569 -234 590 -212 q 522 -256 549 -256 q 475 -234 494 -256 q 456 -182 456 -212 q 476 -130 456 -151 q 524 -108 496 -108 z "},"Ừ":{"ha":1044,"x_min":43,"x_max":1078,"o":"m 1078 1079 q 1030 966 1078 1017 q 906 901 982 915 l 903 433 q 813 105 901 232 q 529 -22 725 -22 q 297 30 382 -22 q 174 190 211 82 q 138 474 138 297 l 138 756 q 143 917 138 844 l 43 913 l 43 972 l 354 972 l 354 926 q 276 894 293 926 q 260 817 260 863 l 260 467 q 281 258 260 346 q 366 113 303 169 q 547 57 429 57 q 762 156 692 57 q 835 426 832 256 l 839 817 q 843 917 839 875 l 744 911 l 744 972 l 890 972 q 950 1013 928 982 q 972 1079 972 1044 l 1078 1079 m 444 1329 q 478 1340 461 1340 q 535 1303 508 1340 l 651 1115 l 613 1083 l 457 1231 q 428 1290 428 1261 q 444 1329 428 1313 z "},"Ử":{"ha":1044,"x_min":43,"x_max":1078,"o":"m 1078 1079 q 1030 966 1078 1017 q 906 901 982 915 l 903 433 q 813 105 901 232 q 529 -22 725 -22 q 297 30 382 -22 q 174 190 211 82 q 138 474 138 297 l 138 756 q 143 917 138 844 l 43 913 l 43 972 l 354 972 l 354 926 q 276 894 293 926 q 260 817 260 863 l 260 467 q 281 258 260 346 q 366 113 303 169 q 547 57 429 57 q 762 156 692 57 q 835 426 832 256 l 839 817 q 843 917 839 875 l 744 911 l 744 972 l 890 972 q 950 1013 928 982 q 972 1079 972 1044 l 1078 1079 m 521 1317 q 633 1284 592 1317 q 674 1189 674 1251 q 656 1140 674 1158 q 604 1103 638 1122 q 573 1083 582 1090 q 564 1064 564 1075 l 517 1064 q 524 1088 517 1079 q 549 1108 532 1097 q 583 1139 571 1122 q 594 1189 594 1156 q 522 1267 594 1267 q 479 1253 499 1267 q 457 1225 460 1240 q 465 1203 465 1214 q 452 1181 465 1189 q 422 1172 439 1172 q 376 1219 376 1172 q 415 1288 376 1258 q 521 1317 454 1317 z "},"Ữ":{"ha":1044,"x_min":43,"x_max":1078,"o":"m 1078 1079 q 1030 966 1078 1017 q 906 901 982 915 l 903 433 q 813 105 901 232 q 529 -22 725 -22 q 297 30 382 -22 q 174 190 211 82 q 138 474 138 297 l 138 756 q 143 917 138 844 l 43 913 l 43 972 l 354 972 l 354 926 q 276 894 293 926 q 260 817 260 863 l 260 467 q 281 258 260 346 q 366 113 303 169 q 547 57 429 57 q 762 156 692 57 q 835 426 832 256 l 839 817 q 843 917 839 875 l 744 911 l 744 972 l 890 972 q 950 1013 928 982 q 972 1079 972 1044 l 1078 1079 m 451 1288 q 505 1276 482 1288 q 557 1246 528 1265 q 596 1222 579 1229 q 631 1214 613 1214 q 688 1232 661 1214 q 732 1281 715 1250 l 772 1260 q 711 1162 751 1196 q 631 1128 671 1128 q 574 1139 599 1128 q 515 1172 549 1150 q 478 1195 493 1188 q 449 1203 464 1203 q 393 1188 421 1203 q 347 1144 365 1174 l 306 1168 q 367 1253 324 1218 q 451 1288 411 1288 z "},"Ű":{"ha":1044,"x_min":43,"x_max":1003,"o":"m 1003 926 q 932 904 953 925 q 908 855 911 883 q 906 756 906 826 l 903 433 q 813 105 901 232 q 529 -22 725 -22 q 297 30 382 -22 q 174 190 211 82 q 138 474 138 297 l 138 756 q 143 917 138 844 l 43 913 l 43 972 l 354 972 l 354 926 q 276 894 293 926 q 260 817 260 863 l 260 467 q 281 258 260 346 q 366 113 303 169 q 547 57 429 57 q 762 156 692 57 q 835 426 832 256 l 839 817 q 843 917 839 875 l 744 911 l 744 972 l 1003 972 l 1003 926 m 599 1271 q 615 1233 615 1254 q 592 1188 615 1207 l 464 1072 l 428 1099 l 513 1247 q 567 1285 535 1285 q 599 1271 585 1285 m 749 1250 q 788 1267 765 1267 q 831 1240 814 1267 q 838 1213 838 1226 q 828 1181 838 1196 q 806 1161 819 1167 l 615 1072 l 596 1108 l 749 1250 z "},"Ū":{"ha":1044,"x_min":43,"x_max":1003,"o":"m 1003 926 q 932 904 953 925 q 908 855 911 883 q 906 756 906 826 l 903 433 q 813 105 901 232 q 529 -22 725 -22 q 297 30 382 -22 q 174 190 211 82 q 138 474 138 297 l 138 756 q 143 917 138 844 l 43 913 l 43 972 l 354 972 l 354 926 q 276 894 293 926 q 260 817 260 863 l 260 467 q 281 258 260 346 q 366 113 303 169 q 547 57 429 57 q 762 156 692 57 q 835 426 832 256 l 839 817 q 843 917 839 875 l 744 911 l 744 972 l 1003 972 l 1003 926 m 722 1250 l 722 1172 l 354 1167 l 354 1250 l 722 1250 z "},"Ų":{"ha":1044,"x_min":43,"x_max":1003,"o":"m 1003 972 l 1003 926 q 932 904 953 925 q 908 855 911 883 q 906 756 906 826 l 903 433 q 851 169 901 282 q 692 8 801 57 l 692 7 q 560 -69 611 -21 q 508 -183 508 -118 q 533 -253 508 -226 q 594 -279 558 -279 q 685 -240 639 -279 l 708 -265 q 635 -327 679 -301 q 543 -353 590 -353 q 436 -313 476 -353 q 396 -211 396 -274 q 434 -110 396 -158 q 538 -22 472 -61 l 529 -22 q 297 30 382 -22 q 174 190 211 82 q 138 474 138 297 l 138 756 q 143 917 138 844 l 43 913 l 43 972 l 354 972 l 354 926 q 276 894 293 926 q 260 817 260 863 l 260 467 q 281 258 260 346 q 366 113 303 169 q 547 57 429 57 q 762 156 692 57 q 835 426 832 256 l 839 817 q 843 917 839 875 l 744 911 l 744 972 l 1003 972 z "},"Ů":{"ha":1044,"x_min":43,"x_max":1003,"o":"m 1003 926 q 932 904 953 925 q 908 855 911 883 q 906 756 906 826 l 903 433 q 813 105 901 232 q 529 -22 725 -22 q 297 30 382 -22 q 174 190 211 82 q 138 474 138 297 l 138 756 q 143 917 138 844 l 43 913 l 43 972 l 354 972 l 354 926 q 276 894 293 926 q 260 817 260 863 l 260 467 q 281 258 260 346 q 366 113 303 169 q 547 57 429 57 q 762 156 692 57 q 835 426 832 256 l 839 817 q 843 917 839 875 l 744 911 l 744 972 l 1003 972 l 1003 926 m 538 1335 q 634 1301 593 1335 q 675 1204 675 1268 q 633 1108 675 1146 q 540 1069 592 1069 q 444 1103 485 1069 q 403 1200 403 1136 q 444 1297 403 1258 q 538 1335 485 1335 m 539 1292 q 494 1269 511 1292 q 476 1208 476 1246 q 494 1140 476 1167 q 543 1113 513 1113 q 585 1135 568 1113 q 601 1194 601 1157 q 585 1265 601 1239 q 539 1292 568 1292 z "},"Ũ":{"ha":1044,"x_min":43,"x_max":1003,"o":"m 1003 926 q 932 904 953 925 q 908 855 911 883 q 906 756 906 826 l 903 433 q 813 105 901 232 q 529 -22 725 -22 q 297 30 382 -22 q 174 190 211 82 q 138 474 138 297 l 138 756 q 143 917 138 844 l 43 913 l 43 972 l 354 972 l 354 926 q 276 894 293 926 q 260 817 260 863 l 260 467 q 281 258 260 346 q 366 113 303 169 q 547 57 429 57 q 762 156 692 57 q 835 426 832 256 l 839 817 q 843 917 839 875 l 744 911 l 744 972 l 1003 972 l 1003 926 m 451 1288 q 505 1276 482 1288 q 557 1246 528 1265 q 596 1222 579 1229 q 631 1214 613 1214 q 688 1232 661 1214 q 732 1281 715 1250 l 772 1260 q 711 1162 751 1196 q 631 1128 671 1128 q 574 1139 599 1128 q 515 1172 549 1150 q 478 1195 493 1188 q 449 1203 464 1203 q 393 1188 421 1203 q 347 1144 365 1174 l 306 1168 q 367 1253 324 1218 q 451 1288 411 1288 z "},"V":{"ha":907,"x_min":-6,"x_max":932,"o":"m 932 926 q 838 894 871 924 q 779 790 806 865 l 486 -14 l 447 -14 l 132 725 q 72 914 82 843 l -6 911 l -6 972 l 317 972 l 317 926 l 315 925 q 248 905 269 922 q 226 854 226 888 q 246 775 226 822 l 282 686 q 324 581 296 651 q 378 451 353 510 l 414 367 q 490 183 468 243 l 493 183 l 544 332 l 563 382 l 685 725 l 717 814 q 757 917 743 889 l 650 911 l 650 972 l 932 972 l 932 926 z "},"W":{"ha":1382,"x_min":10,"x_max":1403,"o":"m 732 975 q 789 797 749 918 q 847 621 829 675 q 904 451 889 501 q 940 339 915 414 q 985 201 968 258 l 989 201 q 1046 381 1022 310 q 1161 728 1117 582 q 1189 814 1176 779 q 1232 915 1215 885 l 1121 911 l 1121 972 l 1403 972 l 1403 926 q 1327 906 1353 921 q 1281 851 1301 890 q 1231 721 1261 811 l 1160 510 q 981 -14 1049 172 l 939 -14 l 679 729 l 435 -14 l 394 -14 l 146 725 l 128 779 q 88 914 94 883 l 10 911 l 10 972 l 347 972 l 347 926 q 267 908 290 924 q 243 856 243 892 q 257 775 243 822 q 324 567 282 682 q 340 517 331 546 q 363 451 350 489 q 383 388 371 422 q 401 338 396 353 q 443 218 429 263 l 446 218 q 503 401 474 313 q 613 742 553 563 q 688 975 675 929 l 732 975 z "},"X":{"ha":901,"x_min":13,"x_max":911,"o":"m 865 926 q 756 868 806 918 q 647 733 707 818 l 490 511 l 690 246 l 735 188 l 831 58 l 911 61 l 911 0 l 571 0 l 571 46 q 654 88 654 42 q 629 147 654 113 l 583 207 q 425 417 501 310 q 288 213 356 317 q 247 150 281 201 q 174 54 213 99 l 289 61 l 289 0 l 17 0 l 17 46 q 90 75 58 54 q 144 126 121 96 q 207 213 168 156 l 388 471 q 324 558 351 521 q 276 625 297 596 q 138 823 168 776 q 89 914 107 869 l 13 911 l 13 972 l 372 972 l 372 926 l 311 924 q 244 886 244 922 q 253 856 244 872 q 279 811 261 839 q 451 563 315 751 l 585 756 q 654 853 619 806 q 708 917 689 900 l 592 911 l 592 972 l 865 972 l 865 926 z "},"Y":{"ha":881,"x_min":-8,"x_max":894,"o":"m 894 926 q 785 882 829 922 q 690 747 742 842 l 515 417 q 513 272 514 349 q 514 165 513 196 q 510 56 514 92 l 625 61 l 625 0 l 299 0 l 299 46 q 376 79 358 49 q 393 174 393 110 l 393 217 l 394 375 l 153 757 q 78 914 89 856 l -8 911 l -8 972 l 350 972 l 350 926 q 242 865 242 926 q 276 775 242 829 l 319 707 q 474 472 408 563 l 476 472 q 625 756 525 568 l 654 810 q 721 915 694 886 l 611 911 l 611 972 l 894 972 l 894 926 z "},"Ý":{"ha":881,"x_min":-8,"x_max":894,"o":"m 647 1269 q 656 1240 656 1258 q 611 1179 656 1207 l 410 1056 l 379 1096 l 554 1263 q 608 1288 583 1288 q 633 1281 622 1288 q 647 1269 643 1275 m 894 926 q 785 882 829 922 q 690 747 742 842 l 515 417 q 513 272 514 349 q 514 165 513 196 q 510 56 514 92 l 625 61 l 625 0 l 299 0 l 299 46 q 376 79 358 49 q 393 174 393 110 l 393 217 l 394 375 l 153 757 q 78 914 89 856 l -8 911 l -8 972 l 350 972 l 350 926 q 242 865 242 926 q 276 775 242 829 l 319 707 q 474 472 408 563 l 476 472 q 625 756 525 568 l 654 810 q 721 915 694 886 l 611 911 l 611 972 l 894 972 l 894 926 z "},"Ÿ":{"ha":881,"x_min":-8,"x_max":894,"o":"m 894 926 q 785 882 829 922 q 690 747 742 842 l 515 417 q 513 272 514 349 q 514 165 513 196 q 510 56 514 92 l 625 61 l 625 0 l 299 0 l 299 46 q 376 79 358 49 q 393 174 393 110 l 393 217 l 394 375 l 153 757 q 78 914 89 856 l -8 911 l -8 972 l 350 972 l 350 926 q 242 865 242 926 q 276 775 242 829 l 319 707 q 474 472 408 563 l 476 472 q 625 756 525 568 l 654 810 q 721 915 694 886 l 611 911 l 611 972 l 894 972 l 894 926 m 344 1292 q 394 1267 374 1292 q 414 1208 414 1243 q 393 1151 414 1175 q 344 1126 372 1126 q 296 1150 317 1126 q 275 1208 275 1174 q 296 1267 275 1242 q 344 1292 317 1292 m 576 1292 q 626 1267 606 1292 q 646 1208 646 1243 q 625 1151 646 1175 q 576 1126 604 1126 q 528 1150 549 1126 q 507 1208 507 1174 q 528 1267 507 1242 q 576 1292 549 1292 z "},"Ỵ":{"ha":881,"x_min":-8,"x_max":894,"o":"m 894 926 q 785 882 829 922 q 690 747 742 842 l 515 417 q 513 272 514 349 q 514 165 513 196 q 510 56 514 92 l 625 61 l 625 0 l 299 0 l 299 46 q 376 79 358 49 q 393 174 393 110 l 393 217 l 394 375 l 153 757 q 78 914 89 856 l -8 911 l -8 972 l 350 972 l 350 926 q 242 865 242 926 q 276 775 242 829 l 319 707 q 474 472 408 563 l 476 472 q 625 756 525 568 l 654 810 q 721 915 694 886 l 611 911 l 611 972 l 894 972 l 894 926 m 442 -108 q 489 -130 469 -108 q 508 -182 508 -151 q 488 -234 508 -212 q 440 -256 467 -256 q 393 -234 413 -256 q 374 -182 374 -212 q 394 -130 374 -151 q 442 -108 414 -108 z "},"Ỳ":{"ha":881,"x_min":-8,"x_max":894,"o":"m 894 926 q 785 882 829 922 q 690 747 742 842 l 515 417 q 513 272 514 349 q 514 165 513 196 q 510 56 514 92 l 625 61 l 625 0 l 299 0 l 299 46 q 376 79 358 49 q 393 174 393 110 l 393 217 l 394 375 l 153 757 q 78 914 89 856 l -8 911 l -8 972 l 350 972 l 350 926 q 242 865 242 926 q 276 775 242 829 l 319 707 q 474 472 408 563 l 476 472 q 625 756 525 568 l 654 810 q 721 915 694 886 l 611 911 l 611 972 l 894 972 l 894 926 m 365 1329 q 399 1340 382 1340 q 456 1303 429 1340 l 572 1115 l 533 1083 l 378 1231 q 349 1290 349 1261 q 365 1329 349 1313 z "},"Ỷ":{"ha":881,"x_min":-8,"x_max":894,"o":"m 894 926 q 785 882 829 922 q 690 747 742 842 l 515 417 q 513 272 514 349 q 514 165 513 196 q 510 56 514 92 l 625 61 l 625 0 l 299 0 l 299 46 q 376 79 358 49 q 393 174 393 110 l 393 217 l 394 375 l 153 757 q 78 914 89 856 l -8 911 l -8 972 l 350 972 l 350 926 q 242 865 242 926 q 276 775 242 829 l 319 707 q 474 472 408 563 l 476 472 q 625 756 525 568 l 654 810 q 721 915 694 886 l 611 911 l 611 972 l 894 972 l 894 926 m 442 1317 q 553 1284 513 1317 q 594 1189 594 1251 q 576 1140 594 1158 q 525 1103 558 1122 q 494 1083 503 1090 q 485 1064 485 1075 l 438 1064 q 445 1088 438 1079 q 469 1108 453 1097 q 503 1139 492 1122 q 515 1189 515 1156 q 443 1267 515 1267 q 400 1253 419 1267 q 378 1225 381 1240 q 386 1203 386 1214 q 373 1181 386 1189 q 343 1172 360 1172 q 297 1219 297 1172 q 336 1288 297 1258 q 442 1317 375 1317 z "},"Ỹ":{"ha":881,"x_min":-8,"x_max":894,"o":"m 894 926 q 785 882 829 922 q 690 747 742 842 l 515 417 q 513 272 514 349 q 514 165 513 196 q 510 56 514 92 l 625 61 l 625 0 l 299 0 l 299 46 q 376 79 358 49 q 393 174 393 110 l 393 217 l 394 375 l 153 757 q 78 914 89 856 l -8 911 l -8 972 l 350 972 l 350 926 q 242 865 242 926 q 276 775 242 829 l 319 707 q 474 472 408 563 l 476 472 q 625 756 525 568 l 654 810 q 721 915 694 886 l 611 911 l 611 972 l 894 972 l 894 926 m 372 1288 q 426 1276 403 1288 q 478 1246 449 1265 q 517 1222 500 1229 q 551 1214 533 1214 q 609 1232 582 1214 q 653 1281 636 1250 l 693 1260 q 632 1162 672 1196 q 551 1128 592 1128 q 494 1139 519 1128 q 436 1172 469 1150 q 399 1195 414 1188 q 369 1203 385 1203 q 314 1188 342 1203 q 268 1144 286 1174 l 226 1168 q 288 1253 244 1218 q 372 1288 332 1288 z "},"Z":{"ha":847,"x_min":60,"x_max":781,"o":"m 774 924 l 275 167 q 181 51 224 90 l 518 57 q 674 115 615 58 q 733 285 733 172 l 781 285 l 772 0 l 60 0 l 60 64 l 76 88 q 553 796 319 422 q 642 921 606 878 l 288 915 q 164 857 204 913 q 124 685 124 801 l 76 685 l 85 972 l 774 972 l 774 924 z "},"Ź":{"ha":847,"x_min":60,"x_max":781,"o":"m 774 924 l 275 167 q 181 51 224 90 l 518 57 q 674 115 615 58 q 733 285 733 172 l 781 285 l 772 0 l 60 0 l 60 64 l 76 88 q 553 796 319 422 q 642 921 606 878 l 288 915 q 164 857 204 913 q 124 685 124 801 l 76 685 l 85 972 l 774 972 l 774 924 m 613 1269 q 621 1240 621 1258 q 576 1179 621 1207 l 375 1056 l 344 1096 l 519 1263 q 574 1288 549 1288 q 598 1281 588 1288 q 613 1269 608 1275 z "},"Ž":{"ha":847,"x_min":60,"x_max":781,"o":"m 774 924 l 275 167 q 181 51 224 90 l 518 57 q 674 115 615 58 q 733 285 733 172 l 781 285 l 772 0 l 60 0 l 60 64 l 76 88 q 553 796 319 422 q 642 921 606 878 l 288 915 q 164 857 204 913 q 124 685 124 801 l 76 685 l 85 972 l 774 972 l 774 924 m 660 1329 l 688 1285 l 418 1083 l 415 1083 l 160 1279 l 190 1326 l 424 1204 l 660 1329 z "},"Ż":{"ha":847,"x_min":60,"x_max":781,"o":"m 774 924 l 275 167 q 181 51 224 90 l 518 57 q 674 115 615 58 q 733 285 733 172 l 781 285 l 772 0 l 60 0 l 60 64 l 76 88 q 553 796 319 422 q 642 921 606 878 l 288 915 q 164 857 204 913 q 124 685 124 801 l 76 685 l 85 972 l 774 972 l 774 924 m 425 1289 q 478 1265 457 1289 q 500 1206 500 1240 q 477 1148 500 1172 q 424 1124 454 1124 q 372 1148 394 1124 q 350 1206 350 1172 q 373 1264 350 1239 q 425 1289 396 1289 z "},"a":{"ha":717,"x_min":47,"x_max":682,"o":"m 364 717 q 536 655 481 717 q 590 460 592 593 l 589 147 q 583 53 589 103 l 682 58 l 682 0 l 483 0 q 474 79 479 21 q 256 -22 372 -22 q 101 24 154 -22 q 47 143 47 69 q 112 279 47 224 q 274 362 176 335 q 471 388 372 389 l 471 474 q 444 615 471 564 q 332 665 418 665 q 250 647 289 665 q 193 593 211 629 q 211 540 211 574 q 196 501 211 519 q 151 482 181 482 q 106 501 122 482 q 89 550 89 519 q 124 634 89 596 q 223 694 160 672 q 364 717 286 717 m 471 340 q 268 294 357 336 q 179 164 179 251 q 210 85 179 113 q 288 57 240 57 q 383 77 340 57 q 471 139 426 97 q 469 210 469 160 l 471 340 z "},"á":{"ha":717,"x_min":47,"x_max":682,"o":"m 443 1097 q 460 1058 460 1081 q 431 999 460 1029 l 275 851 l 236 883 l 353 1071 q 410 1108 379 1108 q 443 1097 426 1108 m 364 717 q 536 655 481 717 q 590 460 592 593 l 589 147 q 583 53 589 103 l 682 58 l 682 0 l 483 0 q 474 79 479 21 q 256 -22 372 -22 q 101 24 154 -22 q 47 143 47 69 q 112 279 47 224 q 274 362 176 335 q 471 388 372 389 l 471 474 q 444 615 471 564 q 332 665 418 665 q 250 647 289 665 q 193 593 211 629 q 211 540 211 574 q 196 501 211 519 q 151 482 181 482 q 106 501 122 482 q 89 550 89 519 q 124 634 89 596 q 223 694 160 672 q 364 717 286 717 m 471 340 q 268 294 357 336 q 179 164 179 251 q 210 85 179 113 q 288 57 240 57 q 383 77 340 57 q 471 139 426 97 q 469 210 469 160 l 471 340 z "},"ă":{"ha":717,"x_min":47,"x_max":682,"o":"m 364 717 q 536 655 481 717 q 590 460 592 593 l 589 147 q 583 53 589 103 l 682 58 l 682 0 l 483 0 q 474 79 479 21 q 256 -22 372 -22 q 101 24 154 -22 q 47 143 47 69 q 112 279 47 224 q 274 362 176 335 q 471 388 372 389 l 471 474 q 444 615 471 564 q 332 665 418 665 q 250 647 289 665 q 193 593 211 629 q 211 540 211 574 q 196 501 211 519 q 151 482 181 482 q 106 501 122 482 q 89 550 89 519 q 124 634 89 596 q 223 694 160 672 q 364 717 286 717 m 471 340 q 268 294 357 336 q 179 164 179 251 q 210 85 179 113 q 288 57 240 57 q 383 77 340 57 q 471 139 426 97 q 469 210 469 160 l 471 340 m 538 1053 q 346 885 476 885 q 235 926 288 885 q 158 1046 183 968 l 199 1067 q 263 998 221 1026 q 350 969 304 969 q 438 999 396 969 q 500 1069 479 1028 l 538 1053 z "},"ắ":{"ha":717,"x_min":47,"x_max":682,"o":"m 364 717 q 536 655 481 717 q 590 460 592 593 l 589 147 q 583 53 589 103 l 682 58 l 682 0 l 483 0 q 474 79 479 21 q 256 -22 372 -22 q 101 24 154 -22 q 47 143 47 69 q 112 279 47 224 q 274 362 176 335 q 471 388 372 389 l 471 474 q 444 615 471 564 q 332 665 418 665 q 250 647 289 665 q 193 593 211 629 q 211 540 211 574 q 196 501 211 519 q 151 482 181 482 q 106 501 122 482 q 89 550 89 519 q 124 634 89 596 q 223 694 160 672 q 364 717 286 717 m 471 340 q 268 294 357 336 q 179 164 179 251 q 210 85 179 113 q 288 57 240 57 q 383 77 340 57 q 471 139 426 97 q 469 210 469 160 l 471 340 m 535 956 q 343 788 474 788 q 233 829 285 788 q 156 949 181 871 l 196 969 q 260 901 218 929 q 347 872 301 872 q 435 901 393 872 q 497 972 476 931 l 535 956 m 524 1197 q 540 1158 540 1181 q 511 1099 540 1129 l 356 951 l 317 983 l 433 1171 q 490 1208 460 1208 q 524 1197 507 1208 z "},"ặ":{"ha":717,"x_min":47,"x_max":682,"o":"m 364 717 q 536 655 481 717 q 590 460 592 593 l 589 147 q 583 53 589 103 l 682 58 l 682 0 l 483 0 q 474 79 479 21 q 256 -22 372 -22 q 101 24 154 -22 q 47 143 47 69 q 112 279 47 224 q 274 362 176 335 q 471 388 372 389 l 471 474 q 444 615 471 564 q 332 665 418 665 q 250 647 289 665 q 193 593 211 629 q 211 540 211 574 q 196 501 211 519 q 151 482 181 482 q 106 501 122 482 q 89 550 89 519 q 124 634 89 596 q 223 694 160 672 q 364 717 286 717 m 471 340 q 268 294 357 336 q 179 164 179 251 q 210 85 179 113 q 288 57 240 57 q 383 77 340 57 q 471 139 426 97 q 469 210 469 160 l 471 340 m 360 -108 q 407 -130 388 -108 q 426 -182 426 -151 q 406 -234 426 -212 q 358 -256 385 -256 q 311 -234 331 -256 q 292 -182 292 -212 q 312 -130 292 -151 q 360 -108 332 -108 m 538 958 q 346 790 476 790 q 235 832 288 790 q 158 951 183 874 l 199 972 q 263 903 221 932 q 350 875 304 875 q 438 904 396 875 q 500 975 479 933 l 538 958 z "},"ằ":{"ha":717,"x_min":47,"x_max":682,"o":"m 364 717 q 536 655 481 717 q 590 460 592 593 l 589 147 q 583 53 589 103 l 682 58 l 682 0 l 483 0 q 474 79 479 21 q 256 -22 372 -22 q 101 24 154 -22 q 47 143 47 69 q 112 279 47 224 q 274 362 176 335 q 471 388 372 389 l 471 474 q 444 615 471 564 q 332 665 418 665 q 250 647 289 665 q 193 593 211 629 q 211 540 211 574 q 196 501 211 519 q 151 482 181 482 q 106 501 122 482 q 89 550 89 519 q 124 634 89 596 q 223 694 160 672 q 364 717 286 717 m 471 340 q 268 294 357 336 q 179 164 179 251 q 210 85 179 113 q 288 57 240 57 q 383 77 340 57 q 471 139 426 97 q 469 210 469 160 l 471 340 m 538 954 q 346 786 476 786 q 235 828 288 786 q 158 947 183 869 l 199 968 q 263 899 221 928 q 350 871 304 871 q 438 900 396 871 q 500 971 479 929 l 538 954 m 179 1179 q 213 1190 196 1190 q 269 1153 243 1190 l 386 965 l 347 933 l 192 1081 q 163 1140 163 1111 q 179 1179 163 1163 z "},"ẳ":{"ha":717,"x_min":47,"x_max":682,"o":"m 364 717 q 536 655 481 717 q 590 460 592 593 l 589 147 q 583 53 589 103 l 682 58 l 682 0 l 483 0 q 474 79 479 21 q 256 -22 372 -22 q 101 24 154 -22 q 47 143 47 69 q 112 279 47 224 q 274 362 176 335 q 471 388 372 389 l 471 474 q 444 615 471 564 q 332 665 418 665 q 250 647 289 665 q 193 593 211 629 q 211 540 211 574 q 196 501 211 519 q 151 482 181 482 q 106 501 122 482 q 89 550 89 519 q 124 634 89 596 q 223 694 160 672 q 364 717 286 717 m 471 340 q 268 294 357 336 q 179 164 179 251 q 210 85 179 113 q 288 57 240 57 q 383 77 340 57 q 471 139 426 97 q 469 210 469 160 l 471 340 m 542 958 q 350 790 481 790 q 240 832 292 790 q 163 951 188 874 l 203 972 q 267 903 225 932 q 354 875 308 875 q 442 904 400 875 q 504 975 483 933 l 542 958 m 329 1228 q 441 1195 400 1228 q 482 1100 482 1163 q 464 1051 482 1069 q 413 1014 446 1033 q 381 994 390 1001 q 372 975 372 986 l 325 975 q 333 999 325 990 q 357 1019 340 1008 q 391 1050 379 1033 q 403 1100 403 1067 q 331 1178 403 1178 q 288 1165 307 1178 q 265 1136 268 1151 q 274 1114 274 1125 q 260 1092 274 1100 q 231 1083 247 1083 q 185 1131 185 1083 q 224 1199 185 1169 q 329 1228 263 1228 z "},"ẵ":{"ha":717,"x_min":47,"x_max":682,"o":"m 364 717 q 536 655 481 717 q 590 460 592 593 l 589 147 q 583 53 589 103 l 682 58 l 682 0 l 483 0 q 474 79 479 21 q 256 -22 372 -22 q 101 24 154 -22 q 47 143 47 69 q 112 279 47 224 q 274 362 176 335 q 471 388 372 389 l 471 474 q 444 615 471 564 q 332 665 418 665 q 250 647 289 665 q 193 593 211 629 q 211 540 211 574 q 196 501 211 519 q 151 482 181 482 q 106 501 122 482 q 89 550 89 519 q 124 634 89 596 q 223 694 160 672 q 364 717 286 717 m 471 340 q 268 294 357 336 q 179 164 179 251 q 210 85 179 113 q 288 57 240 57 q 383 77 340 57 q 471 139 426 97 q 469 210 469 160 l 471 340 m 528 951 q 336 783 467 783 q 226 825 278 783 q 149 944 174 867 l 189 965 q 253 897 211 925 q 340 868 294 868 q 428 897 386 868 q 490 968 469 926 l 528 951 m 261 1163 q 315 1151 292 1163 q 367 1121 338 1140 q 406 1097 389 1104 q 440 1089 422 1089 q 498 1107 471 1089 q 542 1156 525 1125 l 582 1135 q 521 1037 561 1071 q 440 1003 481 1003 q 383 1014 408 1003 q 325 1047 358 1025 q 288 1070 303 1063 q 258 1078 274 1078 q 203 1063 231 1078 q 157 1019 175 1049 l 115 1043 q 177 1128 133 1093 q 261 1163 221 1163 z "},"â":{"ha":717,"x_min":47,"x_max":682,"o":"m 364 717 q 536 655 481 717 q 590 460 592 593 l 589 147 q 583 53 589 103 l 682 58 l 682 0 l 483 0 q 474 79 479 21 q 256 -22 372 -22 q 101 24 154 -22 q 47 143 47 69 q 112 279 47 224 q 274 362 176 335 q 471 388 372 389 l 471 474 q 444 615 471 564 q 332 665 418 665 q 250 647 289 665 q 193 593 211 629 q 211 540 211 574 q 196 501 211 519 q 151 482 181 482 q 106 501 122 482 q 89 550 89 519 q 124 634 89 596 q 223 694 160 672 q 364 717 286 717 m 471 340 q 268 294 357 336 q 179 164 179 251 q 210 85 179 113 q 288 57 240 57 q 383 77 340 57 q 471 139 426 97 q 469 210 469 160 l 471 340 m 357 1126 l 564 900 l 526 856 l 350 1007 l 347 1007 l 168 865 l 133 906 l 354 1126 l 357 1126 z "},"ấ":{"ha":717,"x_min":47,"x_max":743,"o":"m 726 1158 q 743 1119 743 1142 q 714 1060 743 1090 l 558 913 l 519 944 l 636 1132 q 693 1169 663 1169 q 726 1158 710 1169 m 356 1006 l 567 844 l 542 806 l 351 906 l 349 906 l 154 807 l 131 843 l 354 1006 l 356 1006 m 364 717 q 536 655 481 717 q 590 460 592 593 l 589 147 q 583 53 589 103 l 682 58 l 682 0 l 483 0 q 474 79 479 21 q 256 -22 372 -22 q 101 24 154 -22 q 47 143 47 69 q 112 279 47 224 q 274 362 176 335 q 471 388 372 389 l 471 474 q 444 615 471 564 q 332 665 418 665 q 250 647 289 665 q 193 593 211 629 q 211 540 211 574 q 196 501 211 519 q 151 482 181 482 q 106 501 122 482 q 89 550 89 519 q 124 634 89 596 q 223 694 160 672 q 364 717 286 717 m 471 340 q 268 294 357 336 q 179 164 179 251 q 210 85 179 113 q 288 57 240 57 q 383 77 340 57 q 471 139 426 97 q 469 210 469 160 l 471 340 z "},"ậ":{"ha":717,"x_min":47,"x_max":682,"o":"m 364 717 q 536 655 481 717 q 590 460 592 593 l 589 147 q 583 53 589 103 l 682 58 l 682 0 l 483 0 q 474 79 479 21 q 256 -22 372 -22 q 101 24 154 -22 q 47 143 47 69 q 112 279 47 224 q 274 362 176 335 q 471 388 372 389 l 471 474 q 444 615 471 564 q 332 665 418 665 q 250 647 289 665 q 193 593 211 629 q 211 540 211 574 q 196 501 211 519 q 151 482 181 482 q 106 501 122 482 q 89 550 89 519 q 124 634 89 596 q 223 694 160 672 q 364 717 286 717 m 471 340 q 268 294 357 336 q 179 164 179 251 q 210 85 179 113 q 288 57 240 57 q 383 77 340 57 q 471 139 426 97 q 469 210 469 160 l 471 340 m 360 -108 q 407 -130 388 -108 q 426 -182 426 -151 q 406 -234 426 -212 q 358 -256 385 -256 q 311 -234 331 -256 q 292 -182 292 -212 q 312 -130 292 -151 q 360 -108 332 -108 m 357 1050 l 564 824 l 526 779 l 350 931 l 347 931 l 168 789 l 133 829 l 354 1050 l 357 1050 z "},"ầ":{"ha":717,"x_min":47,"x_max":682,"o":"m 351 1206 q 385 1217 368 1217 q 442 1179 415 1217 l 558 992 l 519 960 l 364 1107 q 335 1167 335 1138 q 351 1206 335 1189 m 356 1006 l 567 844 l 542 806 l 351 906 l 349 906 l 154 807 l 131 843 l 354 1006 l 356 1006 m 364 717 q 536 655 481 717 q 590 460 592 593 l 589 147 q 583 53 589 103 l 682 58 l 682 0 l 483 0 q 474 79 479 21 q 256 -22 372 -22 q 101 24 154 -22 q 47 143 47 69 q 112 279 47 224 q 274 362 176 335 q 471 388 372 389 l 471 474 q 444 615 471 564 q 332 665 418 665 q 250 647 289 665 q 193 593 211 629 q 211 540 211 574 q 196 501 211 519 q 151 482 181 482 q 106 501 122 482 q 89 550 89 519 q 124 634 89 596 q 223 694 160 672 q 364 717 286 717 m 471 340 q 268 294 357 336 q 179 164 179 251 q 210 85 179 113 q 288 57 240 57 q 383 77 340 57 q 471 139 426 97 q 469 210 469 160 l 471 340 z "},"ẩ":{"ha":717,"x_min":47,"x_max":683,"o":"m 531 1193 q 642 1160 601 1193 q 683 1065 683 1128 q 665 1017 683 1035 q 614 979 647 999 q 583 959 592 967 q 574 940 574 951 l 526 940 q 534 965 526 956 q 558 985 542 974 q 592 1016 581 1000 q 604 1065 604 1032 q 532 1143 604 1143 q 489 1130 508 1143 q 467 1101 469 1117 q 475 1079 475 1090 q 462 1057 475 1065 q 432 1049 449 1049 q 386 1096 386 1049 q 425 1164 386 1135 q 531 1193 464 1193 m 356 1006 l 567 844 l 542 806 l 351 906 l 349 906 l 154 807 l 131 843 l 354 1006 l 356 1006 m 364 717 q 536 655 481 717 q 590 460 592 593 l 589 147 q 583 53 589 103 l 682 58 l 682 0 l 483 0 q 474 79 479 21 q 256 -22 372 -22 q 101 24 154 -22 q 47 143 47 69 q 112 279 47 224 q 274 362 176 335 q 471 388 372 389 l 471 474 q 444 615 471 564 q 332 665 418 665 q 250 647 289 665 q 193 593 211 629 q 211 540 211 574 q 196 501 211 519 q 151 482 181 482 q 106 501 122 482 q 89 550 89 519 q 124 634 89 596 q 223 694 160 672 q 364 717 286 717 m 471 340 q 268 294 357 336 q 179 164 179 251 q 210 85 179 113 q 288 57 240 57 q 383 77 340 57 q 471 139 426 97 q 469 210 469 160 l 471 340 z "},"ẫ":{"ha":717,"x_min":47,"x_max":682,"o":"m 279 1172 q 333 1161 310 1172 q 385 1131 356 1150 q 424 1106 407 1114 q 458 1099 440 1099 q 516 1117 489 1099 q 560 1165 543 1135 l 600 1144 q 539 1047 579 1081 q 458 1013 499 1013 q 401 1024 426 1013 q 343 1057 376 1035 q 306 1080 321 1072 q 276 1088 292 1088 q 221 1073 249 1088 q 175 1029 193 1058 l 133 1053 q 195 1138 151 1103 q 279 1172 239 1172 m 356 1006 l 567 844 l 542 806 l 351 906 l 349 906 l 154 807 l 131 843 l 354 1006 l 356 1006 m 364 717 q 536 655 481 717 q 590 460 592 593 l 589 147 q 583 53 589 103 l 682 58 l 682 0 l 483 0 q 474 79 479 21 q 256 -22 372 -22 q 101 24 154 -22 q 47 143 47 69 q 112 279 47 224 q 274 362 176 335 q 471 388 372 389 l 471 474 q 444 615 471 564 q 332 665 418 665 q 250 647 289 665 q 193 593 211 629 q 211 540 211 574 q 196 501 211 519 q 151 482 181 482 q 106 501 122 482 q 89 550 89 519 q 124 634 89 596 q 223 694 160 672 q 364 717 286 717 m 471 340 q 268 294 357 336 q 179 164 179 251 q 210 85 179 113 q 288 57 240 57 q 383 77 340 57 q 471 139 426 97 q 469 210 469 160 l 471 340 z "},"ä":{"ha":717,"x_min":47,"x_max":682,"o":"m 224 1011 q 272 987 253 1011 q 292 928 292 963 q 271 870 292 894 q 222 846 250 846 q 174 869 194 846 q 153 928 153 893 q 174 987 153 963 q 224 1011 196 1011 m 456 1011 q 504 987 485 1011 q 524 928 524 963 q 503 870 524 894 q 454 846 482 846 q 406 869 426 846 q 385 928 385 893 q 406 987 385 963 q 456 1011 428 1011 m 364 717 q 536 655 481 717 q 590 460 592 593 l 589 147 q 583 53 589 103 l 682 58 l 682 0 l 483 0 q 474 79 479 21 q 256 -22 372 -22 q 101 24 154 -22 q 47 143 47 69 q 112 279 47 224 q 274 362 176 335 q 471 388 372 389 l 471 474 q 444 615 471 564 q 332 665 418 665 q 250 647 289 665 q 193 593 211 629 q 211 540 211 574 q 196 501 211 519 q 151 482 181 482 q 106 501 122 482 q 89 550 89 519 q 124 634 89 596 q 223 694 160 672 q 364 717 286 717 m 471 340 q 268 294 357 336 q 179 164 179 251 q 210 85 179 113 q 288 57 240 57 q 383 77 340 57 q 471 139 426 97 q 469 210 469 160 l 471 340 z "},"ạ":{"ha":717,"x_min":47,"x_max":682,"o":"m 364 717 q 536 655 481 717 q 590 460 592 593 l 589 147 q 583 53 589 103 l 682 58 l 682 0 l 483 0 q 474 79 479 21 q 256 -22 372 -22 q 101 24 154 -22 q 47 143 47 69 q 112 279 47 224 q 274 362 176 335 q 471 388 372 389 l 471 474 q 444 615 471 564 q 332 665 418 665 q 250 647 289 665 q 193 593 211 629 q 211 540 211 574 q 196 501 211 519 q 151 482 181 482 q 106 501 122 482 q 89 550 89 519 q 124 634 89 596 q 223 694 160 672 q 364 717 286 717 m 471 340 q 268 294 357 336 q 179 164 179 251 q 210 85 179 113 q 288 57 240 57 q 383 77 340 57 q 471 139 426 97 q 469 210 469 160 l 471 340 m 360 -108 q 407 -130 388 -108 q 426 -182 426 -151 q 406 -234 426 -212 q 358 -256 385 -256 q 311 -234 331 -256 q 292 -182 292 -212 q 312 -130 292 -151 q 360 -108 332 -108 z "},"à":{"ha":717,"x_min":47,"x_max":682,"o":"m 364 717 q 536 655 481 717 q 590 460 592 593 l 589 147 q 583 53 589 103 l 682 58 l 682 0 l 483 0 q 474 79 479 21 q 256 -22 372 -22 q 101 24 154 -22 q 47 143 47 69 q 112 279 47 224 q 274 362 176 335 q 471 388 372 389 l 471 474 q 444 615 471 564 q 332 665 418 665 q 250 647 289 665 q 193 593 211 629 q 211 540 211 574 q 196 501 211 519 q 151 482 181 482 q 106 501 122 482 q 89 550 89 519 q 124 634 89 596 q 223 694 160 672 q 364 717 286 717 m 471 340 q 268 294 357 336 q 179 164 179 251 q 210 85 179 113 q 288 57 240 57 q 383 77 340 57 q 471 139 426 97 q 469 210 469 160 l 471 340 m 254 1097 q 288 1108 271 1108 q 344 1071 318 1108 l 461 883 l 422 851 l 267 999 q 238 1058 238 1029 q 254 1097 238 1081 z "},"ả":{"ha":717,"x_min":47,"x_max":682,"o":"m 364 717 q 536 655 481 717 q 590 460 592 593 l 589 147 q 583 53 589 103 l 682 58 l 682 0 l 483 0 q 474 79 479 21 q 256 -22 372 -22 q 101 24 154 -22 q 47 143 47 69 q 112 279 47 224 q 274 362 176 335 q 471 388 372 389 l 471 474 q 444 615 471 564 q 332 665 418 665 q 250 647 289 665 q 193 593 211 629 q 211 540 211 574 q 196 501 211 519 q 151 482 181 482 q 106 501 122 482 q 89 550 89 519 q 124 634 89 596 q 223 694 160 672 q 364 717 286 717 m 471 340 q 268 294 357 336 q 179 164 179 251 q 210 85 179 113 q 288 57 240 57 q 383 77 340 57 q 471 139 426 97 q 469 210 469 160 l 471 340 m 331 1085 q 442 1052 401 1085 q 483 957 483 1019 q 465 908 483 926 q 414 871 447 890 q 383 851 392 858 q 374 832 374 843 l 326 832 q 334 856 326 847 q 358 876 342 865 q 392 907 381 890 q 404 957 404 924 q 332 1035 404 1035 q 289 1022 308 1035 q 267 993 269 1008 q 275 971 275 982 q 262 949 275 957 q 232 940 249 940 q 186 988 186 940 q 225 1056 186 1026 q 331 1085 264 1085 z "},"ā":{"ha":717,"x_min":47,"x_max":682,"o":"m 364 717 q 536 655 481 717 q 590 460 592 593 l 589 147 q 583 53 589 103 l 682 58 l 682 0 l 483 0 q 474 79 479 21 q 256 -22 372 -22 q 101 24 154 -22 q 47 143 47 69 q 112 279 47 224 q 274 362 176 335 q 471 388 372 389 l 471 474 q 444 615 471 564 q 332 665 418 665 q 250 647 289 665 q 193 593 211 629 q 211 540 211 574 q 196 501 211 519 q 151 482 181 482 q 106 501 122 482 q 89 550 89 519 q 124 634 89 596 q 223 694 160 672 q 364 717 286 717 m 471 340 q 268 294 357 336 q 179 164 179 251 q 210 85 179 113 q 288 57 240 57 q 383 77 340 57 q 471 139 426 97 q 469 210 469 160 l 471 340 m 532 1018 l 532 940 l 164 935 l 164 1018 l 532 1018 z "},"ą":{"ha":717,"x_min":47,"x_max":682,"o":"m 635 0 q 515 -76 561 -29 q 469 -183 469 -122 q 494 -253 469 -226 q 556 -279 519 -279 q 646 -240 600 -279 l 669 -265 q 596 -327 640 -301 q 504 -353 551 -353 q 397 -313 438 -353 q 357 -211 357 -274 q 408 -94 357 -149 q 540 0 460 -39 l 483 0 q 474 79 479 21 q 256 -22 372 -22 q 101 24 154 -22 q 47 143 47 69 q 112 279 47 224 q 274 362 176 335 q 471 388 372 389 l 471 474 q 444 615 471 564 q 332 665 418 665 q 250 647 289 665 q 193 593 211 629 q 211 540 211 574 q 196 501 211 519 q 151 482 181 482 q 106 501 122 482 q 89 550 89 519 q 124 634 89 596 q 223 694 160 672 q 364 717 286 717 q 536 655 481 717 q 590 460 592 593 l 589 147 q 583 53 589 103 l 682 58 l 682 0 l 635 0 m 471 139 q 469 210 469 160 l 471 340 q 268 294 357 336 q 179 164 179 251 q 210 85 179 113 q 288 57 240 57 q 383 77 340 57 q 471 139 426 97 z "},"å":{"ha":717,"x_min":47,"x_max":682,"o":"m 364 717 q 536 655 481 717 q 590 460 592 593 l 589 147 q 583 53 589 103 l 682 58 l 682 0 l 483 0 q 474 79 479 21 q 256 -22 372 -22 q 101 24 154 -22 q 47 143 47 69 q 112 279 47 224 q 274 362 176 335 q 471 388 372 389 l 471 474 q 444 615 471 564 q 332 665 418 665 q 250 647 289 665 q 193 593 211 629 q 211 540 211 574 q 196 501 211 519 q 151 482 181 482 q 106 501 122 482 q 89 550 89 519 q 124 634 89 596 q 223 694 160 672 q 364 717 286 717 m 471 340 q 268 294 357 336 q 179 164 179 251 q 210 85 179 113 q 288 57 240 57 q 383 77 340 57 q 471 139 426 97 q 469 210 469 160 l 471 340 m 347 1103 q 444 1069 403 1103 q 485 972 485 1036 q 443 876 485 914 q 350 838 401 838 q 253 871 294 838 q 213 968 213 904 q 253 1065 213 1026 q 347 1103 294 1103 m 349 1060 q 303 1037 321 1060 q 286 976 286 1014 q 304 908 286 935 q 353 881 322 881 q 394 903 378 881 q 411 963 411 925 q 394 1033 411 1007 q 349 1060 378 1060 z "},"ã":{"ha":717,"x_min":47,"x_max":682,"o":"m 364 717 q 536 655 481 717 q 590 460 592 593 l 589 147 q 583 53 589 103 l 682 58 l 682 0 l 483 0 q 474 79 479 21 q 256 -22 372 -22 q 101 24 154 -22 q 47 143 47 69 q 112 279 47 224 q 274 362 176 335 q 471 388 372 389 l 471 474 q 444 615 471 564 q 332 665 418 665 q 250 647 289 665 q 193 593 211 629 q 211 540 211 574 q 196 501 211 519 q 151 482 181 482 q 106 501 122 482 q 89 550 89 519 q 124 634 89 596 q 223 694 160 672 q 364 717 286 717 m 471 340 q 268 294 357 336 q 179 164 179 251 q 210 85 179 113 q 288 57 240 57 q 383 77 340 57 q 471 139 426 97 q 469 210 469 160 l 471 340 m 261 1056 q 315 1044 292 1056 q 367 1014 338 1033 q 406 990 389 997 q 440 982 422 982 q 498 1000 471 982 q 542 1049 525 1018 l 582 1028 q 521 930 561 964 q 440 896 481 896 q 383 907 408 896 q 325 940 358 918 q 288 963 303 956 q 258 971 274 971 q 203 956 231 971 q 157 913 175 942 l 115 936 q 177 1021 133 986 q 261 1056 221 1056 z "},"æ":{"ha":1079,"x_min":47,"x_max":1022,"o":"m 768 717 q 947 642 881 717 q 1014 410 1013 568 l 590 401 q 589 350 589 383 q 647 128 589 208 q 796 49 704 49 q 988 164 907 49 l 1022 136 q 763 -22 917 -22 q 515 110 588 -22 l 514 110 q 250 -22 418 -22 q 102 23 157 -22 q 47 139 47 68 q 111 275 47 219 q 272 357 175 331 q 467 382 368 383 l 467 467 q 440 613 467 560 q 329 665 414 665 q 244 643 283 665 q 192 583 206 621 q 205 562 200 576 q 210 538 210 547 q 195 499 210 518 q 153 479 181 479 q 108 497 125 479 q 92 546 92 514 q 124 628 92 589 q 215 692 156 667 q 350 717 274 717 q 467 685 418 717 q 542 597 517 654 q 640 685 582 653 q 768 717 697 717 m 763 663 q 600 460 624 663 l 889 460 q 863 606 889 550 q 763 663 836 663 m 465 335 q 265 288 351 329 q 179 160 179 246 q 208 85 179 111 q 276 57 238 60 q 479 149 392 49 q 465 335 467 256 z "},"b":{"ha":808,"x_min":11,"x_max":750,"o":"m 225 635 q 317 695 264 674 q 435 717 371 717 q 596 674 524 717 q 709 550 668 631 q 750 364 750 469 q 700 161 750 249 q 567 26 650 74 q 389 -22 483 -22 q 279 -3 333 -22 q 185 63 225 17 l 151 0 l 103 0 l 106 868 q 110 958 106 921 l 11 953 l 11 1011 q 130 1021 94 1011 q 185 1049 165 1031 l 225 1049 l 225 635 m 393 649 q 302 627 347 649 q 225 569 257 606 l 225 218 q 389 35 225 35 q 548 116 489 35 q 607 329 607 197 q 553 562 607 475 q 393 649 499 649 z "},"c":{"ha":739,"x_min":57,"x_max":692,"o":"m 419 717 q 553 693 494 717 q 644 631 611 669 q 676 546 676 592 q 658 493 676 514 q 608 472 640 472 q 563 492 578 472 q 547 535 547 513 q 568 590 547 569 q 509 649 553 633 q 422 665 465 665 q 308 631 358 665 q 228 529 257 596 q 199 369 199 463 q 228 204 199 276 q 313 91 258 132 q 438 50 367 50 q 560 84 500 50 q 656 169 621 118 l 692 142 q 559 19 640 61 q 400 -22 478 -22 q 227 21 306 -22 q 103 144 149 64 q 57 335 57 225 q 103 520 57 432 q 233 663 150 608 q 419 717 315 717 z "},"ć":{"ha":739,"x_min":57,"x_max":692,"o":"m 419 717 q 553 693 494 717 q 644 631 611 669 q 676 546 676 592 q 658 493 676 514 q 608 472 640 472 q 563 492 578 472 q 547 535 547 513 q 568 590 547 569 q 509 649 553 633 q 422 665 465 665 q 308 631 358 665 q 228 529 257 596 q 199 369 199 463 q 228 204 199 276 q 313 91 258 132 q 438 50 367 50 q 560 84 500 50 q 656 169 621 118 l 692 142 q 559 19 640 61 q 400 -22 478 -22 q 227 21 306 -22 q 103 144 149 64 q 57 335 57 225 q 103 520 57 432 q 233 663 150 608 q 419 717 315 717 m 501 1051 q 518 1013 518 1035 q 489 953 518 983 l 333 806 l 294 838 l 411 1025 q 468 1063 438 1063 q 501 1051 485 1063 z "},"č":{"ha":739,"x_min":57,"x_max":692,"o":"m 419 717 q 553 693 494 717 q 644 631 611 669 q 676 546 676 592 q 658 493 676 514 q 608 472 640 472 q 563 492 578 472 q 547 535 547 513 q 568 590 547 569 q 509 649 553 633 q 422 665 465 665 q 308 631 358 665 q 228 529 257 596 q 199 369 199 463 q 228 204 199 276 q 313 91 258 132 q 438 50 367 50 q 560 84 500 50 q 656 169 621 118 l 692 142 q 559 19 640 61 q 400 -22 478 -22 q 227 21 306 -22 q 103 144 149 64 q 57 335 57 225 q 103 520 57 432 q 233 663 150 608 q 419 717 315 717 m 586 1069 l 621 1029 l 400 796 l 397 796 l 190 1022 l 228 1067 l 404 915 l 407 915 l 586 1069 z "},"ç":{"ha":739,"x_min":57,"x_max":692,"o":"m 692 142 q 586 35 649 75 q 456 -17 524 -4 l 428 -103 q 522 -79 468 -79 q 590 -104 565 -79 q 615 -171 615 -129 q 532 -282 615 -244 q 343 -335 449 -319 l 335 -289 q 456 -248 411 -275 q 501 -182 501 -221 q 457 -140 501 -140 q 394 -161 425 -140 l 347 -139 l 379 -22 q 216 27 289 -17 q 100 150 143 71 q 57 335 57 229 q 103 520 57 432 q 233 663 150 608 q 419 717 315 717 q 553 693 494 717 q 644 631 611 669 q 676 546 676 592 q 658 493 676 514 q 608 472 640 472 q 563 492 578 472 q 547 535 547 513 q 568 590 547 569 q 509 649 553 633 q 422 665 465 665 q 308 631 358 665 q 228 529 257 596 q 199 369 199 463 q 228 204 199 276 q 313 91 258 132 q 438 50 367 50 q 560 84 500 50 q 656 169 621 118 l 692 142 z "},"ĉ":{"ha":739,"x_min":57,"x_max":692,"o":"m 419 717 q 553 693 494 717 q 644 631 611 669 q 676 546 676 592 q 658 493 676 514 q 608 472 640 472 q 563 492 578 472 q 547 535 547 513 q 568 590 547 569 q 509 649 553 633 q 422 665 465 665 q 308 631 358 665 q 228 529 257 596 q 199 369 199 463 q 228 204 199 276 q 313 91 258 132 q 438 50 367 50 q 560 84 500 50 q 656 169 621 118 l 692 142 q 559 19 640 61 q 400 -22 478 -22 q 227 21 306 -22 q 103 144 149 64 q 57 335 57 225 q 103 520 57 432 q 233 663 150 608 q 419 717 315 717 m 414 1081 l 621 854 l 583 810 l 407 961 l 404 961 l 225 819 l 190 860 l 411 1081 l 414 1081 z "},"d":{"ha":831,"x_min":58,"x_max":789,"o":"m 696 147 q 690 53 696 103 l 789 58 l 789 0 l 590 0 q 581 72 583 38 q 483 3 540 28 q 358 -22 425 -22 q 204 21 272 -22 q 97 143 136 64 q 58 328 58 222 q 104 528 58 439 q 231 667 150 617 q 415 717 313 717 q 503 705 458 717 q 578 678 549 693 l 578 868 q 582 958 578 921 l 483 953 l 483 1011 q 601 1021 565 1011 q 656 1049 636 1031 l 696 1049 l 696 147 m 424 663 q 263 580 324 663 q 201 361 201 497 q 256 133 201 219 q 408 46 310 46 q 499 72 453 46 q 578 138 546 97 q 576 214 576 160 l 578 614 q 424 663 513 663 z "},"ð":{"ha":776,"x_min":60,"x_max":697,"o":"m 444 1064 l 383 986 q 614 736 531 901 q 697 374 697 571 q 613 88 697 199 q 360 -22 528 -22 q 208 18 276 -22 q 99 133 139 58 q 60 308 60 208 q 97 497 60 410 q 205 637 135 585 q 368 689 275 689 q 478 667 425 689 q 560 597 531 644 l 563 597 q 482 781 539 690 q 338 929 425 872 l 253 822 l 203 864 l 283 960 q 143 997 215 992 l 149 1056 q 329 1013 242 1050 l 404 1101 l 444 1064 m 386 632 q 249 547 299 632 q 199 338 199 463 q 250 114 199 194 q 382 33 301 33 q 478 67 435 33 q 548 165 522 100 q 574 324 574 231 q 528 538 574 443 q 386 632 483 632 z "},"ď":{"ha":921,"x_min":58,"x_max":935,"o":"m 918 1058 q 935 997 935 1024 q 903 880 935 939 q 819 769 871 821 l 783 797 q 835 982 835 896 q 822 1076 835 1031 l 918 1058 m 696 147 q 690 53 696 103 l 789 58 l 789 0 l 590 0 q 581 72 583 38 q 483 3 540 28 q 358 -22 425 -22 q 204 21 272 -22 q 97 143 136 64 q 58 328 58 222 q 104 528 58 439 q 231 667 150 617 q 415 717 313 717 q 503 705 458 717 q 578 678 549 693 l 578 868 q 582 958 578 921 l 483 953 l 483 1011 q 601 1021 565 1011 q 656 1049 636 1031 l 696 1049 l 696 147 m 424 663 q 263 580 324 663 q 201 361 201 497 q 256 133 201 219 q 408 46 310 46 q 499 72 453 46 q 578 138 546 97 q 576 214 576 160 l 578 614 q 424 663 513 663 z "},"đ":{"ha":831,"x_min":58,"x_max":804,"o":"m 696 147 q 690 53 696 103 l 789 58 l 789 0 l 590 0 q 581 72 583 38 q 483 3 540 28 q 358 -22 425 -22 q 204 21 272 -22 q 97 143 136 64 q 58 328 58 222 q 104 528 58 439 q 231 667 150 617 q 415 717 313 717 q 503 705 458 717 q 578 678 549 693 l 578 811 l 354 810 l 354 872 l 578 872 q 582 958 578 922 l 483 953 l 483 1011 q 601 1021 565 1011 q 656 1049 636 1031 l 696 1049 l 696 872 l 804 872 l 804 814 l 696 813 l 696 147 m 578 138 q 576 214 576 160 l 578 614 q 424 663 513 663 q 263 580 324 663 q 201 361 201 497 q 256 133 201 219 q 408 46 310 46 q 499 72 453 46 q 578 138 546 97 z "},"e":{"ha":753,"x_min":58,"x_max":699,"o":"m 408 717 q 551 682 488 717 q 653 578 615 647 q 690 410 690 510 l 201 401 q 256 142 200 235 q 431 49 313 49 q 562 82 494 49 q 665 164 629 115 l 699 136 q 562 17 646 56 q 397 -22 478 -22 q 224 23 301 -22 q 103 152 147 68 q 58 346 58 236 q 103 528 58 443 q 227 665 147 614 q 408 717 307 717 m 410 663 q 206 460 238 663 l 560 460 q 522 603 560 543 q 410 663 485 663 z "},"é":{"ha":753,"x_min":58,"x_max":699,"o":"m 483 1051 q 500 1013 500 1035 q 471 953 500 983 l 315 806 l 276 838 l 393 1025 q 450 1063 419 1063 q 483 1051 467 1063 m 408 717 q 551 682 488 717 q 653 578 615 647 q 690 410 690 510 l 201 401 q 256 142 200 235 q 431 49 313 49 q 562 82 494 49 q 665 164 629 115 l 699 136 q 562 17 646 56 q 397 -22 478 -22 q 224 23 301 -22 q 103 152 147 68 q 58 346 58 236 q 103 528 58 443 q 227 665 147 614 q 408 717 307 717 m 410 663 q 206 460 238 663 l 560 460 q 522 603 560 543 q 410 663 485 663 z "},"ě":{"ha":753,"x_min":58,"x_max":699,"o":"m 408 717 q 551 682 488 717 q 653 578 615 647 q 690 410 690 510 l 201 401 q 256 142 200 235 q 431 49 313 49 q 562 82 494 49 q 665 164 629 115 l 699 136 q 562 17 646 56 q 397 -22 478 -22 q 224 23 301 -22 q 103 152 147 68 q 58 346 58 236 q 103 528 58 443 q 227 665 147 614 q 408 717 307 717 m 410 663 q 206 460 238 663 l 560 460 q 522 603 560 543 q 410 663 485 663 m 569 1069 l 604 1029 l 383 796 l 381 796 l 174 1022 l 211 1067 l 388 915 l 390 915 l 569 1069 z "},"ê":{"ha":753,"x_min":58,"x_max":699,"o":"m 408 717 q 551 682 488 717 q 653 578 615 647 q 690 410 690 510 l 201 401 q 256 142 200 235 q 431 49 313 49 q 562 82 494 49 q 665 164 629 115 l 699 136 q 562 17 646 56 q 397 -22 478 -22 q 224 23 301 -22 q 103 152 147 68 q 58 346 58 236 q 103 528 58 443 q 227 665 147 614 q 408 717 307 717 m 410 663 q 206 460 238 663 l 560 460 q 522 603 560 543 q 410 663 485 663 m 397 1081 l 604 854 l 567 810 l 390 961 l 388 961 l 208 819 l 174 860 l 394 1081 l 397 1081 z "},"ế":{"ha":753,"x_min":58,"x_max":783,"o":"m 767 1113 q 783 1074 783 1096 q 754 1014 783 1044 l 599 867 l 560 899 l 676 1086 q 733 1124 703 1124 q 767 1113 750 1124 m 396 960 l 607 799 l 582 760 l 392 860 l 389 860 l 194 761 l 171 797 l 394 960 l 396 960 m 408 717 q 551 682 488 717 q 653 578 615 647 q 690 410 690 510 l 201 401 q 256 142 200 235 q 431 49 313 49 q 562 82 494 49 q 665 164 629 115 l 699 136 q 562 17 646 56 q 397 -22 478 -22 q 224 23 301 -22 q 103 152 147 68 q 58 346 58 236 q 103 528 58 443 q 227 665 147 614 q 408 717 307 717 m 410 663 q 206 460 238 663 l 560 460 q 522 603 560 543 q 410 663 485 663 z "},"ệ":{"ha":753,"x_min":58,"x_max":699,"o":"m 408 717 q 551 682 488 717 q 653 578 615 647 q 690 410 690 510 l 201 401 q 256 142 200 235 q 431 49 313 49 q 562 82 494 49 q 665 164 629 115 l 699 136 q 562 17 646 56 q 397 -22 478 -22 q 224 23 301 -22 q 103 152 147 68 q 58 346 58 236 q 103 528 58 443 q 227 665 147 614 q 408 717 307 717 m 410 663 q 206 460 238 663 l 560 460 q 522 603 560 543 q 410 663 485 663 m 453 -108 q 500 -130 481 -108 q 519 -182 519 -151 q 499 -234 519 -212 q 451 -256 478 -256 q 404 -234 424 -256 q 385 -182 385 -212 q 405 -130 385 -151 q 453 -108 425 -108 m 397 1081 l 604 854 l 567 810 l 390 961 l 388 961 l 208 819 l 174 860 l 394 1081 l 397 1081 z "},"ề":{"ha":753,"x_min":58,"x_max":699,"o":"m 392 1160 q 425 1171 408 1171 q 482 1133 456 1171 l 599 946 l 560 914 l 404 1061 q 375 1121 375 1092 q 392 1160 375 1143 m 396 960 l 607 799 l 582 760 l 392 860 l 389 860 l 194 761 l 171 797 l 394 960 l 396 960 m 408 717 q 551 682 488 717 q 653 578 615 647 q 690 410 690 510 l 201 401 q 256 142 200 235 q 431 49 313 49 q 562 82 494 49 q 665 164 629 115 l 699 136 q 562 17 646 56 q 397 -22 478 -22 q 224 23 301 -22 q 103 152 147 68 q 58 346 58 236 q 103 528 58 443 q 227 665 147 614 q 408 717 307 717 m 410 663 q 206 460 238 663 l 560 460 q 522 603 560 543 q 410 663 485 663 z "},"ể":{"ha":753,"x_min":58,"x_max":724,"o":"m 571 1147 q 683 1115 642 1147 q 724 1019 724 1082 q 706 971 724 989 q 654 933 688 953 q 623 913 632 921 q 614 894 614 906 l 567 894 q 574 919 567 910 q 599 939 582 928 q 633 970 621 954 q 644 1019 644 986 q 572 1097 644 1097 q 529 1084 549 1097 q 507 1056 510 1071 q 515 1033 515 1044 q 502 1011 515 1019 q 472 1003 489 1003 q 426 1050 426 1003 q 465 1118 426 1089 q 571 1147 504 1147 m 396 960 l 607 799 l 582 760 l 392 860 l 389 860 l 194 761 l 171 797 l 394 960 l 396 960 m 408 717 q 551 682 488 717 q 653 578 615 647 q 690 410 690 510 l 201 401 q 256 142 200 235 q 431 49 313 49 q 562 82 494 49 q 665 164 629 115 l 699 136 q 562 17 646 56 q 397 -22 478 -22 q 224 23 301 -22 q 103 152 147 68 q 58 346 58 236 q 103 528 58 443 q 227 665 147 614 q 408 717 307 717 m 410 663 q 206 460 238 663 l 560 460 q 522 603 560 543 q 410 663 485 663 z "},"ễ":{"ha":753,"x_min":58,"x_max":699,"o":"m 319 1126 q 373 1115 350 1126 q 425 1085 396 1104 q 464 1060 447 1068 q 499 1053 481 1053 q 556 1071 529 1053 q 600 1119 583 1089 l 640 1099 q 579 1001 619 1035 q 499 967 539 967 q 442 978 467 967 q 383 1011 417 989 q 347 1034 361 1026 q 317 1042 332 1042 q 261 1027 289 1042 q 215 983 233 1013 l 174 1007 q 235 1092 192 1057 q 319 1126 279 1126 m 396 960 l 607 799 l 582 760 l 392 860 l 389 860 l 194 761 l 171 797 l 394 960 l 396 960 m 408 717 q 551 682 488 717 q 653 578 615 647 q 690 410 690 510 l 201 401 q 256 142 200 235 q 431 49 313 49 q 562 82 494 49 q 665 164 629 115 l 699 136 q 562 17 646 56 q 397 -22 478 -22 q 224 23 301 -22 q 103 152 147 68 q 58 346 58 236 q 103 528 58 443 q 227 665 147 614 q 408 717 307 717 m 410 663 q 206 460 238 663 l 560 460 q 522 603 560 543 q 410 663 485 663 z "},"ë":{"ha":753,"x_min":58,"x_max":699,"o":"m 279 1011 q 328 987 308 1011 q 347 928 347 963 q 326 870 347 894 q 278 846 306 846 q 229 869 250 846 q 208 928 208 893 q 230 987 208 963 q 279 1011 251 1011 m 511 1011 q 560 987 540 1011 q 579 928 579 963 q 558 870 579 894 q 510 846 538 846 q 461 869 482 846 q 440 928 440 893 q 462 987 440 963 q 511 1011 483 1011 m 408 717 q 551 682 488 717 q 653 578 615 647 q 690 410 690 510 l 201 401 q 256 142 200 235 q 431 49 313 49 q 562 82 494 49 q 665 164 629 115 l 699 136 q 562 17 646 56 q 397 -22 478 -22 q 224 23 301 -22 q 103 152 147 68 q 58 346 58 236 q 103 528 58 443 q 227 665 147 614 q 408 717 307 717 m 410 663 q 206 460 238 663 l 560 460 q 522 603 560 543 q 410 663 485 663 z "},"ė":{"ha":753,"x_min":58,"x_max":699,"o":"m 408 717 q 551 682 488 717 q 653 578 615 647 q 690 410 690 510 l 201 401 q 256 142 200 235 q 431 49 313 49 q 562 82 494 49 q 665 164 629 115 l 699 136 q 562 17 646 56 q 397 -22 478 -22 q 224 23 301 -22 q 103 152 147 68 q 58 346 58 236 q 103 528 58 443 q 227 665 147 614 q 408 717 307 717 m 410 663 q 206 460 238 663 l 560 460 q 522 603 560 543 q 410 663 485 663 m 390 1011 q 444 987 422 1011 q 465 928 465 963 q 442 870 465 894 q 389 846 419 846 q 338 870 360 846 q 315 928 315 894 q 338 986 315 961 q 390 1011 361 1011 z "},"ẹ":{"ha":753,"x_min":58,"x_max":699,"o":"m 408 717 q 551 682 488 717 q 653 578 615 647 q 690 410 690 510 l 201 401 q 256 142 200 235 q 431 49 313 49 q 562 82 494 49 q 665 164 629 115 l 699 136 q 562 17 646 56 q 397 -22 478 -22 q 224 23 301 -22 q 103 152 147 68 q 58 346 58 236 q 103 528 58 443 q 227 665 147 614 q 408 717 307 717 m 410 663 q 206 460 238 663 l 560 460 q 522 603 560 543 q 410 663 485 663 m 453 -108 q 500 -130 481 -108 q 519 -182 519 -151 q 499 -234 519 -212 q 451 -256 478 -256 q 404 -234 424 -256 q 385 -182 385 -212 q 405 -130 385 -151 q 453 -108 425 -108 z "},"è":{"ha":753,"x_min":58,"x_max":699,"o":"m 408 717 q 551 682 488 717 q 653 578 615 647 q 690 410 690 510 l 201 401 q 256 142 200 235 q 431 49 313 49 q 562 82 494 49 q 665 164 629 115 l 699 136 q 562 17 646 56 q 397 -22 478 -22 q 224 23 301 -22 q 103 152 147 68 q 58 346 58 236 q 103 528 58 443 q 227 665 147 614 q 408 717 307 717 m 410 663 q 206 460 238 663 l 560 460 q 522 603 560 543 q 410 663 485 663 m 294 1051 q 328 1063 311 1063 q 385 1025 358 1063 l 501 838 l 463 806 l 307 953 q 278 1013 278 983 q 294 1051 278 1035 z "},"ẻ":{"ha":753,"x_min":58,"x_max":699,"o":"m 408 717 q 551 682 488 717 q 653 578 615 647 q 690 410 690 510 l 201 401 q 256 142 200 235 q 431 49 313 49 q 562 82 494 49 q 665 164 629 115 l 699 136 q 562 17 646 56 q 397 -22 478 -22 q 224 23 301 -22 q 103 152 147 68 q 58 346 58 236 q 103 528 58 443 q 227 665 147 614 q 408 717 307 717 m 410 663 q 206 460 238 663 l 560 460 q 522 603 560 543 q 410 663 485 663 m 371 1039 q 483 1006 442 1039 q 524 911 524 974 q 506 863 524 881 q 454 825 488 844 q 423 805 432 813 q 414 786 414 797 l 367 786 q 374 810 367 801 q 399 831 382 819 q 433 861 421 844 q 444 911 444 878 q 372 989 444 989 q 329 976 349 989 q 307 947 310 963 q 315 925 315 936 q 302 903 315 911 q 272 894 289 894 q 226 942 226 894 q 265 1010 226 981 q 371 1039 304 1039 z "},"ē":{"ha":753,"x_min":58,"x_max":699,"o":"m 408 717 q 551 682 488 717 q 653 578 615 647 q 690 410 690 510 l 201 401 q 256 142 200 235 q 431 49 313 49 q 562 82 494 49 q 665 164 629 115 l 699 136 q 562 17 646 56 q 397 -22 478 -22 q 224 23 301 -22 q 103 152 147 68 q 58 346 58 236 q 103 528 58 443 q 227 665 147 614 q 408 717 307 717 m 410 663 q 206 460 238 663 l 560 460 q 522 603 560 543 q 410 663 485 663 m 572 972 l 572 894 l 204 889 l 204 972 l 572 972 z "},"ę":{"ha":753,"x_min":58,"x_max":699,"o":"m 542 7 q 410 -69 461 -21 q 358 -183 358 -118 q 383 -253 358 -226 q 444 -279 408 -279 q 535 -240 489 -279 l 558 -265 q 485 -327 529 -301 q 393 -353 440 -353 q 286 -313 326 -353 q 246 -211 246 -274 q 285 -109 246 -157 q 389 -22 324 -61 q 220 26 296 -21 q 101 155 144 72 q 58 346 58 238 q 103 528 58 443 q 227 665 147 614 q 408 717 307 717 q 551 682 488 717 q 653 578 615 647 q 690 410 690 510 l 201 401 q 256 142 200 235 q 431 49 313 49 q 562 82 494 49 q 665 164 629 115 l 699 136 q 542 8 642 51 l 542 7 m 410 663 q 206 460 238 663 l 560 460 q 522 603 560 543 q 410 663 485 663 z "},"ẽ":{"ha":753,"x_min":58,"x_max":699,"o":"m 408 717 q 551 682 488 717 q 653 578 615 647 q 690 410 690 510 l 201 401 q 256 142 200 235 q 431 49 313 49 q 562 82 494 49 q 665 164 629 115 l 699 136 q 562 17 646 56 q 397 -22 478 -22 q 224 23 301 -22 q 103 152 147 68 q 58 346 58 236 q 103 528 58 443 q 227 665 147 614 q 408 717 307 717 m 410 663 q 206 460 238 663 l 560 460 q 522 603 560 543 q 410 663 485 663 m 301 1010 q 355 999 332 1010 q 407 968 378 988 q 446 944 429 951 q 481 936 463 936 q 538 954 511 936 q 582 1003 565 972 l 622 982 q 561 884 601 918 q 481 850 521 850 q 424 861 449 850 q 365 894 399 872 q 328 917 343 910 q 299 925 314 925 q 243 910 271 925 q 197 867 215 896 l 156 890 q 217 975 174 940 q 301 1010 261 1010 z "},"f":{"ha":469,"x_min":35,"x_max":547,"o":"m 399 1056 q 499 1029 451 1056 q 547 953 547 1003 q 531 908 547 925 q 488 890 515 890 q 445 909 460 890 q 431 947 431 928 q 438 982 431 967 q 411 999 428 993 q 378 1006 394 1006 q 293 958 318 1006 q 268 840 268 910 l 268 694 l 456 694 l 456 640 l 268 636 l 269 147 q 264 53 269 85 l 351 57 l 351 0 l 68 0 l 68 42 q 126 62 108 42 q 147 113 143 82 q 150 211 150 144 l 149 635 l 35 632 l 35 694 l 149 694 l 149 724 q 208 970 149 885 q 399 1056 267 1056 z "},"g":{"ha":768,"x_min":49,"x_max":790,"o":"m 717 800 q 771 781 751 800 q 790 731 790 763 q 776 692 790 711 q 733 674 761 674 q 693 688 710 674 q 672 722 676 701 q 619 692 639 718 q 592 631 600 667 q 646 556 626 599 q 665 465 665 513 q 625 328 665 389 q 517 232 585 267 q 372 197 450 197 q 326 200 354 197 q 279 204 306 204 q 202 184 233 204 q 171 135 171 164 q 222 81 171 94 q 394 64 272 68 q 651 9 565 56 q 736 -144 736 -37 q 687 -268 736 -215 q 559 -349 638 -321 q 396 -376 481 -376 q 199 -350 276 -376 q 85 -281 121 -324 q 49 -189 49 -237 q 88 -87 49 -131 q 176 -22 126 -43 q 105 19 129 -7 q 81 88 81 46 q 120 179 81 138 q 219 231 160 221 q 117 316 154 261 q 79 442 79 371 q 122 585 79 522 q 231 682 164 647 q 372 717 299 717 q 549 665 467 717 q 616 763 569 725 q 717 800 663 800 m 369 668 q 254 613 296 668 q 213 472 213 558 q 256 309 213 371 q 376 247 300 247 q 491 300 451 247 q 531 438 531 353 q 488 601 531 535 q 369 668 446 668 m 238 -35 q 179 -96 200 -60 q 158 -172 158 -132 q 223 -281 158 -240 q 394 -322 288 -322 q 528 -302 471 -322 q 617 -248 586 -282 q 647 -174 647 -214 q 580 -76 647 -103 q 381 -46 513 -50 q 238 -35 293 -43 z "},"ğ":{"ha":768,"x_min":49,"x_max":790,"o":"m 717 800 q 771 781 751 800 q 790 731 790 763 q 776 692 790 711 q 733 674 761 674 q 693 688 710 674 q 672 722 676 701 q 619 692 639 718 q 592 631 600 667 q 646 556 626 599 q 665 465 665 513 q 625 328 665 389 q 517 232 585 267 q 372 197 450 197 q 326 200 354 197 q 279 204 306 204 q 202 184 233 204 q 171 135 171 164 q 222 81 171 94 q 394 64 272 68 q 651 9 565 56 q 736 -144 736 -37 q 687 -268 736 -215 q 559 -349 638 -321 q 396 -376 481 -376 q 199 -350 276 -376 q 85 -281 121 -324 q 49 -189 49 -237 q 88 -87 49 -131 q 176 -22 126 -43 q 105 19 129 -7 q 81 88 81 46 q 120 179 81 138 q 219 231 160 221 q 117 316 154 261 q 79 442 79 371 q 122 585 79 522 q 231 682 164 647 q 372 717 299 717 q 549 665 467 717 q 616 763 569 725 q 717 800 663 800 m 369 668 q 254 613 296 668 q 213 472 213 558 q 256 309 213 371 q 376 247 300 247 q 491 300 451 247 q 531 438 531 353 q 488 601 531 535 q 369 668 446 668 m 238 -35 q 179 -96 200 -60 q 158 -172 158 -132 q 223 -281 158 -240 q 394 -322 288 -322 q 528 -302 471 -322 q 617 -248 586 -282 q 647 -174 647 -214 q 580 -76 647 -103 q 381 -46 513 -50 q 238 -35 293 -43 m 556 1007 q 364 839 494 839 q 253 881 306 839 q 176 1000 201 922 l 217 1021 q 281 952 239 981 q 368 924 322 924 q 456 953 414 924 q 518 1024 497 982 l 556 1007 z "},"ĝ":{"ha":768,"x_min":49,"x_max":790,"o":"m 717 800 q 771 781 751 800 q 790 731 790 763 q 776 692 790 711 q 733 674 761 674 q 693 688 710 674 q 672 722 676 701 q 619 692 639 718 q 592 631 600 667 q 646 556 626 599 q 665 465 665 513 q 625 328 665 389 q 517 232 585 267 q 372 197 450 197 q 326 200 354 197 q 279 204 306 204 q 202 184 233 204 q 171 135 171 164 q 222 81 171 94 q 394 64 272 68 q 651 9 565 56 q 736 -144 736 -37 q 687 -268 736 -215 q 559 -349 638 -321 q 396 -376 481 -376 q 199 -350 276 -376 q 85 -281 121 -324 q 49 -189 49 -237 q 88 -87 49 -131 q 176 -22 126 -43 q 105 19 129 -7 q 81 88 81 46 q 120 179 81 138 q 219 231 160 221 q 117 316 154 261 q 79 442 79 371 q 122 585 79 522 q 231 682 164 647 q 372 717 299 717 q 549 665 467 717 q 616 763 569 725 q 717 800 663 800 m 369 668 q 254 613 296 668 q 213 472 213 558 q 256 309 213 371 q 376 247 300 247 q 491 300 451 247 q 531 438 531 353 q 488 601 531 535 q 369 668 446 668 m 238 -35 q 179 -96 200 -60 q 158 -172 158 -132 q 223 -281 158 -240 q 394 -322 288 -322 q 528 -302 471 -322 q 617 -248 586 -282 q 647 -174 647 -214 q 580 -76 647 -103 q 381 -46 513 -50 q 238 -35 293 -43 m 375 1081 l 582 854 l 544 810 l 368 961 l 365 961 l 186 819 l 151 860 l 372 1081 l 375 1081 z "},"ģ":{"ha":768,"x_min":49,"x_max":790,"o":"m 317 788 q 294 876 294 831 q 407 1092 294 979 l 443 1065 q 396 910 396 978 q 413 815 396 864 l 317 788 m 717 800 q 771 781 751 800 q 790 731 790 763 q 776 692 790 711 q 733 674 761 674 q 693 688 710 674 q 672 722 676 701 q 619 692 639 718 q 592 631 600 667 q 646 556 626 599 q 665 465 665 513 q 625 328 665 389 q 517 232 585 267 q 372 197 450 197 q 326 200 354 197 q 279 204 306 204 q 202 184 233 204 q 171 135 171 164 q 222 81 171 94 q 394 64 272 68 q 651 9 565 56 q 736 -144 736 -37 q 687 -268 736 -215 q 559 -349 638 -321 q 396 -376 481 -376 q 199 -350 276 -376 q 85 -281 121 -324 q 49 -189 49 -237 q 88 -87 49 -131 q 176 -22 126 -43 q 105 19 129 -7 q 81 88 81 46 q 120 179 81 138 q 219 231 160 221 q 117 316 154 261 q 79 442 79 371 q 122 585 79 522 q 231 682 164 647 q 372 717 299 717 q 549 665 467 717 q 616 763 569 725 q 717 800 663 800 m 369 668 q 254 613 296 668 q 213 472 213 558 q 256 309 213 371 q 376 247 300 247 q 491 300 451 247 q 531 438 531 353 q 488 601 531 535 q 369 668 446 668 m 238 -35 q 179 -96 200 -60 q 158 -172 158 -132 q 223 -281 158 -240 q 394 -322 288 -322 q 528 -302 471 -322 q 617 -248 586 -282 q 647 -174 647 -214 q 580 -76 647 -103 q 381 -46 513 -50 q 238 -35 293 -43 z "},"h":{"ha":832,"x_min":36,"x_max":790,"o":"m 250 625 q 360 691 299 665 q 478 717 421 717 q 651 642 597 717 q 707 406 706 567 l 708 147 q 703 53 708 85 l 790 57 l 790 0 l 507 0 l 507 42 q 565 62 547 42 q 585 113 582 82 q 589 211 589 144 l 589 406 q 551 584 589 525 q 433 643 514 643 q 331 619 382 643 q 250 557 281 594 l 250 147 q 243 53 250 93 l 331 57 l 331 0 l 47 0 l 47 42 q 106 62 88 42 q 127 114 124 82 q 131 211 131 146 l 131 868 q 135 958 131 921 l 36 953 l 36 1011 q 155 1021 119 1011 q 210 1049 190 1031 l 250 1049 l 250 625 z "},"ĥ":{"ha":832,"x_min":-8,"x_max":790,"o":"m 250 625 q 360 691 299 665 q 478 717 421 717 q 651 642 597 717 q 707 406 706 567 l 708 147 q 703 53 708 85 l 790 57 l 790 0 l 507 0 l 507 42 q 565 62 547 42 q 585 113 582 82 q 589 211 589 144 l 589 406 q 551 584 589 525 q 433 643 514 643 q 331 619 382 643 q 250 557 281 594 l 250 147 q 243 53 250 93 l 331 57 l 331 0 l 47 0 l 47 42 q 106 62 88 42 q 127 114 124 82 q 131 211 131 146 l 131 868 q 135 958 131 921 l 36 953 l 36 1011 q 155 1021 119 1011 q 210 1049 190 1031 l 250 1049 l 250 625 m 215 1363 l 422 1136 l 385 1092 l 208 1243 l 206 1243 l 26 1101 l -8 1142 l 213 1363 l 215 1363 z "},"i":{"ha":390,"x_min":50,"x_max":344,"o":"m 200 1011 q 253 987 232 1011 q 275 928 275 963 q 252 870 275 894 q 199 846 229 846 q 147 870 169 846 q 125 928 125 894 q 148 986 125 961 q 200 1011 171 1011 m 263 147 q 257 53 263 85 l 344 57 l 344 0 l 61 0 l 61 42 q 119 62 101 42 q 140 113 136 82 q 143 211 143 144 l 143 528 q 149 618 143 568 l 50 613 l 50 671 q 167 681 132 671 q 222 708 203 690 l 263 708 l 263 147 z "},"ı":{"ha":390,"x_min":50,"x_max":344,"o":"m 263 147 q 257 53 263 85 l 344 57 l 344 0 l 61 0 l 61 42 q 119 62 101 42 q 140 113 136 82 q 143 211 143 144 l 143 528 q 149 618 143 568 l 50 613 l 50 671 q 167 681 132 671 q 222 708 203 690 l 263 708 l 263 147 z "},"í":{"ha":390,"x_min":50,"x_max":344,"o":"m 290 1051 q 307 1013 307 1035 q 278 953 307 983 l 122 806 l 83 838 l 200 1025 q 257 1063 226 1063 q 290 1051 274 1063 m 263 147 q 257 53 263 85 l 344 57 l 344 0 l 61 0 l 61 42 q 119 62 101 42 q 140 113 136 82 q 143 211 143 144 l 143 528 q 149 618 143 568 l 50 613 l 50 671 q 167 681 132 671 q 222 708 203 690 l 263 708 l 263 147 z "},"î":{"ha":390,"x_min":-8,"x_max":358,"o":"m 182 1081 l 358 854 l 319 815 l 176 949 l 174 949 l 35 819 l -8 860 l 179 1081 l 182 1081 m 263 147 q 257 53 263 85 l 344 57 l 344 0 l 61 0 l 61 42 q 119 62 101 42 q 140 113 136 82 q 143 211 143 144 l 143 528 q 149 618 143 568 l 50 613 l 50 671 q 167 681 132 671 q 222 708 203 690 l 263 708 l 263 147 z "},"ï":{"ha":390,"x_min":25,"x_max":358,"o":"m 96 1011 q 144 987 125 1011 q 164 928 164 963 q 143 870 164 894 q 94 846 122 846 q 46 869 67 846 q 25 928 25 893 q 47 987 25 963 q 96 1011 68 1011 m 290 1011 q 339 987 319 1011 q 358 928 358 963 q 338 870 358 894 q 289 846 317 846 q 240 869 261 846 q 219 928 219 893 q 241 987 219 963 q 290 1011 263 1011 m 263 147 q 257 53 263 85 l 344 57 l 344 0 l 61 0 l 61 42 q 119 62 101 42 q 140 113 136 82 q 143 211 143 144 l 143 528 q 149 618 143 568 l 50 613 l 50 671 q 167 681 132 671 q 222 708 203 690 l 263 708 l 263 147 z "},"ị":{"ha":390,"x_min":50,"x_max":344,"o":"m 200 1011 q 253 987 232 1011 q 275 928 275 963 q 252 870 275 894 q 199 846 229 846 q 147 870 169 846 q 125 928 125 894 q 148 986 125 961 q 200 1011 171 1011 m 263 147 q 257 53 263 85 l 344 57 l 344 0 l 61 0 l 61 42 q 119 62 101 42 q 140 113 136 82 q 143 211 143 144 l 143 528 q 149 618 143 568 l 50 613 l 50 671 q 167 681 132 671 q 222 708 203 690 l 263 708 l 263 147 m 197 -108 q 244 -130 225 -108 q 264 -182 264 -151 q 243 -234 264 -212 q 196 -256 222 -256 q 149 -234 168 -256 q 129 -182 129 -212 q 149 -130 129 -151 q 197 -108 169 -108 z "},"ì":{"ha":390,"x_min":50,"x_max":344,"o":"m 263 147 q 257 53 263 85 l 344 57 l 344 0 l 61 0 l 61 42 q 119 62 101 42 q 140 113 136 82 q 143 211 143 144 l 143 528 q 149 618 143 568 l 50 613 l 50 671 q 167 681 132 671 q 222 708 203 690 l 263 708 l 263 147 m 101 1051 q 135 1063 118 1063 q 192 1025 165 1063 l 308 838 l 269 806 l 114 953 q 85 1013 85 983 q 101 1051 85 1035 z "},"ỉ":{"ha":390,"x_min":33,"x_max":344,"o":"m 263 147 q 257 53 263 85 l 344 57 l 344 0 l 61 0 l 61 42 q 119 62 101 42 q 140 113 136 82 q 143 211 143 144 l 143 528 q 149 618 143 568 l 50 613 l 50 671 q 167 681 132 671 q 222 708 203 690 l 263 708 l 263 147 m 178 1039 q 290 1006 249 1039 q 331 911 331 974 q 313 863 331 881 q 261 825 294 844 q 230 805 239 813 q 221 786 221 797 l 174 786 q 181 810 174 801 q 206 831 189 819 q 240 861 228 844 q 251 911 251 878 q 179 989 251 989 q 136 976 156 989 q 114 947 117 963 q 122 925 122 936 q 109 903 122 911 q 79 894 96 894 q 33 942 33 894 q 72 1010 33 981 q 178 1039 111 1039 z "},"ī":{"ha":390,"x_min":11,"x_max":379,"o":"m 263 147 q 257 53 263 85 l 344 57 l 344 0 l 61 0 l 61 42 q 119 62 101 42 q 140 113 136 82 q 143 211 143 144 l 143 528 q 149 618 143 568 l 50 613 l 50 671 q 167 681 132 671 q 222 708 203 690 l 263 708 l 263 147 m 379 972 l 379 894 l 11 889 l 11 972 l 379 972 z "},"į":{"ha":390,"x_min":49,"x_max":361,"o":"m 199 846 q 147 870 169 846 q 125 928 125 894 q 148 986 125 961 q 200 1011 171 1011 q 253 987 232 1011 q 275 928 275 963 q 252 870 275 894 q 199 846 229 846 m 361 -272 q 288 -334 332 -308 q 196 -360 243 -360 q 89 -320 129 -360 q 49 -218 49 -281 q 104 -97 49 -153 q 247 0 160 -40 l 61 0 l 61 42 q 119 62 101 42 q 140 113 136 82 q 143 211 143 144 l 143 528 q 149 618 143 568 l 50 613 l 50 671 q 167 681 132 671 q 222 708 203 690 l 263 708 l 263 147 q 257 53 263 85 l 344 57 l 344 0 q 213 -76 264 -28 q 161 -190 161 -125 q 186 -260 161 -233 q 247 -286 211 -286 q 338 -247 292 -286 l 361 -272 z "},"ĩ":{"ha":390,"x_min":-37,"x_max":429,"o":"m 263 147 q 257 53 263 85 l 344 57 l 344 0 l 61 0 l 61 42 q 119 62 101 42 q 140 113 136 82 q 143 211 143 144 l 143 528 q 149 618 143 568 l 50 613 l 50 671 q 167 681 132 671 q 222 708 203 690 l 263 708 l 263 147 m 108 1010 q 162 999 139 1010 q 214 968 185 988 q 253 944 236 951 q 288 936 269 936 q 345 954 318 936 q 389 1003 372 972 l 429 982 q 368 884 408 918 q 288 850 328 850 q 231 861 256 850 q 172 894 206 872 q 135 917 150 910 q 106 925 121 925 q 50 910 78 925 q 4 867 22 896 l -37 890 q 24 975 -19 940 q 108 1010 68 1010 z "},"j":{"ha":303,"x_min":-122,"x_max":260,"o":"m 185 1011 q 238 987 217 1011 q 260 928 260 963 q 237 870 260 894 q 183 846 214 846 q 132 870 154 846 q 110 928 110 894 q 133 986 110 961 q 185 1011 156 1011 m 251 -4 q 179 -283 251 -190 q -12 -376 107 -376 q -94 -354 -67 -376 q -122 -299 -122 -332 q -105 -252 -122 -271 q -60 -233 -87 -233 q -16 -252 -31 -233 q -1 -292 -1 -271 q -3 -304 -1 -300 q 33 -312 17 -312 q 89 -289 65 -312 q 129 -119 129 -250 l 132 528 q 136 618 132 581 l 38 613 l 38 671 q 156 681 121 671 q 211 708 192 690 l 251 708 l 251 -4 z "},"ĵ":{"ha":357,"x_min":-122,"x_max":351,"o":"m 175 1081 l 351 854 l 313 815 l 169 949 l 168 949 l 29 819 l -15 860 l 174 1081 l 175 1081 m 251 -4 q 179 -283 251 -190 q -12 -376 107 -376 q -94 -354 -67 -376 q -122 -299 -122 -332 q -105 -252 -122 -271 q -60 -233 -87 -233 q -16 -252 -31 -233 q -1 -292 -1 -271 q -3 -304 -1 -300 q 33 -312 17 -312 q 89 -289 65 -312 q 129 -119 129 -250 l 132 528 q 136 618 132 581 l 38 613 l 38 671 q 156 681 121 671 q 211 708 192 690 l 251 708 l 251 -4 z "},"k":{"ha":746,"x_min":36,"x_max":736,"o":"m 249 392 l 304 392 l 474 569 q 556 643 526 625 l 461 639 l 461 694 l 714 694 l 714 653 q 603 608 653 646 q 492 507 553 571 l 383 393 q 427 365 408 382 q 469 318 446 347 l 568 192 q 599 149 571 189 q 667 76 628 110 q 736 42 707 42 l 736 0 l 610 0 q 547 29 576 0 q 463 131 518 58 l 408 207 q 351 287 378 250 q 306 340 324 324 l 249 338 l 249 147 q 243 53 249 85 l 332 57 l 332 0 l 49 0 l 49 42 q 106 62 89 42 q 126 113 124 82 q 129 211 129 143 q 130 363 129 225 q 131 868 131 500 q 135 958 131 921 l 36 953 l 36 1011 q 153 1021 118 1011 q 208 1049 189 1031 l 249 1049 l 249 392 z "},"ķ":{"ha":746,"x_min":36,"x_max":736,"o":"m 249 392 l 304 392 l 474 569 q 556 643 526 625 l 461 639 l 461 694 l 714 694 l 714 653 q 603 608 653 646 q 492 507 553 571 l 383 393 q 427 365 408 382 q 469 318 446 347 l 568 192 q 599 149 571 189 q 667 76 628 110 q 736 42 707 42 l 736 0 l 610 0 q 547 29 576 0 q 463 131 518 58 l 408 207 q 351 287 378 250 q 306 340 324 324 l 249 338 l 249 147 q 243 53 249 85 l 332 57 l 332 0 l 49 0 l 49 42 q 106 62 89 42 q 126 113 124 82 q 129 211 129 143 q 130 363 129 225 q 131 868 131 500 q 135 958 131 921 l 36 953 l 36 1011 q 153 1021 118 1011 q 208 1049 189 1031 l 249 1049 l 249 392 m 413 -56 q 435 -144 435 -99 q 322 -360 435 -247 l 286 -333 q 333 -178 333 -246 q 317 -83 333 -132 l 413 -56 z "},"l":{"ha":378,"x_min":35,"x_max":331,"o":"m 250 147 q 243 53 250 93 l 331 57 l 331 0 l 47 0 l 47 42 q 105 62 88 42 q 126 113 122 82 q 129 211 129 144 l 129 868 q 133 958 129 921 l 35 953 l 35 1011 q 153 1021 118 1011 q 208 1049 189 1031 l 249 1049 l 250 147 z "},"ĺ":{"ha":378,"x_min":35,"x_max":331,"o":"m 250 147 q 243 53 250 93 l 331 57 l 331 0 l 47 0 l 47 42 q 105 62 88 42 q 126 113 122 82 q 129 211 129 144 l 129 868 q 133 958 129 921 l 35 953 l 35 1011 q 153 1021 118 1011 q 208 1049 189 1031 l 249 1049 l 250 147 m 285 1332 q 301 1293 301 1315 q 272 1233 301 1264 l 117 1086 l 78 1118 l 194 1306 q 251 1343 221 1343 q 285 1332 268 1343 z "},"ľ":{"ha":474,"x_min":35,"x_max":486,"o":"m 469 1058 q 486 997 486 1024 q 454 880 486 939 q 371 769 422 821 l 335 797 q 386 982 386 896 q 374 1076 386 1031 l 469 1058 m 250 147 q 243 53 250 93 l 331 57 l 331 0 l 47 0 l 47 42 q 105 62 88 42 q 126 113 122 82 q 129 211 129 144 l 129 868 q 133 958 129 921 l 35 953 l 35 1011 q 153 1021 118 1011 q 208 1049 189 1031 l 249 1049 l 250 147 z "},"ļ":{"ha":378,"x_min":35,"x_max":331,"o":"m 250 147 q 243 53 250 93 l 331 57 l 331 0 l 47 0 l 47 42 q 105 62 88 42 q 126 113 122 82 q 129 211 129 144 l 129 868 q 133 958 129 921 l 35 953 l 35 1011 q 153 1021 118 1011 q 208 1049 189 1031 l 249 1049 l 250 147 m 228 -56 q 250 -144 250 -99 q 138 -360 250 -247 l 101 -333 q 149 -178 149 -246 q 132 -83 149 -132 l 228 -56 z "},"ł":{"ha":407,"x_min":36,"x_max":383,"o":"m 383 567 l 278 489 l 278 147 q 271 53 278 93 l 358 57 l 358 0 l 75 0 l 75 42 q 133 62 115 42 q 153 113 150 82 q 157 211 157 144 l 157 401 l 36 314 l 36 396 l 157 483 l 157 868 q 161 958 157 921 l 63 953 l 63 1011 q 181 1021 146 1011 q 236 1049 217 1031 l 276 1049 l 278 569 l 383 646 l 383 567 z "},"m":{"ha":1242,"x_min":50,"x_max":1197,"o":"m 885 717 q 1063 642 1007 717 q 1117 406 1119 568 l 1115 147 q 1110 53 1115 85 l 1197 57 l 1197 0 l 914 0 l 914 42 q 972 62 954 42 q 992 113 989 82 q 996 211 996 144 l 996 406 q 958 584 996 525 q 840 643 921 643 q 753 624 797 643 q 676 575 710 606 q 690 474 690 532 l 688 147 q 682 53 688 85 l 769 57 l 769 0 l 486 0 l 486 42 q 544 62 526 42 q 564 112 561 82 q 568 211 567 142 l 569 406 q 535 586 571 526 q 419 646 499 646 q 334 628 376 646 q 261 579 292 610 l 263 504 l 263 147 q 257 53 263 85 l 344 57 l 344 0 l 61 0 l 61 42 q 119 62 101 42 q 140 113 136 82 q 143 211 143 144 l 143 528 q 149 618 143 586 l 50 613 l 50 671 q 163 680 132 671 q 214 708 193 689 l 254 708 q 260 635 257 688 q 357 694 303 672 q 464 717 411 717 q 580 692 532 717 q 654 624 628 668 q 766 690 704 664 q 885 717 828 717 z "},"n":{"ha":843,"x_min":51,"x_max":801,"o":"m 488 717 q 664 641 608 717 q 719 406 719 565 l 719 147 q 714 53 719 85 l 801 57 l 801 0 l 518 0 l 518 42 q 576 62 558 42 q 597 113 593 82 q 600 211 600 144 l 600 406 q 561 585 599 525 q 443 646 524 646 q 344 621 393 646 q 263 556 294 596 q 264 501 264 540 l 263 147 q 257 53 263 85 l 344 57 l 344 0 l 61 0 l 61 42 q 119 62 101 42 q 139 112 136 82 q 143 211 142 142 l 144 528 q 150 618 144 586 l 51 613 l 51 671 q 164 680 133 671 q 215 708 194 689 l 256 708 q 261 624 258 682 q 369 691 308 665 q 488 717 429 717 z "},"ń":{"ha":843,"x_min":51,"x_max":801,"o":"m 488 717 q 664 641 608 717 q 719 406 719 565 l 719 147 q 714 53 719 85 l 801 57 l 801 0 l 518 0 l 518 42 q 576 62 558 42 q 597 113 593 82 q 600 211 600 144 l 600 406 q 561 585 599 525 q 443 646 524 646 q 344 621 393 646 q 263 556 294 596 q 264 501 264 540 l 263 147 q 257 53 263 85 l 344 57 l 344 0 l 61 0 l 61 42 q 119 62 101 42 q 139 112 136 82 q 143 211 142 142 l 144 528 q 150 618 144 586 l 51 613 l 51 671 q 164 680 133 671 q 215 708 194 689 l 256 708 q 261 624 258 682 q 369 691 308 665 q 488 717 429 717 m 539 1051 q 556 1013 556 1035 q 526 953 556 983 l 371 806 l 332 838 l 449 1025 q 506 1063 475 1063 q 539 1051 522 1063 z "},"ŉ":{"ha":843,"x_min":51,"x_max":801,"o":"m 488 717 q 664 641 608 717 q 719 406 719 565 l 719 147 q 714 53 719 85 l 801 57 l 801 0 l 518 0 l 518 42 q 576 62 558 42 q 597 113 593 82 q 600 211 600 144 l 600 406 q 561 585 599 525 q 443 646 524 646 q 344 621 393 646 q 263 556 294 596 q 264 501 264 540 l 263 147 q 257 53 263 85 l 344 57 l 344 0 l 61 0 l 61 42 q 119 62 101 42 q 139 112 136 82 q 143 211 142 142 l 144 528 q 150 618 144 586 l 51 613 l 51 671 q 164 680 133 671 q 215 708 194 689 l 256 708 q 261 624 258 682 q 369 691 308 665 q 488 717 429 717 m 131 1197 q 203 1162 176 1197 q 229 1071 229 1126 q 199 933 229 1014 q 126 808 169 853 l 89 836 q 133 922 113 867 q 154 1032 154 978 q 153 1057 154 1049 q 118 1049 135 1049 q 72 1068 90 1049 q 54 1117 54 1088 q 76 1176 54 1154 q 131 1197 99 1197 z "},"ň":{"ha":843,"x_min":51,"x_max":801,"o":"m 488 717 q 664 641 608 717 q 719 406 719 565 l 719 147 q 714 53 719 85 l 801 57 l 801 0 l 518 0 l 518 42 q 576 62 558 42 q 597 113 593 82 q 600 211 600 144 l 600 406 q 561 585 599 525 q 443 646 524 646 q 344 621 393 646 q 263 556 294 596 q 264 501 264 540 l 263 147 q 257 53 263 85 l 344 57 l 344 0 l 61 0 l 61 42 q 119 62 101 42 q 139 112 136 82 q 143 211 142 142 l 144 528 q 150 618 144 586 l 51 613 l 51 671 q 164 680 133 671 q 215 708 194 689 l 256 708 q 261 624 258 682 q 369 691 308 665 q 488 717 429 717 m 624 1069 l 658 1029 l 438 796 l 435 796 l 228 1022 l 265 1067 l 442 915 l 444 915 l 624 1069 z "},"ņ":{"ha":843,"x_min":51,"x_max":801,"o":"m 488 717 q 664 641 608 717 q 719 406 719 565 l 719 147 q 714 53 719 85 l 801 57 l 801 0 l 518 0 l 518 42 q 576 62 558 42 q 597 113 593 82 q 600 211 600 144 l 600 406 q 561 585 599 525 q 443 646 524 646 q 344 621 393 646 q 263 556 294 596 q 264 501 264 540 l 263 147 q 257 53 263 85 l 344 57 l 344 0 l 61 0 l 61 42 q 119 62 101 42 q 139 112 136 82 q 143 211 142 142 l 144 528 q 150 618 144 586 l 51 613 l 51 671 q 164 680 133 671 q 215 708 194 689 l 256 708 q 261 624 258 682 q 369 691 308 665 q 488 717 429 717 m 461 -56 q 483 -144 483 -99 q 371 -360 483 -247 l 335 -333 q 382 -178 382 -246 q 365 -83 382 -132 l 461 -56 z "},"ñ":{"ha":843,"x_min":51,"x_max":801,"o":"m 488 717 q 664 641 608 717 q 719 406 719 565 l 719 147 q 714 53 719 85 l 801 57 l 801 0 l 518 0 l 518 42 q 576 62 558 42 q 597 113 593 82 q 600 211 600 144 l 600 406 q 561 585 599 525 q 443 646 524 646 q 344 621 393 646 q 263 556 294 596 q 264 501 264 540 l 263 147 q 257 53 263 85 l 344 57 l 344 0 l 61 0 l 61 42 q 119 62 101 42 q 139 112 136 82 q 143 211 142 142 l 144 528 q 150 618 144 586 l 51 613 l 51 671 q 164 680 133 671 q 215 708 194 689 l 256 708 q 261 624 258 682 q 369 691 308 665 q 488 717 429 717 m 356 1010 q 409 999 386 1010 q 461 968 432 988 q 500 944 483 951 q 535 936 517 936 q 592 954 565 936 q 636 1003 619 972 l 676 982 q 615 884 656 918 q 535 850 575 850 q 478 861 503 850 q 419 894 453 872 q 383 917 397 910 q 353 925 368 925 q 297 910 325 925 q 251 867 269 896 l 210 890 q 272 975 228 940 q 356 1010 315 1010 z "},"o":{"ha":813,"x_min":57,"x_max":756,"o":"m 406 717 q 582 670 501 717 q 709 543 663 624 q 756 364 756 463 q 709 169 756 258 q 583 29 663 81 q 406 -22 503 -22 q 230 23 310 -22 q 103 149 150 68 q 57 331 57 229 q 103 527 57 439 q 228 666 149 615 q 406 717 308 717 m 406 664 q 251 579 303 664 q 199 371 199 494 q 223 205 199 282 q 297 81 247 128 q 417 33 346 33 q 566 117 518 33 q 614 324 614 200 q 562 564 614 464 q 406 664 510 664 z "},"ó":{"ha":813,"x_min":57,"x_max":756,"o":"m 500 1051 q 517 1013 517 1035 q 488 953 517 983 l 332 806 l 293 838 l 410 1025 q 467 1063 436 1063 q 500 1051 483 1063 m 406 717 q 582 670 501 717 q 709 543 663 624 q 756 364 756 463 q 709 169 756 258 q 583 29 663 81 q 406 -22 503 -22 q 230 23 310 -22 q 103 149 150 68 q 57 331 57 229 q 103 527 57 439 q 228 666 149 615 q 406 717 308 717 m 406 664 q 251 579 303 664 q 199 371 199 494 q 223 205 199 282 q 297 81 247 128 q 417 33 346 33 q 566 117 518 33 q 614 324 614 200 q 562 564 614 464 q 406 664 510 664 z "},"ô":{"ha":813,"x_min":57,"x_max":756,"o":"m 406 717 q 582 670 501 717 q 709 543 663 624 q 756 364 756 463 q 709 169 756 258 q 583 29 663 81 q 406 -22 503 -22 q 230 23 310 -22 q 103 149 150 68 q 57 331 57 229 q 103 527 57 439 q 228 666 149 615 q 406 717 308 717 m 406 664 q 251 579 303 664 q 199 371 199 494 q 223 205 199 282 q 297 81 247 128 q 417 33 346 33 q 566 117 518 33 q 614 324 614 200 q 562 564 614 464 q 406 664 510 664 m 414 1081 l 621 854 l 583 810 l 407 961 l 404 961 l 225 819 l 190 860 l 411 1081 l 414 1081 z "},"ố":{"ha":813,"x_min":57,"x_max":800,"o":"m 783 1113 q 800 1074 800 1096 q 771 1014 800 1044 l 615 867 l 576 899 l 693 1086 q 750 1124 719 1124 q 783 1113 767 1124 m 413 960 l 624 799 l 599 760 l 408 860 l 406 860 l 211 761 l 188 797 l 411 960 l 413 960 m 406 717 q 582 670 501 717 q 709 543 663 624 q 756 364 756 463 q 709 169 756 258 q 583 29 663 81 q 406 -22 503 -22 q 230 23 310 -22 q 103 149 150 68 q 57 331 57 229 q 103 527 57 439 q 228 666 149 615 q 406 717 308 717 m 406 664 q 251 579 303 664 q 199 371 199 494 q 223 205 199 282 q 297 81 247 128 q 417 33 346 33 q 566 117 518 33 q 614 324 614 200 q 562 564 614 464 q 406 664 510 664 z "},"ộ":{"ha":813,"x_min":57,"x_max":756,"o":"m 406 717 q 582 670 501 717 q 709 543 663 624 q 756 364 756 463 q 709 169 756 258 q 583 29 663 81 q 406 -22 503 -22 q 230 23 310 -22 q 103 149 150 68 q 57 331 57 229 q 103 527 57 439 q 228 666 149 615 q 406 717 308 717 m 406 664 q 251 579 303 664 q 199 371 199 494 q 223 205 199 282 q 297 81 247 128 q 417 33 346 33 q 566 117 518 33 q 614 324 614 200 q 562 564 614 464 q 406 664 510 664 m 408 -108 q 456 -130 436 -108 q 475 -182 475 -151 q 454 -234 475 -212 q 407 -256 433 -256 q 360 -234 379 -256 q 340 -182 340 -212 q 360 -130 340 -151 q 408 -108 381 -108 m 414 1081 l 621 854 l 583 810 l 407 961 l 404 961 l 225 819 l 190 860 l 411 1081 l 414 1081 z "},"ồ":{"ha":813,"x_min":57,"x_max":756,"o":"m 408 1160 q 442 1171 425 1171 q 499 1133 472 1171 l 615 946 l 576 914 l 421 1061 q 392 1121 392 1092 q 408 1160 392 1143 m 413 960 l 624 799 l 599 760 l 408 860 l 406 860 l 211 761 l 188 797 l 411 960 l 413 960 m 406 717 q 582 670 501 717 q 709 543 663 624 q 756 364 756 463 q 709 169 756 258 q 583 29 663 81 q 406 -22 503 -22 q 230 23 310 -22 q 103 149 150 68 q 57 331 57 229 q 103 527 57 439 q 228 666 149 615 q 406 717 308 717 m 406 664 q 251 579 303 664 q 199 371 199 494 q 223 205 199 282 q 297 81 247 128 q 417 33 346 33 q 566 117 518 33 q 614 324 614 200 q 562 564 614 464 q 406 664 510 664 z "},"ổ":{"ha":813,"x_min":57,"x_max":756,"o":"m 588 1147 q 699 1115 658 1147 q 740 1019 740 1082 q 722 971 740 989 q 671 933 704 953 q 640 913 649 921 q 631 894 631 906 l 583 894 q 591 919 583 910 q 615 939 599 928 q 649 969 638 953 q 661 1019 661 986 q 589 1097 661 1097 q 546 1084 565 1097 q 524 1056 526 1071 q 532 1033 532 1044 q 519 1011 532 1019 q 489 1003 506 1003 q 443 1050 443 1003 q 482 1118 443 1089 q 588 1147 521 1147 m 413 960 l 624 799 l 599 760 l 408 860 l 406 860 l 211 761 l 188 797 l 411 960 l 413 960 m 406 717 q 582 670 501 717 q 709 543 663 624 q 756 364 756 463 q 709 169 756 258 q 583 29 663 81 q 406 -22 503 -22 q 230 23 310 -22 q 103 149 150 68 q 57 331 57 229 q 103 527 57 439 q 228 666 149 615 q 406 717 308 717 m 406 664 q 251 579 303 664 q 199 371 199 494 q 223 205 199 282 q 297 81 247 128 q 417 33 346 33 q 566 117 518 33 q 614 324 614 200 q 562 564 614 464 q 406 664 510 664 z "},"ỗ":{"ha":813,"x_min":57,"x_max":756,"o":"m 336 1126 q 390 1115 367 1126 q 442 1085 413 1104 q 481 1060 464 1068 q 515 1053 497 1053 q 573 1071 546 1053 q 617 1119 600 1089 l 657 1099 q 596 1001 636 1035 q 515 967 556 967 q 458 978 483 967 q 400 1011 433 989 q 363 1034 378 1026 q 333 1042 349 1042 q 278 1027 306 1042 q 232 983 250 1013 l 190 1007 q 252 1092 208 1057 q 336 1126 296 1126 m 413 960 l 624 799 l 599 760 l 408 860 l 406 860 l 211 761 l 188 797 l 411 960 l 413 960 m 406 717 q 582 670 501 717 q 709 543 663 624 q 756 364 756 463 q 709 169 756 258 q 583 29 663 81 q 406 -22 503 -22 q 230 23 310 -22 q 103 149 150 68 q 57 331 57 229 q 103 527 57 439 q 228 666 149 615 q 406 717 308 717 m 406 664 q 251 579 303 664 q 199 371 199 494 q 223 205 199 282 q 297 81 247 128 q 417 33 346 33 q 566 117 518 33 q 614 324 614 200 q 562 564 614 464 q 406 664 510 664 z "},"ö":{"ha":813,"x_min":57,"x_max":756,"o":"m 286 1011 q 335 987 315 1011 q 354 928 354 963 q 333 870 354 894 q 285 846 313 846 q 236 869 257 846 q 215 928 215 893 q 237 987 215 963 q 286 1011 258 1011 m 518 1011 q 567 987 547 1011 q 586 928 586 963 q 565 870 586 894 q 517 846 544 846 q 468 869 489 846 q 447 928 447 893 q 469 987 447 963 q 518 1011 490 1011 m 406 717 q 582 670 501 717 q 709 543 663 624 q 756 364 756 463 q 709 169 756 258 q 583 29 663 81 q 406 -22 503 -22 q 230 23 310 -22 q 103 149 150 68 q 57 331 57 229 q 103 527 57 439 q 228 666 149 615 q 406 717 308 717 m 406 664 q 251 579 303 664 q 199 371 199 494 q 223 205 199 282 q 297 81 247 128 q 417 33 346 33 q 566 117 518 33 q 614 324 614 200 q 562 564 614 464 q 406 664 510 664 z "},"ọ":{"ha":813,"x_min":57,"x_max":756,"o":"m 406 717 q 582 670 501 717 q 709 543 663 624 q 756 364 756 463 q 709 169 756 258 q 583 29 663 81 q 406 -22 503 -22 q 230 23 310 -22 q 103 149 150 68 q 57 331 57 229 q 103 527 57 439 q 228 666 149 615 q 406 717 308 717 m 406 664 q 251 579 303 664 q 199 371 199 494 q 223 205 199 282 q 297 81 247 128 q 417 33 346 33 q 566 117 518 33 q 614 324 614 200 q 562 564 614 464 q 406 664 510 664 m 408 -108 q 456 -130 436 -108 q 475 -182 475 -151 q 454 -234 475 -212 q 407 -256 433 -256 q 360 -234 379 -256 q 340 -182 340 -212 q 360 -130 340 -151 q 408 -108 381 -108 z "},"ò":{"ha":813,"x_min":57,"x_max":756,"o":"m 406 717 q 582 670 501 717 q 709 543 663 624 q 756 364 756 463 q 709 169 756 258 q 583 29 663 81 q 406 -22 503 -22 q 230 23 310 -22 q 103 149 150 68 q 57 331 57 229 q 103 527 57 439 q 228 666 149 615 q 406 717 308 717 m 406 664 q 251 579 303 664 q 199 371 199 494 q 223 205 199 282 q 297 81 247 128 q 417 33 346 33 q 566 117 518 33 q 614 324 614 200 q 562 564 614 464 q 406 664 510 664 m 311 1051 q 344 1063 328 1063 q 401 1025 375 1063 l 518 838 l 479 806 l 324 953 q 294 1013 294 983 q 311 1051 294 1035 z "},"ỏ":{"ha":813,"x_min":57,"x_max":756,"o":"m 406 717 q 582 670 501 717 q 709 543 663 624 q 756 364 756 463 q 709 169 756 258 q 583 29 663 81 q 406 -22 503 -22 q 230 23 310 -22 q 103 149 150 68 q 57 331 57 229 q 103 527 57 439 q 228 666 149 615 q 406 717 308 717 m 406 664 q 251 579 303 664 q 199 371 199 494 q 223 205 199 282 q 297 81 247 128 q 417 33 346 33 q 566 117 518 33 q 614 324 614 200 q 562 564 614 464 q 406 664 510 664 m 388 1039 q 499 1006 458 1039 q 540 911 540 974 q 522 863 540 881 q 471 825 504 844 q 440 805 449 813 q 431 786 431 797 l 383 786 q 391 810 383 801 q 415 831 399 819 q 449 861 438 844 q 461 911 461 878 q 389 989 461 989 q 346 976 365 989 q 324 947 326 963 q 332 925 332 936 q 319 903 332 911 q 289 894 306 894 q 243 942 243 894 q 282 1010 243 981 q 388 1039 321 1039 z "},"ơ":{"ha":813,"x_min":57,"x_max":756,"o":"m 628 639 q 722 519 688 590 q 756 364 756 447 q 709 169 756 258 q 583 29 663 81 q 406 -22 503 -22 q 230 23 310 -22 q 103 149 150 68 q 57 331 57 229 q 103 527 57 439 q 228 666 149 615 q 406 717 308 717 q 540 690 475 717 q 613 729 585 696 q 640 801 640 763 l 746 801 q 714 707 746 751 q 628 639 682 663 m 417 33 q 566 117 518 33 q 614 324 614 200 q 562 564 614 464 q 406 664 510 664 q 251 579 303 664 q 199 371 199 494 q 223 205 199 282 q 297 81 247 128 q 417 33 346 33 z "},"ớ":{"ha":813,"x_min":57,"x_max":756,"o":"m 628 639 q 722 519 688 590 q 756 364 756 447 q 709 169 756 258 q 583 29 663 81 q 406 -22 503 -22 q 230 23 310 -22 q 103 149 150 68 q 57 331 57 229 q 103 527 57 439 q 228 666 149 615 q 406 717 308 717 q 540 690 475 717 q 613 729 585 696 q 640 801 640 763 l 746 801 q 714 707 746 751 q 628 639 682 663 m 417 33 q 566 117 518 33 q 614 324 614 200 q 562 564 614 464 q 406 664 510 664 q 251 579 303 664 q 199 371 199 494 q 223 205 199 282 q 297 81 247 128 q 417 33 346 33 m 500 1051 q 517 1013 517 1035 q 488 953 517 983 l 332 806 l 293 838 l 410 1025 q 467 1063 436 1063 q 500 1051 483 1063 z "},"ợ":{"ha":813,"x_min":57,"x_max":756,"o":"m 628 639 q 722 519 688 590 q 756 364 756 447 q 709 169 756 258 q 583 29 663 81 q 406 -22 503 -22 q 230 23 310 -22 q 103 149 150 68 q 57 331 57 229 q 103 527 57 439 q 228 666 149 615 q 406 717 308 717 q 540 690 475 717 q 613 729 585 696 q 640 801 640 763 l 746 801 q 714 707 746 751 q 628 639 682 663 m 417 33 q 566 117 518 33 q 614 324 614 200 q 562 564 614 464 q 406 664 510 664 q 251 579 303 664 q 199 371 199 494 q 223 205 199 282 q 297 81 247 128 q 417 33 346 33 m 408 -108 q 456 -130 436 -108 q 475 -182 475 -151 q 454 -234 475 -212 q 407 -256 433 -256 q 360 -234 379 -256 q 340 -182 340 -212 q 360 -130 340 -151 q 408 -108 381 -108 z "},"ờ":{"ha":813,"x_min":57,"x_max":756,"o":"m 628 639 q 722 519 688 590 q 756 364 756 447 q 709 169 756 258 q 583 29 663 81 q 406 -22 503 -22 q 230 23 310 -22 q 103 149 150 68 q 57 331 57 229 q 103 527 57 439 q 228 666 149 615 q 406 717 308 717 q 540 690 475 717 q 613 729 585 696 q 640 801 640 763 l 746 801 q 714 707 746 751 q 628 639 682 663 m 417 33 q 566 117 518 33 q 614 324 614 200 q 562 564 614 464 q 406 664 510 664 q 251 579 303 664 q 199 371 199 494 q 223 205 199 282 q 297 81 247 128 q 417 33 346 33 m 311 1051 q 344 1063 328 1063 q 401 1025 375 1063 l 518 838 l 479 806 l 324 953 q 294 1013 294 983 q 311 1051 294 1035 z "},"ở":{"ha":813,"x_min":57,"x_max":756,"o":"m 628 639 q 722 519 688 590 q 756 364 756 447 q 709 169 756 258 q 583 29 663 81 q 406 -22 503 -22 q 230 23 310 -22 q 103 149 150 68 q 57 331 57 229 q 103 527 57 439 q 228 666 149 615 q 406 717 308 717 q 540 690 475 717 q 613 729 585 696 q 640 801 640 763 l 746 801 q 714 707 746 751 q 628 639 682 663 m 417 33 q 566 117 518 33 q 614 324 614 200 q 562 564 614 464 q 406 664 510 664 q 251 579 303 664 q 199 371 199 494 q 223 205 199 282 q 297 81 247 128 q 417 33 346 33 m 388 1039 q 499 1006 458 1039 q 540 911 540 974 q 522 863 540 881 q 471 825 504 844 q 440 805 449 813 q 431 786 431 797 l 383 786 q 391 810 383 801 q 415 831 399 819 q 449 861 438 844 q 461 911 461 878 q 389 989 461 989 q 346 976 365 989 q 324 947 326 963 q 332 925 332 936 q 319 903 332 911 q 289 894 306 894 q 243 942 243 894 q 282 1010 243 981 q 388 1039 321 1039 z "},"ỡ":{"ha":813,"x_min":57,"x_max":756,"o":"m 628 639 q 722 519 688 590 q 756 364 756 447 q 709 169 756 258 q 583 29 663 81 q 406 -22 503 -22 q 230 23 310 -22 q 103 149 150 68 q 57 331 57 229 q 103 527 57 439 q 228 666 149 615 q 406 717 308 717 q 540 690 475 717 q 613 729 585 696 q 640 801 640 763 l 746 801 q 714 707 746 751 q 628 639 682 663 m 417 33 q 566 117 518 33 q 614 324 614 200 q 562 564 614 464 q 406 664 510 664 q 251 579 303 664 q 199 371 199 494 q 223 205 199 282 q 297 81 247 128 q 417 33 346 33 m 318 1010 q 372 999 349 1010 q 424 968 394 988 q 463 944 446 951 q 497 936 479 936 q 555 954 528 936 q 599 1003 582 972 l 639 982 q 578 884 618 918 q 497 850 538 850 q 440 861 465 850 q 382 894 415 872 q 345 917 360 910 q 315 925 331 925 q 260 910 288 925 q 214 867 232 896 l 172 890 q 234 975 190 940 q 318 1010 278 1010 z "},"ő":{"ha":813,"x_min":57,"x_max":756,"o":"m 406 717 q 582 670 501 717 q 709 543 663 624 q 756 364 756 463 q 709 169 756 258 q 583 29 663 81 q 406 -22 503 -22 q 230 23 310 -22 q 103 149 150 68 q 57 331 57 229 q 103 527 57 439 q 228 666 149 615 q 406 717 308 717 m 406 664 q 251 579 303 664 q 199 371 199 494 q 223 205 199 282 q 297 81 247 128 q 417 33 346 33 q 566 117 518 33 q 614 324 614 200 q 562 564 614 464 q 406 664 510 664 m 418 1067 q 438 1029 438 1053 q 415 975 438 1006 l 294 826 l 254 851 l 332 1029 q 389 1076 354 1076 q 418 1067 403 1076 m 650 1039 q 658 1013 658 1026 q 626 956 658 978 l 424 817 l 397 853 l 565 1036 q 613 1058 588 1058 q 650 1039 635 1058 z "},"ō":{"ha":813,"x_min":57,"x_max":756,"o":"m 406 717 q 582 670 501 717 q 709 543 663 624 q 756 364 756 463 q 709 169 756 258 q 583 29 663 81 q 406 -22 503 -22 q 230 23 310 -22 q 103 149 150 68 q 57 331 57 229 q 103 527 57 439 q 228 666 149 615 q 406 717 308 717 m 406 664 q 251 579 303 664 q 199 371 199 494 q 223 205 199 282 q 297 81 247 128 q 417 33 346 33 q 566 117 518 33 q 614 324 614 200 q 562 564 614 464 q 406 664 510 664 m 589 972 l 589 894 l 221 889 l 221 972 l 589 972 z "},"ø":{"ha":813,"x_min":57,"x_max":756,"o":"m 639 629 q 725 512 694 581 q 756 364 756 443 q 709 169 756 258 q 583 29 663 81 q 406 -22 503 -22 q 242 17 317 -22 l 163 -104 l 111 -67 l 186 53 q 91 172 125 100 q 57 331 57 244 q 103 527 57 439 q 228 666 149 615 q 406 717 308 717 q 576 674 499 717 l 647 785 l 713 742 l 639 629 m 199 371 q 246 149 199 239 l 533 604 q 406 664 482 664 q 251 579 303 664 q 199 371 199 494 m 417 33 q 566 117 518 33 q 614 324 614 200 q 576 532 614 447 l 288 89 q 417 33 340 33 z "},"õ":{"ha":813,"x_min":57,"x_max":756,"o":"m 406 717 q 582 670 501 717 q 709 543 663 624 q 756 364 756 463 q 709 169 756 258 q 583 29 663 81 q 406 -22 503 -22 q 230 23 310 -22 q 103 149 150 68 q 57 331 57 229 q 103 527 57 439 q 228 666 149 615 q 406 717 308 717 m 406 664 q 251 579 303 664 q 199 371 199 494 q 223 205 199 282 q 297 81 247 128 q 417 33 346 33 q 566 117 518 33 q 614 324 614 200 q 562 564 614 464 q 406 664 510 664 m 318 1010 q 372 999 349 1010 q 424 968 394 988 q 463 944 446 951 q 497 936 479 936 q 555 954 528 936 q 599 1003 582 972 l 639 982 q 578 884 618 918 q 497 850 538 850 q 440 861 465 850 q 382 894 415 872 q 345 917 360 910 q 315 925 331 925 q 260 910 288 925 q 214 867 232 896 l 172 890 q 234 975 190 940 q 318 1010 278 1010 z "},"œ":{"ha":1226,"x_min":57,"x_max":1172,"o":"m 893 717 q 1085 638 1013 717 q 1157 408 1157 558 l 704 400 q 919 49 704 49 q 1042 81 982 49 q 1138 164 1103 114 l 1172 136 q 1041 17 1118 56 q 886 -22 964 -22 q 735 15 803 -22 q 629 119 667 51 l 628 119 q 524 15 586 53 q 385 -22 461 -22 q 215 23 289 -22 q 99 149 140 68 q 57 331 57 229 q 98 528 57 440 q 213 666 139 615 q 385 717 288 717 q 638 569 547 717 l 639 569 q 747 676 681 636 q 893 717 814 717 m 386 664 q 244 581 289 664 q 199 371 199 497 q 247 131 199 228 q 394 33 296 33 q 575 344 575 33 q 524 575 569 486 q 386 664 478 664 m 881 663 q 708 458 739 663 l 1026 458 q 990 606 1024 549 q 881 663 957 663 z "},"p":{"ha":829,"x_min":40,"x_max":771,"o":"m 465 717 q 617 674 547 717 q 728 553 686 632 q 771 372 771 475 q 722 167 771 257 q 592 28 674 78 q 417 -22 511 -22 q 250 24 321 -22 l 250 -207 q 244 -301 250 -269 l 332 -297 l 332 -354 l 49 -354 l 49 -312 q 106 -292 89 -312 q 126 -242 124 -272 q 131 -143 129 -212 l 133 528 q 139 618 133 586 l 40 613 l 40 671 q 153 680 122 671 q 203 708 183 689 l 244 708 q 250 633 250 640 q 350 694 292 671 q 465 717 408 717 m 415 649 q 326 626 369 649 q 251 571 283 604 q 253 486 253 561 l 251 88 q 414 33 322 33 q 527 74 479 33 q 601 186 575 114 q 628 350 628 258 q 574 562 628 475 q 415 649 521 649 z "},"þ":{"ha":801,"x_min":13,"x_max":742,"o":"m 222 642 q 320 697 265 676 q 432 717 375 717 q 588 674 517 717 q 700 551 658 631 q 742 367 742 471 q 694 163 742 251 q 565 26 646 75 q 388 -22 485 -22 q 222 21 290 -22 l 222 -207 q 217 -301 222 -269 l 304 -297 l 304 -354 l 21 -354 l 21 -312 q 78 -292 61 -312 q 99 -242 96 -272 q 103 -143 101 -212 l 106 868 q 111 958 106 926 l 13 953 l 13 1011 q 129 1021 94 1011 q 183 1049 164 1031 l 224 1049 l 222 642 m 385 649 q 297 629 339 649 q 222 578 254 610 l 222 86 q 385 33 292 33 q 540 120 482 33 q 599 346 599 207 q 544 560 599 471 q 385 649 490 649 z "},"q":{"ha":800,"x_min":58,"x_max":779,"o":"m 415 717 q 533 699 458 717 q 604 686 581 686 q 657 708 636 686 l 696 708 l 697 -207 q 692 -301 697 -269 l 779 -297 l 779 -354 l 496 -354 l 496 -312 q 553 -292 536 -312 q 574 -241 571 -272 q 578 -143 578 -210 l 578 65 q 369 -22 501 -22 q 211 22 282 -22 q 99 146 140 65 q 58 332 58 226 q 106 533 58 444 q 235 669 154 621 q 415 717 317 717 m 418 665 q 260 583 318 665 q 201 365 201 501 q 228 203 201 275 q 303 88 254 131 q 419 46 353 46 q 506 70 464 46 q 578 135 549 94 l 578 499 q 542 625 578 585 q 418 665 506 665 z "},"r":{"ha":601,"x_min":50,"x_max":592,"o":"m 494 717 q 564 694 536 717 q 592 629 592 672 q 574 585 592 607 q 525 563 557 563 q 475 585 494 563 q 460 640 456 608 q 353 600 407 642 q 263 489 300 558 l 264 147 q 258 53 264 85 l 346 57 l 346 0 l 61 0 l 61 42 q 119 62 101 42 q 140 113 136 82 q 143 211 143 144 l 143 528 q 149 618 143 586 l 50 614 l 50 671 l 93 671 q 169 680 146 671 q 214 708 193 689 l 254 708 q 261 571 260 654 q 360 672 296 628 q 494 717 425 717 z "},"ŕ":{"ha":601,"x_min":50,"x_max":592,"o":"m 494 717 q 564 694 536 717 q 592 629 592 672 q 574 585 592 607 q 525 563 557 563 q 475 585 494 563 q 460 640 456 608 q 353 600 407 642 q 263 489 300 558 l 264 147 q 258 53 264 85 l 346 57 l 346 0 l 61 0 l 61 42 q 119 62 101 42 q 140 113 136 82 q 143 211 143 144 l 143 528 q 149 618 143 586 l 50 614 l 50 671 l 93 671 q 169 680 146 671 q 214 708 193 689 l 254 708 q 261 571 260 654 q 360 672 296 628 q 494 717 425 717 m 450 1051 q 467 1013 467 1035 q 438 953 467 983 l 282 806 l 243 838 l 360 1025 q 417 1063 386 1063 q 450 1051 433 1063 z "},"ř":{"ha":601,"x_min":50,"x_max":592,"o":"m 494 717 q 564 694 536 717 q 592 629 592 672 q 574 585 592 607 q 525 563 557 563 q 475 585 494 563 q 460 640 456 608 q 353 600 407 642 q 263 489 300 558 l 264 147 q 258 53 264 85 l 346 57 l 346 0 l 61 0 l 61 42 q 119 62 101 42 q 140 113 136 82 q 143 211 143 144 l 143 528 q 149 618 143 586 l 50 614 l 50 671 l 93 671 q 169 680 146 671 q 214 708 193 689 l 254 708 q 261 571 260 654 q 360 672 296 628 q 494 717 425 717 m 535 1069 l 569 1029 l 349 796 l 346 796 l 139 1022 l 176 1067 l 353 915 l 356 915 l 535 1069 z "},"ŗ":{"ha":601,"x_min":50,"x_max":592,"o":"m 494 717 q 564 694 536 717 q 592 629 592 672 q 574 585 592 607 q 525 563 557 563 q 475 585 494 563 q 460 640 456 608 q 353 600 407 642 q 263 489 300 558 l 264 147 q 258 53 264 85 l 346 57 l 346 0 l 61 0 l 61 42 q 119 62 101 42 q 140 113 136 82 q 143 211 143 144 l 143 528 q 149 618 143 586 l 50 614 l 50 671 l 93 671 q 169 680 146 671 q 214 708 193 689 l 254 708 q 261 571 260 654 q 360 672 296 628 q 494 717 425 717 m 340 -56 q 363 -144 363 -99 q 250 -360 363 -247 l 214 -333 q 261 -178 261 -246 q 244 -83 261 -132 l 340 -56 z "},"s":{"ha":643,"x_min":72,"x_max":586,"o":"m 310 717 q 398 703 353 717 q 482 657 443 689 l 479 710 l 538 710 l 538 467 l 493 467 q 444 606 489 547 q 317 665 399 665 q 217 634 254 665 q 181 560 181 603 q 205 492 181 519 q 265 444 229 464 q 363 401 301 425 q 479 347 435 372 q 555 281 524 322 q 586 182 586 240 q 552 69 586 115 q 463 1 518 24 q 346 -22 408 -22 q 226 -5 281 -22 q 133 39 172 13 l 139 -10 l 81 -10 l 72 229 l 115 229 q 147 128 118 172 q 222 58 175 83 q 321 32 268 32 q 427 60 381 32 q 474 142 474 89 q 451 207 474 181 q 394 251 428 233 q 299 292 360 268 q 181 344 225 319 q 104 410 136 368 q 72 515 72 451 q 94 607 72 561 q 169 685 117 653 q 310 717 222 717 z "},"ś":{"ha":643,"x_min":72,"x_max":586,"o":"m 310 717 q 398 703 353 717 q 482 657 443 689 l 479 710 l 538 710 l 538 467 l 493 467 q 444 606 489 547 q 317 665 399 665 q 217 634 254 665 q 181 560 181 603 q 205 492 181 519 q 265 444 229 464 q 363 401 301 425 q 479 347 435 372 q 555 281 524 322 q 586 182 586 240 q 552 69 586 115 q 463 1 518 24 q 346 -22 408 -22 q 226 -5 281 -22 q 133 39 172 13 l 139 -10 l 81 -10 l 72 229 l 115 229 q 147 128 118 172 q 222 58 175 83 q 321 32 268 32 q 427 60 381 32 q 474 142 474 89 q 451 207 474 181 q 394 251 428 233 q 299 292 360 268 q 181 344 225 319 q 104 410 136 368 q 72 515 72 451 q 94 607 72 561 q 169 685 117 653 q 310 717 222 717 m 414 1051 q 431 1013 431 1035 q 401 953 431 983 l 246 806 l 207 838 l 324 1025 q 381 1063 350 1063 q 414 1051 397 1063 z "},"š":{"ha":643,"x_min":72,"x_max":586,"o":"m 310 717 q 398 703 353 717 q 482 657 443 689 l 479 710 l 538 710 l 538 467 l 493 467 q 444 606 489 547 q 317 665 399 665 q 217 634 254 665 q 181 560 181 603 q 205 492 181 519 q 265 444 229 464 q 363 401 301 425 q 479 347 435 372 q 555 281 524 322 q 586 182 586 240 q 552 69 586 115 q 463 1 518 24 q 346 -22 408 -22 q 226 -5 281 -22 q 133 39 172 13 l 139 -10 l 81 -10 l 72 229 l 115 229 q 147 128 118 172 q 222 58 175 83 q 321 32 268 32 q 427 60 381 32 q 474 142 474 89 q 451 207 474 181 q 394 251 428 233 q 299 292 360 268 q 181 344 225 319 q 104 410 136 368 q 72 515 72 451 q 94 607 72 561 q 169 685 117 653 q 310 717 222 717 m 499 1069 l 533 1029 l 313 796 l 310 796 l 103 1022 l 140 1067 l 317 915 l 319 915 l 499 1069 z "},"ş":{"ha":643,"x_min":72,"x_max":586,"o":"m 586 182 q 522 36 586 89 q 365 -22 457 -17 l 339 -103 q 433 -79 379 -79 q 501 -104 476 -79 q 526 -171 526 -129 q 443 -282 526 -244 q 254 -335 360 -319 l 246 -289 q 367 -248 322 -275 q 413 -182 413 -221 q 368 -140 413 -140 q 306 -161 336 -140 l 258 -139 l 290 -18 q 133 39 199 -7 l 139 -10 l 81 -10 l 72 229 l 115 229 q 147 128 118 172 q 222 58 175 83 q 321 32 268 32 q 427 60 381 32 q 474 142 474 89 q 451 207 474 181 q 394 251 428 233 q 299 292 360 268 q 181 344 225 319 q 104 410 136 368 q 72 515 72 451 q 94 607 72 561 q 169 685 117 653 q 310 717 222 717 q 398 703 353 717 q 482 657 443 689 l 479 710 l 538 710 l 538 467 l 493 467 q 444 606 489 547 q 317 665 399 665 q 217 634 254 665 q 181 560 181 603 q 205 492 181 519 q 265 444 229 464 q 363 401 301 425 q 479 347 435 372 q 555 281 524 322 q 586 182 586 240 z "},"ŝ":{"ha":643,"x_min":72,"x_max":586,"o":"m 310 717 q 398 703 353 717 q 482 657 443 689 l 479 710 l 538 710 l 538 467 l 493 467 q 444 606 489 547 q 317 665 399 665 q 217 634 254 665 q 181 560 181 603 q 205 492 181 519 q 265 444 229 464 q 363 401 301 425 q 479 347 435 372 q 555 281 524 322 q 586 182 586 240 q 552 69 586 115 q 463 1 518 24 q 346 -22 408 -22 q 226 -5 281 -22 q 133 39 172 13 l 139 -10 l 81 -10 l 72 229 l 115 229 q 147 128 118 172 q 222 58 175 83 q 321 32 268 32 q 427 60 381 32 q 474 142 474 89 q 451 207 474 181 q 394 251 428 233 q 299 292 360 268 q 181 344 225 319 q 104 410 136 368 q 72 515 72 451 q 94 607 72 561 q 169 685 117 653 q 310 717 222 717 m 326 1081 l 533 854 l 496 810 l 319 961 l 317 961 l 138 819 l 103 860 l 324 1081 l 326 1081 z "},"ș":{"ha":643,"x_min":72,"x_max":586,"o":"m 310 717 q 398 703 353 717 q 482 657 443 689 l 479 710 l 538 710 l 538 467 l 493 467 q 444 606 489 547 q 317 665 399 665 q 217 634 254 665 q 181 560 181 603 q 205 492 181 519 q 265 444 229 464 q 363 401 301 425 q 479 347 435 372 q 555 281 524 322 q 586 182 586 240 q 552 69 586 115 q 463 1 518 24 q 346 -22 408 -22 q 226 -5 281 -22 q 133 39 172 13 l 139 -10 l 81 -10 l 72 229 l 115 229 q 147 128 118 172 q 222 58 175 83 q 321 32 268 32 q 427 60 381 32 q 474 142 474 89 q 451 207 474 181 q 394 251 428 233 q 299 292 360 268 q 181 344 225 319 q 104 410 136 368 q 72 515 72 451 q 94 607 72 561 q 169 685 117 653 q 310 717 222 717 m 425 -56 q 447 -144 447 -99 q 335 -360 447 -247 l 299 -333 q 346 -178 346 -246 q 329 -83 346 -132 l 425 -56 z "},"ß":{"ha":946,"x_min":35,"x_max":907,"o":"m 483 1056 q 627 1028 553 1056 q 756 922 701 1000 q 804 704 810 843 q 800 664 804 689 q 718 668 733 668 q 542 560 542 668 q 583 473 542 507 q 708 397 625 439 q 812 339 772 365 q 879 274 851 313 q 907 183 907 236 q 844 30 907 82 q 671 -22 781 -22 q 592 -10 638 -22 q 511 22 546 1 l 515 -11 l 457 -11 l 449 228 l 492 228 q 544 85 497 139 q 668 32 590 32 q 754 62 718 32 q 790 144 790 92 q 769 206 790 179 q 718 251 749 232 q 633 296 688 269 q 528 352 568 326 q 460 418 489 378 q 432 515 432 458 q 498 665 432 611 q 685 717 564 719 q 628 941 688 886 q 486 996 568 996 q 306 888 360 996 q 276 783 285 843 q 268 636 268 724 l 269 147 q 264 53 269 85 l 351 57 l 351 0 l 68 0 l 68 42 q 126 62 108 42 q 147 113 143 82 q 150 211 150 144 l 149 635 l 35 632 l 35 694 l 149 694 l 149 696 q 187 881 149 800 q 300 1009 225 963 q 483 1056 375 1056 z "},"t":{"ha":538,"x_min":29,"x_max":532,"o":"m 258 694 l 492 694 l 492 640 l 258 638 q 256 343 257 425 q 256 251 256 261 q 279 105 256 153 q 361 57 303 57 q 433 79 397 57 q 494 140 468 101 l 532 110 q 425 3 478 29 q 322 -22 372 -22 q 133 233 132 -22 l 136 636 l 29 635 l 29 694 q 142 755 96 696 q 211 889 189 814 l 258 889 l 258 694 z "},"ť":{"ha":538,"x_min":29,"x_max":532,"o":"m 514 1074 q 531 1013 531 1039 q 499 895 531 954 q 415 785 467 836 l 379 813 q 431 997 431 911 q 418 1092 431 1046 l 514 1074 m 258 694 l 492 694 l 492 640 l 258 638 q 256 343 257 425 q 256 251 256 261 q 279 105 256 153 q 361 57 303 57 q 433 79 397 57 q 494 140 468 101 l 532 110 q 425 3 478 29 q 322 -22 372 -22 q 133 233 132 -22 l 136 636 l 29 635 l 29 694 q 142 755 96 696 q 211 889 189 814 l 258 889 l 258 694 z "},"ţ":{"ha":538,"x_min":29,"x_max":532,"o":"m 399 -79 q 467 -104 442 -79 q 492 -171 492 -129 q 408 -282 492 -244 q 219 -335 325 -319 l 211 -289 q 333 -248 288 -275 q 378 -182 378 -221 q 333 -140 378 -140 q 271 -161 301 -140 l 224 -139 l 257 -14 q 133 233 132 26 l 136 636 l 29 635 l 29 694 q 142 755 96 696 q 211 889 189 814 l 258 889 l 258 694 l 492 694 l 492 640 l 258 638 q 256 343 257 425 q 256 251 256 261 q 279 105 256 153 q 361 57 303 57 q 433 79 397 57 q 494 140 468 101 l 532 110 q 430 6 481 33 q 331 -22 379 -21 l 304 -103 q 399 -79 344 -79 z "},"ț":{"ha":538,"x_min":29,"x_max":532,"o":"m 258 694 l 492 694 l 492 640 l 258 638 q 256 343 257 425 q 256 251 256 261 q 279 105 256 153 q 361 57 303 57 q 433 79 397 57 q 494 140 468 101 l 532 110 q 425 3 478 29 q 322 -22 372 -22 q 133 233 132 -22 l 136 636 l 29 635 l 29 694 q 142 755 96 696 q 211 889 189 814 l 258 889 l 258 694 m 390 -56 q 413 -144 413 -99 q 300 -360 413 -247 l 264 -333 q 311 -178 311 -246 q 294 -83 311 -132 l 390 -56 z "},"u":{"ha":829,"x_min":36,"x_max":789,"o":"m 694 183 q 689 53 694 103 l 789 58 l 789 0 l 590 0 q 581 83 583 43 q 474 8 535 38 q 354 -22 413 -22 q 181 46 236 -22 q 126 281 126 114 l 126 528 q 132 618 126 586 l 36 614 l 36 671 l 79 671 q 161 681 133 671 q 208 708 189 690 l 249 708 l 249 285 q 283 106 249 163 q 396 49 317 49 q 497 79 447 49 q 576 156 546 110 l 576 513 q 583 618 576 578 l 483 614 l 483 671 l 526 671 q 608 681 581 671 q 656 708 636 690 l 696 708 l 694 183 z "},"ú":{"ha":829,"x_min":36,"x_max":789,"o":"m 492 1051 q 508 1013 508 1035 q 479 953 508 983 l 324 806 l 285 838 l 401 1025 q 458 1063 428 1063 q 492 1051 475 1063 m 694 183 q 689 53 694 103 l 789 58 l 789 0 l 590 0 q 581 83 583 43 q 474 8 535 38 q 354 -22 413 -22 q 181 46 236 -22 q 126 281 126 114 l 126 528 q 132 618 126 586 l 36 614 l 36 671 l 79 671 q 161 681 133 671 q 208 708 189 690 l 249 708 l 249 285 q 283 106 249 163 q 396 49 317 49 q 497 79 447 49 q 576 156 546 110 l 576 513 q 583 618 576 578 l 483 614 l 483 671 l 526 671 q 608 681 581 671 q 656 708 636 690 l 696 708 l 694 183 z "},"ŭ":{"ha":829,"x_min":36,"x_max":789,"o":"m 694 183 q 689 53 694 103 l 789 58 l 789 0 l 590 0 q 581 83 583 43 q 474 8 535 38 q 354 -22 413 -22 q 181 46 236 -22 q 126 281 126 114 l 126 528 q 132 618 126 586 l 36 614 l 36 671 l 79 671 q 161 681 133 671 q 208 708 189 690 l 249 708 l 249 285 q 283 106 249 163 q 396 49 317 49 q 497 79 447 49 q 576 156 546 110 l 576 513 q 583 618 576 578 l 483 614 l 483 671 l 526 671 q 608 681 581 671 q 656 708 636 690 l 696 708 l 694 183 m 586 1007 q 394 839 525 839 q 284 881 336 839 q 207 1000 232 922 l 247 1021 q 311 952 269 981 q 399 924 353 924 q 486 953 444 924 q 549 1024 528 982 l 586 1007 z "},"û":{"ha":829,"x_min":36,"x_max":789,"o":"m 694 183 q 689 53 694 103 l 789 58 l 789 0 l 590 0 q 581 83 583 43 q 474 8 535 38 q 354 -22 413 -22 q 181 46 236 -22 q 126 281 126 114 l 126 528 q 132 618 126 586 l 36 614 l 36 671 l 79 671 q 161 681 133 671 q 208 708 189 690 l 249 708 l 249 285 q 283 106 249 163 q 396 49 317 49 q 497 79 447 49 q 576 156 546 110 l 576 513 q 583 618 576 578 l 483 614 l 483 671 l 526 671 q 608 681 581 671 q 656 708 636 690 l 696 708 l 694 183 m 406 1081 l 613 854 l 575 810 l 399 961 l 396 961 l 217 819 l 182 860 l 403 1081 l 406 1081 z "},"ü":{"ha":829,"x_min":36,"x_max":789,"o":"m 308 1011 q 357 987 338 1011 q 376 928 376 963 q 356 870 376 894 q 307 846 335 846 q 258 869 279 846 q 238 928 238 893 q 259 987 238 963 q 308 1011 281 1011 m 540 1011 q 589 987 569 1011 q 608 928 608 963 q 588 870 608 894 q 539 846 567 846 q 490 869 511 846 q 469 928 469 893 q 491 987 469 963 q 540 1011 513 1011 m 694 183 q 689 53 694 103 l 789 58 l 789 0 l 590 0 q 581 83 583 43 q 474 8 535 38 q 354 -22 413 -22 q 181 46 236 -22 q 126 281 126 114 l 126 528 q 132 618 126 586 l 36 614 l 36 671 l 79 671 q 161 681 133 671 q 208 708 189 690 l 249 708 l 249 285 q 283 106 249 163 q 396 49 317 49 q 497 79 447 49 q 576 156 546 110 l 576 513 q 583 618 576 578 l 483 614 l 483 671 l 526 671 q 608 681 581 671 q 656 708 636 690 l 696 708 l 694 183 z "},"ụ":{"ha":829,"x_min":36,"x_max":789,"o":"m 694 183 q 689 53 694 103 l 789 58 l 789 0 l 590 0 q 581 83 583 43 q 474 8 535 38 q 354 -22 413 -22 q 181 46 236 -22 q 126 281 126 114 l 126 528 q 132 618 126 586 l 36 614 l 36 671 l 79 671 q 161 681 133 671 q 208 708 189 690 l 249 708 l 249 285 q 283 106 249 163 q 396 49 317 49 q 497 79 447 49 q 576 156 546 110 l 576 513 q 583 618 576 578 l 483 614 l 483 671 l 526 671 q 608 681 581 671 q 656 708 636 690 l 696 708 l 694 183 m 417 -108 q 464 -130 444 -108 q 483 -182 483 -151 q 463 -234 483 -212 q 415 -256 442 -256 q 368 -234 388 -256 q 349 -182 349 -212 q 369 -130 349 -151 q 417 -108 389 -108 z "},"ù":{"ha":829,"x_min":36,"x_max":789,"o":"m 694 183 q 689 53 694 103 l 789 58 l 789 0 l 590 0 q 581 83 583 43 q 474 8 535 38 q 354 -22 413 -22 q 181 46 236 -22 q 126 281 126 114 l 126 528 q 132 618 126 586 l 36 614 l 36 671 l 79 671 q 161 681 133 671 q 208 708 189 690 l 249 708 l 249 285 q 283 106 249 163 q 396 49 317 49 q 497 79 447 49 q 576 156 546 110 l 576 513 q 583 618 576 578 l 483 614 l 483 671 l 526 671 q 608 681 581 671 q 656 708 636 690 l 696 708 l 694 183 m 303 1051 q 336 1063 319 1063 q 393 1025 367 1063 l 510 838 l 471 806 l 315 953 q 286 1013 286 983 q 303 1051 286 1035 z "},"ủ":{"ha":829,"x_min":36,"x_max":789,"o":"m 694 183 q 689 53 694 103 l 789 58 l 789 0 l 590 0 q 581 83 583 43 q 474 8 535 38 q 354 -22 413 -22 q 181 46 236 -22 q 126 281 126 114 l 126 528 q 132 618 126 586 l 36 614 l 36 671 l 79 671 q 161 681 133 671 q 208 708 189 690 l 249 708 l 249 285 q 283 106 249 163 q 396 49 317 49 q 497 79 447 49 q 576 156 546 110 l 576 513 q 583 618 576 578 l 483 614 l 483 671 l 526 671 q 608 681 581 671 q 656 708 636 690 l 696 708 l 694 183 m 379 1039 q 491 1006 450 1039 q 532 911 532 974 q 514 863 532 881 q 463 825 496 844 q 431 805 440 813 q 422 786 422 797 l 375 786 q 383 810 375 801 q 407 831 390 819 q 441 861 429 844 q 453 911 453 878 q 381 989 453 989 q 338 976 357 989 q 315 947 318 963 q 324 925 324 936 q 310 903 324 911 q 281 894 297 894 q 235 942 235 894 q 274 1010 235 981 q 379 1039 313 1039 z "},"ư":{"ha":829,"x_min":36,"x_max":893,"o":"m 694 183 q 689 53 694 103 l 789 58 l 789 0 l 590 0 q 581 83 583 43 q 474 8 535 38 q 354 -22 413 -22 q 181 46 236 -22 q 126 281 126 114 l 126 528 q 132 618 126 586 l 36 614 l 36 671 l 79 671 q 161 681 133 671 q 208 708 189 690 l 249 708 l 249 285 q 283 106 249 163 q 396 49 317 49 q 497 79 447 49 q 576 156 546 110 l 576 513 q 583 618 576 578 l 483 614 l 483 671 l 526 671 q 608 681 581 671 q 656 708 636 690 l 696 708 l 696 692 q 762 733 736 700 q 788 801 788 765 l 893 801 q 868 717 893 757 q 798 651 843 678 q 696 621 753 625 l 694 183 z "},"ứ":{"ha":829,"x_min":36,"x_max":893,"o":"m 694 183 q 689 53 694 103 l 789 58 l 789 0 l 590 0 q 581 83 583 43 q 474 8 535 38 q 354 -22 413 -22 q 181 46 236 -22 q 126 281 126 114 l 126 528 q 132 618 126 586 l 36 614 l 36 671 l 79 671 q 161 681 133 671 q 208 708 189 690 l 249 708 l 249 285 q 283 106 249 163 q 396 49 317 49 q 497 79 447 49 q 576 156 546 110 l 576 513 q 583 618 576 578 l 483 614 l 483 671 l 526 671 q 608 681 581 671 q 656 708 636 690 l 696 708 l 696 692 q 762 733 736 700 q 788 801 788 765 l 893 801 q 868 717 893 757 q 798 651 843 678 q 696 621 753 625 l 694 183 m 492 1051 q 508 1013 508 1035 q 479 953 508 983 l 324 806 l 285 838 l 401 1025 q 458 1063 428 1063 q 492 1051 475 1063 z "},"ự":{"ha":829,"x_min":36,"x_max":893,"o":"m 694 183 q 689 53 694 103 l 789 58 l 789 0 l 590 0 q 581 83 583 43 q 474 8 535 38 q 354 -22 413 -22 q 181 46 236 -22 q 126 281 126 114 l 126 528 q 132 618 126 586 l 36 614 l 36 671 l 79 671 q 161 681 133 671 q 208 708 189 690 l 249 708 l 249 285 q 283 106 249 163 q 396 49 317 49 q 497 79 447 49 q 576 156 546 110 l 576 513 q 583 618 576 578 l 483 614 l 483 671 l 526 671 q 608 681 581 671 q 656 708 636 690 l 696 708 l 696 692 q 762 733 736 700 q 788 801 788 765 l 893 801 q 868 717 893 757 q 798 651 843 678 q 696 621 753 625 l 694 183 m 417 -108 q 464 -130 444 -108 q 483 -182 483 -151 q 463 -234 483 -212 q 415 -256 442 -256 q 368 -234 388 -256 q 349 -182 349 -212 q 369 -130 349 -151 q 417 -108 389 -108 z "},"ừ":{"ha":829,"x_min":36,"x_max":893,"o":"m 694 183 q 689 53 694 103 l 789 58 l 789 0 l 590 0 q 581 83 583 43 q 474 8 535 38 q 354 -22 413 -22 q 181 46 236 -22 q 126 281 126 114 l 126 528 q 132 618 126 586 l 36 614 l 36 671 l 79 671 q 161 681 133 671 q 208 708 189 690 l 249 708 l 249 285 q 283 106 249 163 q 396 49 317 49 q 497 79 447 49 q 576 156 546 110 l 576 513 q 583 618 576 578 l 483 614 l 483 671 l 526 671 q 608 681 581 671 q 656 708 636 690 l 696 708 l 696 692 q 762 733 736 700 q 788 801 788 765 l 893 801 q 868 717 893 757 q 798 651 843 678 q 696 621 753 625 l 694 183 m 303 1051 q 336 1063 319 1063 q 393 1025 367 1063 l 510 838 l 471 806 l 315 953 q 286 1013 286 983 q 303 1051 286 1035 z "},"ử":{"ha":829,"x_min":36,"x_max":893,"o":"m 694 183 q 689 53 694 103 l 789 58 l 789 0 l 590 0 q 581 83 583 43 q 474 8 535 38 q 354 -22 413 -22 q 181 46 236 -22 q 126 281 126 114 l 126 528 q 132 618 126 586 l 36 614 l 36 671 l 79 671 q 161 681 133 671 q 208 708 189 690 l 249 708 l 249 285 q 283 106 249 163 q 396 49 317 49 q 497 79 447 49 q 576 156 546 110 l 576 513 q 583 618 576 578 l 483 614 l 483 671 l 526 671 q 608 681 581 671 q 656 708 636 690 l 696 708 l 696 692 q 762 733 736 700 q 788 801 788 765 l 893 801 q 868 717 893 757 q 798 651 843 678 q 696 621 753 625 l 694 183 m 379 1039 q 491 1006 450 1039 q 532 911 532 974 q 514 863 532 881 q 463 825 496 844 q 431 805 440 813 q 422 786 422 797 l 375 786 q 383 810 375 801 q 407 831 390 819 q 441 861 429 844 q 453 911 453 878 q 381 989 453 989 q 338 976 357 989 q 315 947 318 963 q 324 925 324 936 q 310 903 324 911 q 281 894 297 894 q 235 942 235 894 q 274 1010 235 981 q 379 1039 313 1039 z "}}}
